<?xml version="1.0" encoding="utf-8"?>
<!-- Generator: Adobe Illustrator 19.1.0, SVG Export Plug-In . SVG Version: 6.00 Build 0)  -->
<svg version="1.1" id="Layer_1" xmlns="http://www.w3.org/2000/svg" xmlns:xlink="http://www.w3.org/1999/xlink" x="0px" y="0px"
	 viewBox="0 0 532.3 532.3" style="enable-background:new 0 0 532.3 532.3;" xml:space="preserve">
<style type="text/css">
	.st0{fill-rule:evenodd;clip-rule:evenodd;}
</style>
<g>
	<g>
		<path class="st0" d="M484.7,218.5H131.2l71.5-120.4C215.8,76,208,47.7,185.3,35c-22.7-12.7-51.8-5.2-64.9,16.9L11.9,234.4
			C4.1,243.1-0.1,254.3,0,265.7c0,0.1,0,0.2,0,0.3c0,0.1,0,0.2,0,0.3c-0.2,11.4,4,22.6,11.9,31.2L120.4,480
			c13.1,22.1,42.2,29.6,64.9,16.9c22.7-12.8,30.5-41,17.4-63.1l-71.5-120.4h353.5c26.2,0,47.5-21.3,47.5-47.5
			C532.2,239.7,510.9,218.5,484.7,218.5z"/>
	</g>
</g>
</svg>
