<?xml version="1.0" encoding="utf-8"?>
<!-- Generator: Adobe Illustrator 19.1.0, SVG Export Plug-In . SVG Version: 6.00 Build 0)  -->
<svg version="1.1" id="Layer_1" xmlns="http://www.w3.org/2000/svg" xmlns:xlink="http://www.w3.org/1999/xlink" x="0px" y="0px"
	 viewBox="0 0 532.3 532.3" style="enable-background:new 0 0 532.3 532.3;" xml:space="preserve">
<style type="text/css">
	.st0{fill-rule:evenodd;clip-rule:evenodd;}
	.st1{fill:#231F20;}
	.st2{fill:none;stroke:#231F20;stroke-miterlimit:10;}
	.st3{fill:none;stroke:#000000;stroke-miterlimit:10;}
</style>
<g>
	<path d="M90.2,218.3c-14.7,0-26.7-12-26.7-26.7c0-14.7,12-26.7,26.7-26.7s26.7,12,26.7,26.7C116.9,206.4,104.9,218.3,90.2,218.3z
		 M90.2,169.9c-12,0-21.7,9.7-21.7,21.7s9.7,21.7,21.7,21.7s21.7-9.7,21.7-21.7S102.2,169.9,90.2,169.9z"/>
</g>
<g>
	<path d="M326.4,408.6c-70.6,0-128-57.4-128-128s57.4-128,128-128c70.6,0,128,57.4,128,128S396.9,408.6,326.4,408.6z M326.4,172.7
		c-59.5,0-108,48.4-108,108s48.4,108,108,108s108-48.4,108-108S385.9,172.7,326.4,172.7z"/>
</g>
<g>
	<path d="M326.4,374.6c-51.8,0-94-42.2-94-94c0-51.8,42.2-94,94-94c51.8,0,94,42.2,94,94C420.4,332.5,378.2,374.6,326.4,374.6z
		 M326.4,196.6c-46.3,0-84,37.7-84,84s37.7,84,84,84s84-37.7,84-84S372.7,196.6,326.4,196.6z"/>
</g>
<rect x="60.7" y="82" class="st0" width="58" height="15.5"/>
<path d="M508.2,104.9H26.1C12.8,104.9,2,115.7,2,129v219.8h20V129c0-2.3,1.8-4.1,4.1-4.1h482.2c2.3,0,4.1,1.8,4.1,4.1v313.4
	c0,2.3-1.8,4.1-4.1,4.1H118.7v20h389.5c13.3,0,24.1-10.8,24.1-24.1V129C532.3,115.7,521.5,104.9,508.2,104.9z"/>
<rect x="47" y="368.6" width="12.8" height="106.8"/>
<rect x="0" y="415.6" width="106.8" height="12.8"/>
</svg>
