<?xml version="1.0" encoding="utf-8"?>
<!-- Generator: Adobe Illustrator 19.2.1, SVG Export Plug-In . SVG Version: 6.00 Build 0)  -->
<svg version="1.1" id="Layer_1" xmlns="http://www.w3.org/2000/svg" xmlns:xlink="http://www.w3.org/1999/xlink" x="0px" y="0px"
	 viewBox="0 0 532.3 532.3" style="enable-background:new 0 0 532.3 532.3;" xml:space="preserve">
<style type="text/css">
	.st0{fill-rule:evenodd;clip-rule:evenodd;}
	.st1{fill:#231F20;}
	.st2{fill:none;stroke:#231F20;stroke-miterlimit:10;}
	.st3{fill:none;stroke:#231F20;stroke-width:24;stroke-miterlimit:10;}
	.st4{fill-rule:evenodd;clip-rule:evenodd;fill:#231F20;}
	.st5{fill:none;stroke:#231F20;stroke-width:28;stroke-miterlimit:10;}
</style>
<g>
	<path class="st1" d="M500.6,373.8c15.9-18.6,24.3-40.4,24.3-63.3c0-61.4-61.7-111.4-137.5-111.4s-137.5,50-137.5,111.4
		c0,61.4,61.7,111.4,137.5,111.4c15.6,0,30.9-2.1,45.5-6.3l63.5,19.6c1.1,0.3,2.1,0.5,3.2,0.5c2.7,0,5.3-1,7.3-2.8
		c2.9-2.6,4.2-6.5,3.4-10.3L500.6,373.8z M480.8,363.1c-2.4,2.6-3.5,6.2-2.8,9.7l7.3,36.2l-49.1-15.2c-2.1-0.6-4.3-0.6-6.4,0
		c-13.6,4.2-27.8,6.3-42.4,6.3c-63.8,0-115.6-40.2-115.6-89.5c0-49.4,51.9-89.5,115.6-89.5c63.8,0,115.6,40.2,115.6,89.5
		C503,329.5,495.3,347.7,480.8,363.1z"/>
	<path class="st1" d="M375.4,242.3c-3,0.2-5.3,2.8-5.1,5.8c0.2,3,2.7,5.4,5.8,5.1c58.7-3.9,90.4,53,90.7,53.5c1,1.8,2.9,2.9,4.8,2.9
		c0.9,0,1.8-0.2,2.6-0.7c2.7-1.4,3.6-4.8,2.2-7.4C475,298.9,441.2,237.8,375.4,242.3z"/>
	<path class="st1" d="M85,215.8c-2.3,4.3-0.7,9.6,3.5,11.9c1.3,0.7,2.8,1.1,4.2,1.1c3.1,0,6.1-1.7,7.7-4.6
		c0.5-0.9,51.2-91.9,145.1-85.7c5,0.4,9-3.3,9.3-8.2c0.3-4.8-3.3-9-8.2-9.3C141.4,113.9,87.2,211.7,85,215.8z"/>
	<path class="st1" d="M238.2,373.3C238.1,373.3,238.1,373.3,238.2,373.3c-3.5,0.1-7.1,0.2-10.6,0.2c-23.3,0-46.2-3.4-67.8-10
		c-3.4-1-7-1-10.3,0l-78.6,24.3l11.6-57.9c1.1-5.6-0.5-11.3-4.4-15.5c-23.2-24.6-35.5-53.8-35.5-84.2c0-79,83-143.3,185.1-143.3
		c75.2,0,140,34.9,169,84.9c2.5,6.6,8.9,11.3,16.4,11.3c9.7,0,17.5-7.9,17.5-17.5c0-3.1-0.8-6-2.2-8.5c0,0,0,0,0,0
		C394.9,92.6,318.9,51.8,227.5,51.8c-121.4,0-220.1,80-220.1,178.3c0,36.7,13.4,71.6,38.9,101.4l-15.7,78.1
		c-1.2,6.1,0.8,12.3,5.4,16.4c3.3,3,7.5,4.5,11.7,4.5c1.7,0,3.5-0.3,5.2-0.8l101.7-31.4c23.4,6.7,47.9,10,72.9,10
		c3,0,7.1-0.1,10-0.2c0.7,0,1.3-0.1,1.8-0.2c9-0.7,16.2-8.2,16.2-17.4C255.6,381.1,247.8,373.3,238.2,373.3z"/>
</g>
</svg>
