<?xml version="1.0" encoding="utf-8"?>
<!-- Generator: Adobe Illustrator 19.1.0, SVG Export Plug-In . SVG Version: 6.00 Build 0)  -->
<svg version="1.1" id="Layer_1" xmlns="http://www.w3.org/2000/svg" xmlns:xlink="http://www.w3.org/1999/xlink" x="0px" y="0px"
	 viewBox="0 0 532.3 532.3" style="enable-background:new 0 0 532.3 532.3;" xml:space="preserve">
<style type="text/css">
	.st0{fill-rule:evenodd;clip-rule:evenodd;}
	.st1{fill:#231F20;}
	.st2{fill:none;stroke:#231F20;stroke-miterlimit:10;}
	.st3{fill:none;stroke:#231F20;stroke-width:24;stroke-miterlimit:10;}
	.st4{fill-rule:evenodd;clip-rule:evenodd;fill:#231F20;}
	.st5{fill:none;stroke:#231F20;stroke-width:28;stroke-miterlimit:10;}
</style>
<g>
	<path class="st0" d="M458,44.9H337.9c-9.2,0-16.6,7.4-16.6,16.6s7.4,16.2,16.6,16.2H458c7.7,0,13.9,6.2,13.9,13.9v393.4
		c0,7.7-6.2,13.9-13.9,13.9H74.7c-7.7,0-13.9-6.2-13.9-13.9V91.6c0-7.7,6.2-13.9,13.9-13.9l119.4,0.1c9.2,0,16.6-7.1,16.6-16.3
		s-7.4-16.6-16.6-16.6H74.7c-25.7,0-46.6,20.9-46.6,46.6v393.4c0,25.7,20.9,46.6,46.6,46.6H458c25.7,0,46.6-20.9,46.6-46.6V91.6
		C504.6,65.8,483.7,44.9,458,44.9z"/>
	<path class="st0" d="M246.3,117.5h40.1c6.6,0,12-5.4,12-12V11.3c0-6.6-5.4-12-12-12h-40.1c-6.6,0-12,5.4-12,12v94.2
		C234.3,112.1,239.7,117.5,246.3,117.5z"/>
	<path class="st0" d="M230.2,333.3c-21.6,5.3-66.9,17-72.9,23.1c-12.7,13-17.8,51.8-5.1,71.3c0,0,59.2,2.9,118.5,2.9
		c54.7,0,109.9-2.9,109.9-2.9c12.6-19.4,7.6-58.3-5-71.3c-5.8-6-51.7-18-72.9-23.3c22.7-17.8,36.6-50.7,36.6-82
		c0-45.7-13.3-82.7-72.9-82.7c-59.7,0-72.9,37-72.9,82.7C193.4,282.5,207.3,315.5,230.2,333.3z"/>
</g>
</svg>
