<?xml version="1.0" encoding="utf-8"?>
<!-- Generator: Adobe Illustrator 19.2.1, SVG Export Plug-In . SVG Version: 6.00 Build 0)  -->
<svg version="1.1" id="Layer_1" xmlns="http://www.w3.org/2000/svg" xmlns:xlink="http://www.w3.org/1999/xlink" x="0px" y="0px"
	 viewBox="0 0 532.3 532.3" style="enable-background:new 0 0 532.3 532.3;" xml:space="preserve">
<style type="text/css">
	.st0{fill-rule:evenodd;clip-rule:evenodd;}
	.st1{fill:#231F20;}
	.st2{fill:none;stroke:#231F20;stroke-miterlimit:10;}
	.st3{fill:none;stroke:#231F20;stroke-width:24;stroke-miterlimit:10;}
	.st4{fill-rule:evenodd;clip-rule:evenodd;fill:#231F20;}
	.st5{fill:none;stroke:#231F20;stroke-width:28;stroke-miterlimit:10;}
</style>
<g>
	<path class="st1" d="M300.7,413.3c-7.8,0-14.5,4.2-18.3,10.4l-20.1,15.8L98.6,310.6C59.4,280.1,41.5,228,53.1,177.7
		c13.1-56.5,60-96,114.2-96c9.2,0,18.5,1.2,27.5,3.5c14.3,3.7,25.8,10,41.1,22.7c7.3,6.1,17.1,9.4,26.6,9.4c9.5,0,18.7-3.3,26.1-9.4
		c15.3-12.7,26.9-19,41.1-22.7c9.1-2.3,18.3-3.5,27.5-3.5c54.2,0,101.1,39.5,114.2,96c2.6,11.2,3.7,22.5,3.5,33.6
		c0.1,0,0.1,0,0.2,0.1c-0.1,0.8-0.2,1.6-0.2,2.4c0,11.3,9.2,20.5,20.5,20.5c10.9,0,19.7-8.4,20.4-19.1c0-0.1,0.1-0.2,0.1-0.3
		c1-16.4-0.6-29.6-4.5-46.4C493.8,92,428.9,40.7,357.3,40.7c-12.4,0-25.1,1.6-37.7,4.8c-22.7,5.8-39.8,16.5-57,30.8h-0.5
		c-17.3-14.2-34.4-24.9-57-30.8c-12.6-3.2-25.3-4.8-37.7-4.8C95.8,40.7,30.9,92,13.2,168.5C-2.4,236.1,23.4,304.1,73.4,343
		l188.9,148.7l49.3-38.8c6.2-3.7,10.3-10.5,10.3-18.2C322,422.8,312.4,413.3,300.7,413.3z"/>
	<path class="st1" d="M417.7,299.1c-2.5,0-4.5,0.7-6,2.2c-1.5,1.5-2.2,4-2.2,7.7v54.3c0,3.6,0.7,6.2,2.2,7.7c1.5,1.5,3.5,2.2,6,2.2
		c2.5,0,4.5-0.7,6-2.2c1.5-1.5,2.2-4,2.2-7.7V309c0-3.6-0.7-6.2-2.2-7.7C422.2,299.9,420.2,299.1,417.7,299.1z"/>
	<path class="st1" d="M417.1,232.2c-58.9,0-106.6,47.7-106.6,106.6c0,58.9,47.7,106.6,106.6,106.6s106.6-47.7,106.6-106.6
		C523.7,280,476,232.2,417.1,232.2z M441.7,362.3c0,8.1-2.1,14.4-6.2,18.7c-4.1,4.4-10.1,6.5-17.8,6.5c-7.8,0-13.7-2.2-17.8-6.5
		c-4.1-4.4-6.2-10.6-6.2-18.7V310c0-8.1,2.1-14.4,6.2-18.7c4.1-4.4,10.1-6.5,17.8-6.5c7.8,0,13.7,2.2,17.8,6.5
		c4.1,4.4,6.2,10.6,6.2,18.7V362.3z"/>
</g>
</svg>
