<?xml version="1.0" encoding="utf-8"?>
<!-- Generator: Adobe Illustrator 19.1.0, SVG Export Plug-In . SVG Version: 6.00 Build 0)  -->
<svg version="1.1" id="Layer_1" xmlns="http://www.w3.org/2000/svg" xmlns:xlink="http://www.w3.org/1999/xlink" x="0px" y="0px"
	 viewBox="0 0 532.3 532.3" style="enable-background:new 0 0 532.3 532.3;" xml:space="preserve">
<style type="text/css">
	.st0{fill-rule:evenodd;clip-rule:evenodd;}
	.st1{fill:#231F20;}
	.st2{fill:none;stroke:#231F20;stroke-miterlimit:10;}
	.st3{fill:none;stroke:#231F20;stroke-width:24;stroke-miterlimit:10;}
	.st4{fill-rule:evenodd;clip-rule:evenodd;fill:#231F20;}
</style>
<g>
	<g>
		<path class="st1" d="M505.9,208.6l-50.4-10.1c-2.5-7.3-5.5-14.4-8.8-21.2l28.6-42.9c8.7-13.1,7-30.4-4.1-41.5l-31.7-31.7
			c-6.4-6.4-14.8-9.6-23.3-9.6c-6.3,0-12.7,1.8-18.2,5.5L355,85.7c-6.9-3.3-14-6.3-21.2-8.8l-10.1-50.4C320.6,11.1,307.1,0,291.4,0
			h-44.8c-15.7,0-29.2,11.1-32.3,26.5l-10.1,50.4c-7.3,2.5-14.4,5.5-21.2,8.8l-42.8-28.6c-5.6-3.7-11.9-5.5-18.2-5.5
			c-8.5,0-16.9,3.3-23.3,9.6L67,93c-11.1,11.1-12.8,28.5-4.1,41.5l28.6,42.9c-3.3,6.9-6.3,13.9-8.8,21.2l-50.5,10.1
			c-15.4,3.1-26.5,16.6-26.5,32.3v44.8c0,15.7,11.1,29.2,26.5,32.3l50.4,10.1c2.5,7.3,5.5,14.4,8.8,21.2l-28.5,42.9
			c-8.7,13.1-7,30.4,4.1,41.5l31.7,31.7c6.4,6.4,14.8,9.6,23.3,9.6c6.3,0,12.7-1.8,18.2-5.5l42.9-28.6c6.9,3.3,13.9,6.3,21.2,8.8
			l10.1,50.4c3.1,15.4,16.6,26.5,32.3,26.5h44.8c15.7,0,29.2-11.1,32.3-26.5l10.1-50.4c7.3-2.5,14.4-5.5,21.2-8.8l42.9,28.6
			c5.6,3.7,11.9,5.5,18.2,5.5c8.5,0,16.9-3.3,23.3-9.6l31.7-31.7c11.1-11.1,12.8-28.5,4.1-41.5l-28.6-42.9c3.3-6.9,6.3-14,8.8-21.2
			l50.4-10.1c15.4-3,26.5-16.6,26.5-32.3v-44.8C532.3,225.2,521.2,211.7,505.9,208.6z M449,295.8c-11.4,2.3-20.8,10.4-24.6,21.5
			c-2.1,6.1-4.6,12-7.4,17.7c-5.1,10.5-4.2,22.9,2.2,32.6l28.6,42.9l-31.7,31.7l-42.9-28.6c-5.5-3.7-11.9-5.5-18.3-5.5
			c-4.9,0-9.8,1.1-14.3,3.3c-5.7,2.8-11.6,5.3-17.7,7.4c-11,3.8-19.2,13.2-21.4,24.6l-10.1,50.5h-44.8l-10.1-50.5
			c-2.3-11.4-10.4-20.8-21.5-24.6c-6.1-2.1-12-4.6-17.7-7.4c-4.5-2.2-9.4-3.3-14.4-3.3c-6.4,0-12.8,1.9-18.3,5.5L122,442.1
			l-31.7-31.7l28.6-42.9c6.5-9.7,7.3-22.1,2.3-32.6c-2.8-5.7-5.3-11.6-7.4-17.7c-3.8-11-13.2-19.2-24.6-21.4l-50.4-10.1l0-44.8
			l50.5-10.1c11.4-2.3,20.8-10.4,24.6-21.5c2.1-6.1,4.6-12,7.4-17.7c5.1-10.5,4.2-22.9-2.2-32.6l-28.5-42.9l31.6-31.7l42.9,28.6
			c5.5,3.7,11.9,5.5,18.3,5.5c4.9,0,9.8-1.1,14.3-3.3c5.7-2.8,11.6-5.2,17.7-7.4c11-3.8,19.2-13.2,21.5-24.6l10.1-50.4l44.8,0
			l10.1,50.5c2.3,11.4,10.5,20.8,21.5,24.6c6.1,2.1,12,4.6,17.7,7.4c4.6,2.2,9.4,3.3,14.4,3.3c6.4,0,12.8-1.9,18.3-5.5l42.9-28.6
			l31.7,31.7l-28.6,42.9c-6.5,9.7-7.3,22.1-2.3,32.6c2.8,5.7,5.3,11.6,7.4,17.7c3.8,11,13.2,19.2,24.6,21.5l50.4,10.1l0,44.8
			L449,295.8z M269,148.1c-63.6,0-115.2,51.6-115.2,115.2c0,63.6,51.6,115.2,115.2,115.2c63.6,0,115.2-51.6,115.2-115.2
			C384.2,199.7,332.6,148.1,269,148.1z M269,364.1c-55.7,0-100.8-45.2-100.8-100.8c0-55.7,45.1-100.8,100.8-100.8
			c55.6,0,100.8,45.1,100.8,100.8C369.8,319,324.7,364.1,269,364.1z M269,197.5c-36.4,0-65.8,29.5-65.8,65.8
			c0,36.4,29.5,65.8,65.8,65.8c36.4,0,65.8-29.5,65.8-65.8C334.9,226.9,305.4,197.5,269,197.5z M269,312.7
			c-27.3,0-49.4-22.1-49.4-49.4c0-27.3,22.1-49.4,49.4-49.4c27.3,0,49.4,22.1,49.4,49.4C318.4,290.6,296.3,312.7,269,312.7z"/>
	</g>
</g>
</svg>
