<?xml version="1.0" encoding="utf-8"?>
<!-- Generator: Adobe Illustrator 19.1.0, SVG Export Plug-In . SVG Version: 6.00 Build 0)  -->
<svg version="1.1" id="Layer_1" xmlns="http://www.w3.org/2000/svg" xmlns:xlink="http://www.w3.org/1999/xlink" x="0px" y="0px"
	 viewBox="0 0 532.3 532.3" style="enable-background:new 0 0 532.3 532.3;" xml:space="preserve">
<style type="text/css">
	.st0{fill-rule:evenodd;clip-rule:evenodd;}
	.st1{fill:#231F20;}
	.st2{fill:none;stroke:#231F20;stroke-miterlimit:10;}
	.st3{fill:none;stroke:#231F20;stroke-width:24;stroke-miterlimit:10;}
	.st4{fill-rule:evenodd;clip-rule:evenodd;fill:#231F20;}
</style>
<g>
	<g>
		<path class="st4" d="M497.3,236H35c-19.3,0-35,15.7-35,35s15.7,35,35,35h462.3c19.3,0,35-15.7,35-35S516.7,236,497.3,236z
			 M35,129.6h308.2c19.3,0,35-15.7,35-35s-15.7-35-35-35H35c-19.3,0-35,15.7-35,35S15.7,129.6,35,129.6z M343.2,404.1H35
			c-19.3,0-35,15.7-35,35s15.7,35,35,35h308.2c19.3,0,35-15.7,35-35S362.6,404.1,343.2,404.1z"/>
	</g>
</g>
</svg>
