<?xml version="1.0" encoding="utf-8"?>
<!-- Generator: Adobe Illustrator 19.1.0, SVG Export Plug-In . SVG Version: 6.00 Build 0)  -->
<svg version="1.1" id="Layer_1" xmlns="http://www.w3.org/2000/svg" xmlns:xlink="http://www.w3.org/1999/xlink" x="0px" y="0px"
	 viewBox="0 0 532.3 532.3" style="enable-background:new 0 0 532.3 532.3;" xml:space="preserve">
<style type="text/css">
	.st0{fill-rule:evenodd;clip-rule:evenodd;}
	.st1{fill:#231F20;}
	.st2{fill:none;stroke:#231F20;stroke-miterlimit:10;}
	.st3{fill:none;stroke:#231F20;stroke-width:24;stroke-miterlimit:10;}
	.st4{fill-rule:evenodd;clip-rule:evenodd;fill:#231F20;}
</style>
<g>
	<g>
		<circle class="st3" cx="266.2" cy="265.6" r="252"/>
	</g>
</g>
<path class="st4" d="M356.4,367.2c-6.2,6.2-16.3,6.2-22.5,0l-74-74c-6.2-6.2-6.2-16.3,0-22.5c6.2-6.2,16.3-6.2,22.5,0l74,74
	C362.6,351,362.6,361,356.4,367.2z"/>
<path class="st4" d="M268.4,136.3c8.8,0,15.9,7.1,15.9,15.9v127.1c0,8.8-7.1,15.9-15.9,15.9s-15.9-7.1-15.9-15.9V152.2
	C252.5,143.4,259.6,136.3,268.4,136.3z"/>
</svg>
