<?xml version="1.0" encoding="utf-8"?>
<!-- Generator: Adobe Illustrator 19.1.0, SVG Export Plug-In . SVG Version: 6.00 Build 0)  -->
<svg version="1.1" id="Layer_1" xmlns="http://www.w3.org/2000/svg" xmlns:xlink="http://www.w3.org/1999/xlink" x="0px" y="0px"
	 viewBox="0 0 532.3 532.3" style="enable-background:new 0 0 532.3 532.3;" xml:space="preserve">
<style type="text/css">
	.st0{fill-rule:evenodd;clip-rule:evenodd;}
	.st1{fill:#231F20;}
	.st2{fill:none;stroke:#231F20;stroke-miterlimit:10;}
	.st3{fill:none;stroke:#000000;stroke-miterlimit:10;}
</style>
<path class="st0" d="M482.4,516.4c0,0-20.7,14.1-223.3,14.1C56.5,530.5,50,516.4,50,516.4C24.4,480.2,37.3,420,62.8,395.8
	C77,382.5,185.2,355.3,210.9,349c-8.9-4.8-17.1-11.1-25-17.9c-38.1,0-87,0-100.6,0c32.9,0,32.9-148.1,32.9-148.1h0.6
	c-0.3-4.3-0.8-8.7-0.8-13c0-92.8,26.9-168,148-168c121.1,0,148,75.2,148,168c0,4.3-0.5,8.7-0.8,13h0.7c0,0,0,148.1,32.9,148.1
	c-13.6,0-62.5,0-100.6,0c-7.7,6.7-15.7,12.8-24.4,17.6c22.4,5.6,133.9,34,147.8,47.2C495.1,420,507.8,480.2,482.4,516.4z M447,413.3
	C427,403.6,334,377.4,299,367.6v-36.6v0h0v-7.5c13.4-5.7,25.5-14.1,35.9-25.4c11.6,0,54.2,0,62.7,0c-16.4,0-16.4-115.2-16.4-115.2
	h-1c0.3-4.1,0.9-8.3,0.9-12.4c0-75-19.2-135.8-115-135.8c-95.8,0-115,60.8-115,135.8c0,4.1,0.6,8.3,0.9,12.4h-0.9
	c0,0,0,115.2-16.4,115.2c8.5,0,50.9,0,62.6,0c10.4,11.3,22.6,19.7,36,25.4v7.5v34.1c-20.1,6.3-119.5,37.4-141.7,48.2
	c-24,11.7-42.3,68.3-6.3,82.2c-1.1,0.3,87.8,5.6,176.7,5.5c92.3-0.1,184.9-5.5,184.9-5.5C478.6,483.5,470.9,424.9,447,413.3z"/>
</svg>
