<?xml version="1.0" encoding="utf-8"?>
<!-- Generator: Adobe Illustrator 19.1.0, SVG Export Plug-In . SVG Version: 6.00 Build 0)  -->
<svg version="1.1" id="Layer_1" xmlns="http://www.w3.org/2000/svg" xmlns:xlink="http://www.w3.org/1999/xlink" x="0px" y="0px"
	 viewBox="0 0 532.3 532.3" style="enable-background:new 0 0 532.3 532.3;" xml:space="preserve">
<style type="text/css">
	.st0{fill-rule:evenodd;clip-rule:evenodd;}
	.st1{fill:#231F20;}
	.st2{fill:none;stroke:#231F20;stroke-miterlimit:10;}
	.st3{fill:none;stroke:#000000;stroke-miterlimit:10;}
</style>
<g>
	<path class="st1" d="M524.5,195c-18.3-79.3-85.7-132.5-159.9-132.5c-12.9,0-26,1.6-39.1,5c-23.5,6-41.3,17.1-59.1,31.9h-0.5
		c-17.9-14.8-35.6-25.9-59.1-31.9c-13.1-3.4-26.2-5-39.1-5C93.5,62.5,26.1,115.7,7.8,195C-8.4,265.1,18.4,335.7,70.3,376
		l195.9,154.1L462.1,376C513.9,335.7,540.7,265.1,524.5,195z M435.8,342.5L266.2,476L96.4,342.4c-40.7-31.6-59.2-85.6-47.1-137.7
		c13.5-58.6,62.2-99.6,118.4-99.6c9.5,0,19.1,1.2,28.5,3.6c14.8,3.8,26.8,10.4,42.7,23.5c7.6,6.3,17.7,9.7,27.6,9.7
		c9.9,0,19.4-3.4,27.1-9.7c15.9-13.1,27.9-19.7,42.7-23.5c9.4-2.4,19-3.6,28.5-3.6c56.2,0,104.9,40.9,118.4,99.6
		C495.1,256.7,476.6,310.8,435.8,342.5z"/>
	<path class="st1" d="M175.5,131.2c-75,13.9-87.9,93.5-88,94.3c-0.9,5.8,3.1,11.2,8.9,12.1c0.5,0.1,1.1,0.1,1.6,0.1
		c5.2,0,9.7-3.8,10.5-9c0.1-0.7,10.6-65.5,70.9-76.6c5.8-1.1,9.6-6.6,8.5-12.4C186.8,134,181.3,130.2,175.5,131.2z"/>
</g>
</svg>
