<?xml version="1.0" encoding="iso-8859-1"?>
<!-- Generator: Adobe Illustrator 19.0.0, SVG Export Plug-In . SVG Version: 6.00 Build 0)  -->
<svg version="1.1" id="Layer_1" xmlns="http://www.w3.org/2000/svg" xmlns:xlink="http://www.w3.org/1999/xlink" x="0px" y="0px"
	 viewBox="0 0 490.667 490.667" style="enable-background:new 0 0 490.667 490.667;" xml:space="preserve">
<g>
	<g>
		<g>
			<path d="M202.569,42.667c0-9.344,3.093-17.92,8.213-24.939C196.553,10.219,177.097,0,147.23,0
				c-25.195,0-44.523,12.864-63.232,25.301C64.713,38.123,46.494,50.219,20.83,51.221c-4.224,0.149-7.765,2.965-9.344,6.891
				c-1.579,3.925-0.491,8.555,2.453,11.563c43.776,44.843,107.328,70.805,188.629,77.611V42.667z"/>
			<path d="M437.236,213.333c-11.755,0-21.333,9.579-21.333,21.333c0,5.888-4.779,10.667-10.667,10.667s-10.667-4.779-10.667-10.667
				v-21.333c0-11.755-9.579-21.333-21.333-21.333s-21.333,9.579-21.333,21.333V224c0,5.888-4.779,10.667-10.667,10.667
				s-10.667-4.779-10.667-10.667v-32c0-11.755-9.579-21.333-21.333-21.333c-11.755,0-21.333,9.579-21.333,21.333v53.333
				c0,5.888-4.779,10.667-10.667,10.667s-10.667-4.779-10.667-10.667V42.667c0-11.755-9.579-21.333-21.333-21.333
				c-11.755,0-21.333,9.579-21.333,21.333v273.557c0,14.059-11.477,25.515-25.579,25.515c-6.72,0-13.099-2.667-17.92-7.509
				l-17.365-17.365c-16.192-16.192-43.072-18.816-61.888-6.741l143.893,143.893c23.595,23.637,55.019,36.651,88.427,36.651
				c68.992,0,125.099-56.107,125.099-125.099V234.667C458.569,222.912,448.99,213.333,437.236,213.333z"/>
			<path d="M479.134,57.92c-1.557-3.925-5.291-6.549-9.493-6.699c-25.664-0.981-43.883-13.099-63.168-25.92
				C387.764,12.864,368.414,0,343.241,0c-29.867,0-49.323,10.219-63.531,17.728c5.099,7.019,8.192,15.595,8.192,24.939v104.597
				c81.301-6.805,144.853-32.768,188.971-77.952C479.817,66.304,480.713,61.824,479.134,57.92z"/>
		</g>
	</g>
</g>
<g>
</g>
<g>
</g>
<g>
</g>
<g>
</g>
<g>
</g>
<g>
</g>
<g>
</g>
<g>
</g>
<g>
</g>
<g>
</g>
<g>
</g>
<g>
</g>
<g>
</g>
<g>
</g>
<g>
</g>
</svg>
