<?xml version="1.0" encoding="utf-8"?>
<!-- Generator: Adobe Illustrator 19.2.1, SVG Export Plug-In . SVG Version: 6.00 Build 0)  -->
<svg version="1.1" id="Layer_1" xmlns="http://www.w3.org/2000/svg" xmlns:xlink="http://www.w3.org/1999/xlink" x="0px" y="0px"
	 viewBox="0 0 532.3 532.3" style="enable-background:new 0 0 532.3 532.3;" xml:space="preserve">
<style type="text/css">
	.st0{fill-rule:evenodd;clip-rule:evenodd;}
	.st1{fill:#231F20;}
	.st2{fill:none;stroke:#231F20;stroke-miterlimit:10;}
	.st3{fill:none;stroke:#231F20;stroke-width:24;stroke-miterlimit:10;}
	.st4{fill-rule:evenodd;clip-rule:evenodd;fill:#231F20;}
	.st5{fill:none;stroke:#231F20;stroke-width:28;stroke-miterlimit:10;}
	.st6{fill:none;stroke:#231F20;stroke-width:4;stroke-linecap:round;stroke-miterlimit:10;}
	
		.st7{fill:none;stroke:#231F20;stroke-width:4;stroke-linecap:round;stroke-miterlimit:10;stroke-dasharray:1.0017,12.0202,1.0017,12.0202;}
	
		.st8{fill:none;stroke:#231F20;stroke-width:4;stroke-linecap:round;stroke-miterlimit:10;stroke-dasharray:1.0017,12.0202,1.0017,12.0202,1.0017,12.0202;}
</style>
<g>
	<g>
		<path class="st1" d="M517.7,87.2c-16.9-16.4-44.2-16.4-61.1,0L227.7,315.8L86.5,178.3c-16.9-16.4-44.2-16.4-61.1,0
			c-16.9,16.4-16.9,43.1,0,59.5l164.4,160.1c1.8,3,4.1,5.9,6.7,8.5c8.7,8.5,20.2,12.6,31.5,12.3c11.4,0.3,22.8-3.8,31.5-12.3
			c2.8-2.7,5.1-5.8,7-9l251.1-250.6C534.6,130.3,534.6,103.7,517.7,87.2z"/>
	</g>
</g>
</svg>
