<?xml version="1.0" encoding="utf-8"?>
<!-- Generator: Adobe Illustrator 19.1.0, SVG Export Plug-In . SVG Version: 6.00 Build 0)  -->
<svg version="1.1" id="Layer_1" xmlns="http://www.w3.org/2000/svg" xmlns:xlink="http://www.w3.org/1999/xlink" x="0px" y="0px"
	 viewBox="0 0 532.3 532.3" style="enable-background:new 0 0 532.3 532.3;" xml:space="preserve">
<style type="text/css">
	.st0{fill-rule:evenodd;clip-rule:evenodd;}
	.st1{fill:#231F20;}
	.st2{fill:none;stroke:#231F20;stroke-miterlimit:10;}
	.st3{fill:none;stroke:#231F20;stroke-width:24;stroke-miterlimit:10;}
	.st4{fill-rule:evenodd;clip-rule:evenodd;fill:#231F20;}
</style>
<g>
	<path class="st0" d="M333.7,0.5H197.1C88.4,0.5,0,88.9,0,197.6v136.6c0,108.7,88.4,197.1,197.1,197.1h136.6
		c108.7,0,197.1-88.4,197.1-197.1V197.6C530.8,88.9,442.3,0.5,333.7,0.5z M24,334.2V197.6c0-95.5,77.7-173.1,173.1-173.1h136.6
		c44,0,84.3,16.5,114.8,43.7L67.7,449C40.5,418.4,24,378.2,24,334.2z M506.8,334.2c0,50.5-21.8,96.1-56.4,127.8
		c-3.9-11.9-9.8-22.3-17-29.2c-11.4-10.9-103.7-34.5-122.2-39.2c7.2-4,13.8-9.1,20.2-14.6c20.1,0,43.8,0,61.2,0
		c15.7,0,5.7-19.3,9-12.1c-14.2-31-14.2-110.9-14.2-110.9h-0.6c0.2-3.6,0.7-7.2,0.7-10.8c0-21.9-1.8-42.7-6.7-61.2l-18,18
		c2.8,13.8,3.9,28.6,3.9,43.7c0,3.4-0.5,6.9-0.7,10.3h0.8c0,0-0.2,104.2,13.4,104.2c-7,0-49.2,0-58.8,0
		c-8.5,9.3-18.2,14.8-29.2,19.5l-0.2,26.2c29,8.1,110.8,34.4,127.3,42.4c6.5,3.1,12.2,14.4,14.6,27.1
		c-28.3,20.1-62.8,31.9-100.1,31.9H197.1c-37.5,0-72.2-12-100.6-32.3c0.9-3.5,2-7,3.4-10.3l-7.4,7.4c-3.4-2.6-6.7-5.3-10-8.2
		L463.3,83.1c27,30.5,43.4,70.7,43.4,114.5V334.2z"/>
	<path class="st0" d="M264.9,105.6c-100.2,0-122.4,62.5-122.4,139.5c0,3.6,0.4,7.2,0.7,10.8h-0.5c0,0,0.2,77.5-13.2,109.8
		c-1,2-1.5,3.7-1.7,5.2l34-34c4.8-30.7,4.8-81,4.8-81h0.8c-0.2-3.4-0.7-6.9-0.7-10.3c0-67.1,15.7-120.5,99.3-120.5
		c37.3,0,61.5,12,76.8,30.9l16-16C340,118.5,310.6,105.6,264.9,105.6z"/>
	<path class="st0" d="M292.1,378.9L292.1,378.9l-0.2,0.8c0.1,0,0.1-0.1,0.2-0.1L292.1,378.9L292.1,378.9z"/>
	<path class="st0" d="M207,360.1c-0.7,0-1.6,0-2.6,0l-19.6,19.6c4,0,8.1,0,12.4,0c6.5,5.7,14.6,10.1,22,14.1
		c-10.8,2.7-39.3,9.8-66.2,17.7l-30.6,30.6c27.4-10.6,102.1-32,117.3-36.7v-28l0,2.2C228.5,375.1,215.6,369.5,207,360.1z"/>
</g>
</svg>
