<?xml version="1.0" encoding="iso-8859-1"?>
<!-- Generator: Adobe Illustrator 18.1.1, SVG Export Plug-In . SVG Version: 6.00 Build 0)  -->
<svg version="1.1" id="Capa_1" xmlns="http://www.w3.org/2000/svg" xmlns:xlink="http://www.w3.org/1999/xlink" x="0px" y="0px"
	 viewBox="0 0 15.08 15.08" style="enable-background:new 0 0 15.08 15.08;" xml:space="preserve">
<g>
	<g>
		<path style="fill:#030104;" d="M7.548,0C3.386,0,0,3.382,0,7.541c0,4.156,3.386,7.539,7.548,7.539
			c4.153,0,7.531-3.383,7.531-7.539C15.079,3.382,11.701,0,7.548,0z M7.548,14.187c-3.669,0-6.655-2.981-6.655-6.646
			s2.985-6.646,6.655-6.646c3.66,0,6.638,2.981,6.638,6.646S11.208,14.187,7.548,14.187z"/>
		<path style="fill:#030104;" d="M11.366,6.731c0-0.676-0.55-1.224-1.227-1.224c-0.676,0-1.225,0.547-1.225,1.224"/>
		<circle style="fill:#030104;" cx="5.018" cy="5.955" r="1.225"/>
		<path style="fill:#030104;" d="M4.188,11.029c0.588,0.317,6.155,4.021,7.553-2.734C9.597,11.661,7.55,11.884,4.188,11.029z"/>
	</g>
</g>
<g>
</g>
<g>
</g>
<g>
</g>
<g>
</g>
<g>
</g>
<g>
</g>
<g>
</g>
<g>
</g>
<g>
</g>
<g>
</g>
<g>
</g>
<g>
</g>
<g>
</g>
<g>
</g>
<g>
</g>
</svg>
