<?xml version="1.0" encoding="utf-8"?>
<!-- Generator: Adobe Illustrator 19.2.1, SVG Export Plug-In . SVG Version: 6.00 Build 0)  -->
<svg version="1.1" id="Layer_1" xmlns="http://www.w3.org/2000/svg" xmlns:xlink="http://www.w3.org/1999/xlink" x="0px" y="0px"
	 viewBox="0 0 532.3 532.3" style="enable-background:new 0 0 532.3 532.3;" xml:space="preserve">
<style type="text/css">
	.st0{fill-rule:evenodd;clip-rule:evenodd;}
	.st1{fill:#231F20;}
	.st2{fill:none;stroke:#231F20;stroke-miterlimit:10;}
	.st3{fill:none;stroke:#231F20;stroke-width:24;stroke-miterlimit:10;}
	.st4{fill-rule:evenodd;clip-rule:evenodd;fill:#231F20;}
	.st5{fill:none;stroke:#231F20;stroke-width:28;stroke-miterlimit:10;}
	.st6{fill:none;stroke:#231F20;stroke-width:4;stroke-linecap:round;stroke-miterlimit:10;}
	
		.st7{fill:none;stroke:#231F20;stroke-width:4;stroke-linecap:round;stroke-miterlimit:10;stroke-dasharray:1.0017,12.0202,1.0017,12.0202;}
	
		.st8{fill:none;stroke:#231F20;stroke-width:4;stroke-linecap:round;stroke-miterlimit:10;stroke-dasharray:1.0017,12.0202,1.0017,12.0202,1.0017,12.0202;}
	.st9{fill:#FFFFFF;}
	.st10{opacity:0.6;fill:#231F20;enable-background:new    ;}
</style>
<g>
	<g>
		<path class="st1" d="M407.5,371.6c-1.7,0-3.1,0.5-4.1,1.5c-1,1-1.5,2.8-1.5,5.3v37.2c0,2.5,0.5,4.3,1.5,5.3c1,1,2.4,1.5,4.1,1.5
			c1.7,0,3.1-0.5,4.1-1.5c1-1,1.5-2.8,1.5-5.3v-37.2c0-2.5-0.5-4.2-1.5-5.3C410.6,372.1,409.2,371.6,407.5,371.6z"/>
		<path class="st1" d="M407.1,325.8c-40.4,0-73.1,32.7-73.1,73.1c0,40.4,32.7,73.1,73.1,73.1s73.1-32.7,73.1-73.1
			C480.2,358.5,447.5,325.8,407.1,325.8z M423.9,414.9c0,5.6-1.4,9.9-4.2,12.8c-2.8,3-6.9,4.5-12.2,4.5c-5.3,0-9.4-1.5-12.2-4.5
			c-2.8-3-4.2-7.3-4.2-12.8v-35.8c0-5.6,1.4-9.9,4.2-12.8c2.8-3,6.9-4.5,12.2-4.5c5.3,0,9.4,1.5,12.2,4.5c2.8,3,4.2,7.3,4.2,12.8
			V414.9z"/>
	</g>
	<path class="st4" d="M429.6,136.9L236.2,330.4l-94.5-78.8c-13.4-11.2-33.3-9.3-44.4,4c-11.2,13.4-9.3,33.3,4,44.4l116.6,97.2
		c5.9,4.9,13,7.3,20.2,7.3c8.1,0,16.2-3.1,22.3-9.2l213.9-213.9c12.3-12.3,12.3-32.3,0-44.6C462,124.6,442,124.6,429.6,136.9z"/>
</g>
</svg>
