<?xml version="1.0" encoding="utf-8"?>
<!-- Generator: Adobe Illustrator 19.1.0, SVG Export Plug-In . SVG Version: 6.00 Build 0)  -->
<svg version="1.1" id="Layer_1" xmlns="http://www.w3.org/2000/svg" xmlns:xlink="http://www.w3.org/1999/xlink" x="0px" y="0px"
	 viewBox="0 0 532.3 532.3" style="enable-background:new 0 0 532.3 532.3;" xml:space="preserve">
<style type="text/css">
	.st0{fill-rule:evenodd;clip-rule:evenodd;}
	.st1{fill:#231F20;}
	.st2{fill:none;stroke:#231F20;stroke-miterlimit:10;}
	.st3{fill:none;stroke:#231F20;stroke-width:24;stroke-miterlimit:10;}
	.st4{fill-rule:evenodd;clip-rule:evenodd;fill:#231F20;}
</style>
<g>
	<path d="M334.4,0.5H197.9C89.2,0.5,0.8,88.9,0.8,197.6v136.6c0,108.7,88.4,197.1,197.1,197.1h136.6c108.7,0,197.1-88.4,197.1-197.1
		V197.6C531.5,88.9,443.1,0.5,334.4,0.5z M197.9,507.3c-37.5,0-72.3-12-100.6-32.3c3.3-13.4,10.4-25.7,19.2-29.9
		c18.3-8.9,107.3-34.4,124-39.5v-28l0,2.2c-11.1-4.7-24-10.2-32.6-19.6c-9.7,0.1-47.5,0.4-54.5-0.1c13.9-1.9,13.9-104.1,13.9-104.1
		h0.8c-0.2-3.4-0.7-6.9-0.7-10.3c0-67.1,15.7-120.5,99.3-120.5c82.1,0,100.8,58.2,100.8,120.5c0,3.4-0.5,6.9-0.7,10.3h0.8
		c0,0-0.2,104.2,13.4,104.2c-7,0-49.2,0-58.8,0c-8.5,9.3-18.2,14.8-29.2,19.5l-0.2,26.2c29,8.1,110.8,34.4,127.3,42.4
		c6.5,3.1,12.2,14.4,14.6,27.1c-28.3,20.1-62.8,31.9-100.1,31.9H197.9z M507.5,334.2c0,50.5-21.8,96.1-56.4,127.8
		c-3.9-11.9-9.8-22.3-17-29.2c-11.4-10.9-103.7-34.5-122.2-39.2c7.2-4,13.8-9.1,20.2-14.6c20.1,0,43.8,0,61.2,0
		c15.7,0,5.7-19.3,9-12.1c-14.2-31-14.2-110.9-14.2-110.9h-0.6c0.2-3.6,0.7-7.2,0.7-10.8c0-77-22.3-139.5-122.4-139.5
		c-100.2,0-122.4,62.5-122.4,139.5c0,3.6,0.4,7.2,0.7,10.8h-0.5c0,0,0.2,77.5-13.2,109.8c-6.5,13,7,14,12.4,14c17.1,0,34.7,0,55.5,0
		c6.5,5.7,14.6,10.1,22,14.1c-21.3,5.3-110.8,27.8-122.5,38.9c-7.1,6.8-13,16.9-17,28.6c-34.3-31.7-55.8-76.9-55.8-127.2V197.6
		c0-95.5,77.7-173.1,173.1-173.1h136.6c95.5,0,173.1,77.7,173.1,173.1V334.2z"/>
	<path d="M292.9,378.9L292.9,378.9l-0.2,0.8c0.1,0,0.1-0.1,0.2-0.1L292.9,378.9L292.9,378.9z"/>
	<path d="M286.8,203.2c-4.3-4.8-10.8-7.3-19.4-7.3c-8.6,0-15.1,2.4-19.4,7.3c-4.3,4.8-6.5,11.8-6.5,20.8v11h16.6v-12.1
		c0-4,0.8-6.9,2.3-8.5c1.5-1.6,3.7-2.5,6.5-2.5c2.8,0,4.9,0.8,6.5,2.5c1.5,1.7,2.3,4.5,2.3,8.5c0,4.7-0.5,8.7-1.4,12s-2.1,6.4-3.5,9
		c-1.4,2.7-2.9,5.1-4.6,7.4c-1.7,2.3-3.2,4.7-4.6,7.2c-1.4,2.5-2.6,5.2-3.5,8.2c-1,3-1.4,6.5-1.4,10.5c0,2.7,0.3,4.9,1,6.9h15.6
		c-0.4-1.8-0.6-3.9-0.6-6.2c0-3.4,0.5-6.4,1.5-9.1c1-2.7,2.3-5.2,3.8-7.5c1.5-2.3,3.2-4.7,5-7.1c1.8-2.4,3.5-5,5-7.9
		c1.5-2.9,2.8-6.1,3.8-9.7c1-3.6,1.5-7.8,1.5-12.7C293.3,214.9,291.2,208,286.8,203.2z"/>
	<rect x="256.8" y="292" width="16.9" height="16.9"/>
</g>
</svg>
