<?xml version="1.0" encoding="utf-8"?>
<!-- Generator: Adobe Illustrator 19.1.0, SVG Export Plug-In . SVG Version: 6.00 Build 0)  -->
<svg version="1.1" id="Layer_1" xmlns="http://www.w3.org/2000/svg" xmlns:xlink="http://www.w3.org/1999/xlink" x="0px" y="0px"
	 viewBox="0 0 532.3 532.3" style="enable-background:new 0 0 532.3 532.3;" xml:space="preserve">
<style type="text/css">
	.st0{fill-rule:evenodd;clip-rule:evenodd;}
	.st1{fill:#231F20;}
	.st2{fill:none;stroke:#231F20;stroke-miterlimit:10;}
	.st3{fill:none;stroke:#231F20;stroke-width:24;stroke-miterlimit:10;}
	.st4{fill-rule:evenodd;clip-rule:evenodd;fill:#231F20;}
</style>
<g>
	<path class="st1" d="M482.9,66.1H47.9C23,66.1,2.8,86.4,2.8,111.2v312.1c0,24.9,20.2,45.1,45.1,45.1h435.1
		c24.9,0,45.1-20.2,45.1-45.1V111.2C528,86.4,507.8,66.1,482.9,66.1z M501.3,427.9c0,6.6-5.4,12-12,12H41.5c-6.6,0-12-5.4-12-12
		V106.7c0-6.6,5.4-12,12-12h447.8c6.6,0,12,5.4,12,12V427.9z"/>
	<path class="st1" d="M412,170.5L265.4,271.3L118.8,170.5c-3.8-2.6-9-1.7-11.6,2.2c-2.6,3.8-1.7,9,2.2,11.6l151.3,104
		c1.4,1,3.1,1.5,4.7,1.5s3.3-0.5,4.7-1.5l151.3-104c3.8-2.6,4.8-7.8,2.2-11.6C421,168.9,415.8,167.9,412,170.5z"/>
</g>
</svg>
