<?xml version="1.0" encoding="utf-8"?>
<!-- Generator: Adobe Illustrator 19.1.0, SVG Export Plug-In . SVG Version: 6.00 Build 0)  -->
<svg version="1.1" id="Layer_1" xmlns="http://www.w3.org/2000/svg" xmlns:xlink="http://www.w3.org/1999/xlink" x="0px" y="0px"
	 viewBox="0 0 532.3 532.3" style="enable-background:new 0 0 532.3 532.3;" xml:space="preserve">
<style type="text/css">
	.st0{fill-rule:evenodd;clip-rule:evenodd;}
	.st1{fill:#231F20;}
	.st2{fill:none;stroke:#231F20;stroke-miterlimit:10;}
	.st3{fill:none;stroke:#000000;stroke-miterlimit:10;}
</style>
<g>
	<path d="M336,532.2H196.4C88.1,532.2,0,444.1,0,335.8V196.4C0,88.1,88.1,0,196.4,0H336c108.3,0,196.4,88.1,196.4,196.4v139.5
		C532.3,444.1,444.3,532.2,336,532.2z M196.4,26.8c-93.5,0-169.6,76.1-169.6,169.6v139.5c0,93.5,76.1,169.6,169.6,169.6H336
		c93.5,0,169.6-76.1,169.6-169.6V196.4c0-93.5-76.1-169.6-169.6-169.6H196.4z"/>
</g>
<path d="M264.4,532.2v-189l-52.5,0l0-63h52.5c0,0,0-43.2,0-52.5c0-9.3-4.2-68.2,76.6-68.2c10.8,0,38.2,0,59.9,0
	c0,27.1,0,54.5,0,62.9c-16.2,0-39,0-47.3,0c-8.3,0-15.8,9.4-15.8,15.8c0,6.4,0,42,0,42s51,0,57.8,0c-2.4,32.7-5.3,63-5.3,63h-52.5
	v189"/>
</svg>
