<?xml version="1.0" encoding="utf-8"?>
<!-- Generator: Adobe Illustrator 19.2.1, SVG Export Plug-In . SVG Version: 6.00 Build 0)  -->
<svg version="1.1" id="Layer_1" xmlns="http://www.w3.org/2000/svg" xmlns:xlink="http://www.w3.org/1999/xlink" x="0px" y="0px"
	 viewBox="0 0 532.3 532.3" style="enable-background:new 0 0 532.3 532.3;" xml:space="preserve">
<style type="text/css">
	.st0{fill-rule:evenodd;clip-rule:evenodd;}
	.st1{fill:#231F20;}
	.st2{fill:none;stroke:#231F20;stroke-miterlimit:10;}
	.st3{fill:none;stroke:#231F20;stroke-width:24;stroke-miterlimit:10;}
	.st4{fill-rule:evenodd;clip-rule:evenodd;fill:#231F20;}
	.st5{fill:none;stroke:#231F20;stroke-width:28;stroke-miterlimit:10;}
	.st6{fill:none;stroke:#231F20;stroke-width:4;stroke-linecap:round;stroke-miterlimit:10;}
	
		.st7{fill:none;stroke:#231F20;stroke-width:4;stroke-linecap:round;stroke-miterlimit:10;stroke-dasharray:1.0017,12.0202,1.0017,12.0202;}
	
		.st8{fill:none;stroke:#231F20;stroke-width:4;stroke-linecap:round;stroke-miterlimit:10;stroke-dasharray:1.0017,12.0202,1.0017,12.0202,1.0017,12.0202;}
</style>
<g>
	<g>
		<path class="st1" d="M429.9,470.5l30.9-31.9c3.2-3,3.2-8,0-11c-3.2-3-8.5-3-11.7,0l-28.8,29.7l-29.6-32.5c-3.2-3-8.5-3-11.7,0
			c-3.2,3-3.2,8,0,11l31.2,34.3l-33.7,31.8c-3.2,3-3.2,7.9,0,10.9c3.2,3,8.3,3,11.5,0l31.8-30l29.1,29.7c3.2,3,8.3,3,11.5,0
			c3.2-3,3.2-7.9,0-10.9L429.9,470.5z"/>
	</g>
</g>
<g>
	<path class="st1" d="M244.3,418.1c0,12.6,10.2,22.8,22.8,22.8s22.8-10.2,22.8-22.8s-10.2-22.8-22.8-22.8S244.3,405.5,244.3,418.1z
		 M283.3,418.1c0,8.9-7.2,16.1-16.1,16.1S251,427,251,418.1c0-8.9,7.2-16.1,16.1-16.1S283.3,409.2,283.3,418.1z"/>
	<path class="st1" d="M406.2,19.6H127.7c-14.7,0-26.7,12-26.7,26.7v412c0,14.7,12,26.7,26.7,26.7h205.6c7.4,0,13.4-6,13.4-13.4
		s-6-13.4-13.4-13.4H127.7v-412h278.4v341.2c0,7.4,6,13.4,13.4,13.4c7.4,0,13.4-6,13.4-13.4V46.3C432.9,31.5,420.9,19.6,406.2,19.6z
		"/>
</g>
</svg>
