<?xml version="1.0" encoding="utf-8"?>
<!-- Generator: Adobe Illustrator 19.2.1, SVG Export Plug-In . SVG Version: 6.00 Build 0)  -->
<svg version="1.1" id="Layer_1" xmlns="http://www.w3.org/2000/svg" xmlns:xlink="http://www.w3.org/1999/xlink" x="0px" y="0px"
	 viewBox="0 0 532.3 532.3" style="enable-background:new 0 0 532.3 532.3;" xml:space="preserve">
<style type="text/css">
	.st0{fill-rule:evenodd;clip-rule:evenodd;}
	.st1{fill:#231F20;}
	.st2{fill:none;stroke:#231F20;stroke-miterlimit:10;}
	.st3{fill:none;stroke:#231F20;stroke-width:24;stroke-miterlimit:10;}
	.st4{fill-rule:evenodd;clip-rule:evenodd;fill:#231F20;}
	.st5{fill:none;stroke:#231F20;stroke-width:28;stroke-miterlimit:10;}
</style>
<g>
	<path class="st1" d="M315.6,109.5c0.8,0.8,1.1,1.7,1,2.8c0,0.5,0.1,0.7,0.6,0.7c1.4,0,2.8,0,4.3,0c0.5,0,0.7-0.2,0.6-0.7
		c-0.1-1.1,0.2-2,1-2.7c0.9-0.8,1.5-1.7,1.8-2.9c0.1-0.2,0.1-0.5,0.2-0.7c0-0.2,0-0.5,0-0.7c-0.1-0.3-0.1-0.6-0.2-0.9
		c-0.5-2.2-2.5-3.8-4.7-4c-0.1,0-0.3-0.1-0.4-0.1c-0.2,0-0.4,0-0.6,0c-0.4,0.1-0.7,0.1-1.1,0.2c-2.1,0.6-3.6,1.8-4.2,4
		c-0.1,0.2-0.1,0.5-0.2,0.7c0,0.3,0,0.6,0,0.8c0,0.1,0.1,0.1,0.1,0.2C313.9,107.5,314.5,108.6,315.6,109.5z M314.9,104.2
		c0.6-1.8,1.9-2.8,3.8-3.1c2.7-0.4,4.8,1.3,5.3,3.3c0.4,1.7-0.1,3.2-1.3,4.4c-0.7,0.7-1.3,1.4-1.4,2.4c0,0.1,0,0.1,0,0.2
		c0,0.7,0,0.7-0.2,0.7c-0.4,0-1.2,0-1.6,0c0,0,0,0,0,0c-0.5,0-1.1,0-1.6,0c-0.1,0-0.2-0.2-0.2-0.3c0.1-1.3-0.5-2.2-1.4-3
		C314.8,107.5,314.3,106,314.9,104.2z"/>
	<path class="st1" d="M321.3,115.1c-1.3,0-2.6,0-3.9,0c-0.3,0-0.6,0.1-0.6,0.4c0,0.4,0.3,0.5,0.6,0.5c0.6,0,1.3,0,1.9,0
		c0.7,0,1.3,0,2,0c0.3,0,0.6-0.1,0.6-0.5C321.9,115.1,321.6,115.1,321.3,115.1z"/>
	<path class="st1" d="M321.3,113.6c-0.7,0-1.3,0-2,0c-0.7,0-1.3,0-2,0c-0.3,0-0.5,0.1-0.5,0.4c0,0.3,0.2,0.4,0.5,0.4
		c1.3,0,2.7,0,4,0c0.3,0,0.5-0.1,0.5-0.4C321.9,113.7,321.6,113.6,321.3,113.6z"/>
	<path class="st1" d="M318.8,102.1c0.3,0,0.5-0.1,0.8-0.1c0-0.1,0-0.1,0-0.2c-0.1,0-0.2-0.1-0.2-0.1c-1.9-0.1-3.8,1.5-3.8,3.5
		c0,0.1,0.1,0.3,0.2,0.4c0.1-0.1,0.2-0.2,0.2-0.4C316.1,103.6,317.2,102.4,318.8,102.1z"/>
	<path class="st1" d="M104.8,403.5c-0.1,0-0.3-0.1-0.4-0.1c-0.2,0-0.4,0-0.6,0c-0.4,0.1-0.7,0.1-1.1,0.2c-2.1,0.6-3.6,1.8-4.2,4
		c-0.1,0.2-0.1,0.5-0.2,0.7c0,0.3,0,0.5,0,0.8c0,0.1,0.1,0.1,0.1,0.2c0.1,1.4,0.8,2.5,1.8,3.4c0.8,0.8,1.1,1.7,1,2.8
		c0,0.5,0.1,0.7,0.6,0.7c1.4,0,2.8,0,4.3,0c0.5,0,0.7-0.2,0.6-0.7c-0.1-1.1,0.2-2,1-2.7c0.9-0.8,1.5-1.7,1.8-2.9
		c0.1-0.2,0.1-0.5,0.2-0.7c0-0.2,0-0.5,0-0.7c-0.1-0.3-0.1-0.6-0.2-0.9C108.9,405.4,107,403.7,104.8,403.5z M107.2,412
		c-0.7,0.7-1.3,1.4-1.4,2.4c0,0.1,0,0.1,0,0.2c0,0.7,0,0.7-0.2,0.7c-0.4,0-1.2,0-1.6,0v0c-0.5,0-1.1,0-1.6,0c-0.1,0-0.2-0.2-0.2-0.3
		c0.1-1.3-0.5-2.2-1.4-3c-1.3-1.3-1.9-2.8-1.3-4.6c0.6-1.8,1.9-2.8,3.8-3.1c2.7-0.4,4.8,1.3,5.3,3.3
		C108.9,409.4,108.5,410.8,107.2,412z"/>
	<path class="st1" d="M105.9,418.3c-1.3,0-2.6,0-3.9,0c-0.3,0-0.6,0.1-0.6,0.4c0,0.4,0.3,0.5,0.6,0.5c0.6,0,1.3,0,1.9,0
		c0.7,0,1.3,0,2,0c0.3,0,0.6-0.1,0.6-0.5C106.5,418.4,106.2,418.3,105.9,418.3z"/>
	<path class="st1" d="M106,416.9c-0.7,0-1.3,0-2,0c-0.7,0-1.3,0-2,0c-0.3,0-0.5,0.1-0.5,0.4c0,0.3,0.2,0.4,0.5,0.4c1.3,0,2.7,0,4,0
		c0.3,0,0.5-0.1,0.5-0.4C106.5,417,106.3,416.9,106,416.9z"/>
	<path class="st1" d="M104,405c-1.9-0.1-3.8,1.5-3.8,3.5c0,0.1,0.1,0.3,0.2,0.4c0.1-0.1,0.2-0.2,0.2-0.4c0.2-1.6,1.3-2.8,2.9-3.1
		c0.3,0,0.5-0.1,0.8-0.1c0-0.1,0-0.1,0-0.2C104.1,405.1,104,405,104,405z"/>
	<path class="st1" d="M515.7,228.6c-0.5-2.2-2.5-3.8-4.7-4c-0.1,0-0.3-0.1-0.4-0.1c-0.2,0-0.4,0-0.6,0c-0.4,0.1-0.7,0.1-1.1,0.2
		c-2.1,0.6-3.6,1.8-4.2,4c-0.1,0.2-0.1,0.5-0.2,0.7c0,0.3,0,0.6,0,0.8c0,0.1,0.1,0.1,0.1,0.2c0.1,1.4,0.8,2.5,1.8,3.4
		c0.8,0.8,1.1,1.7,1,2.8c0,0.5,0.1,0.7,0.6,0.7c1.4,0,2.8,0,4.3,0c0.5,0,0.7-0.2,0.6-0.7c-0.1-1.1,0.2-2,1-2.7
		c0.9-0.8,1.5-1.7,1.8-2.9c0.1-0.2,0.1-0.5,0.2-0.7c0-0.2,0-0.5,0-0.7C515.9,229.2,515.8,228.9,515.7,228.6z M513.5,233.1
		c-0.7,0.7-1.3,1.4-1.4,2.4c0,0.1,0,0.1,0,0.2c0,0.7,0,0.7-0.2,0.7c-0.4,0-1.2,0-1.6,0c0,0,0,0,0,0c-0.5,0-1.1,0-1.6,0
		c-0.1,0-0.2-0.2-0.2-0.3c0.1-1.3-0.5-2.2-1.4-3c-1.3-1.3-1.9-2.8-1.3-4.6c0.6-1.8,1.9-2.8,3.8-3.1c2.7-0.4,4.8,1.3,5.3,3.3
		C515.2,230.4,514.7,231.9,513.5,233.1z"/>
	<path class="st1" d="M512.2,239.4c-1.3,0-2.6,0-3.9,0c-0.3,0-0.6,0.1-0.6,0.4c0,0.4,0.3,0.5,0.6,0.5c0.6,0,1.3,0,1.9,0
		c0.7,0,1.3,0,2,0c0.3,0,0.6-0.1,0.6-0.5C512.8,239.5,512.5,239.4,512.2,239.4z"/>
	<path class="st1" d="M512.3,237.9c-0.7,0-1.3,0-2,0c-0.7,0-1.3,0-2,0c-0.3,0-0.5,0.1-0.5,0.4c0,0.3,0.2,0.4,0.5,0.4
		c1.3,0,2.7,0,4,0c0.3,0,0.5-0.1,0.5-0.4C512.8,238,512.6,237.9,512.3,237.9z"/>
	<path class="st1" d="M510.3,226.1c-1.9-0.1-3.8,1.5-3.8,3.5c0,0.1,0.1,0.3,0.2,0.4c0.1-0.1,0.2-0.2,0.2-0.4
		c0.2-1.6,1.3-2.8,2.9-3.1c0.3,0,0.5-0.1,0.8-0.1c0-0.1,0-0.1,0-0.2C510.4,226.1,510.3,226.1,510.3,226.1z"/>
	<path class="st1" d="M30.4,316.4c-0.1,0-0.3-0.1-0.4-0.1c-0.2,0-0.4,0-0.6,0c-0.4,0.1-0.7,0.1-1.1,0.2c-2.1,0.6-3.6,1.8-4.2,4
		c-0.1,0.2-0.1,0.5-0.2,0.7c0,0.3,0,0.6,0,0.8c0,0.1,0.1,0.1,0.1,0.2c0.1,1.4,0.8,2.5,1.8,3.4c0.8,0.8,1.1,1.7,1,2.8
		c0,0.5,0.1,0.7,0.6,0.7c1.4,0,2.8,0,4.3,0c0.5,0,0.7-0.2,0.6-0.7c-0.1-1.1,0.2-2,1-2.7c0.9-0.8,1.5-1.7,1.8-2.9
		c0.1-0.2,0.1-0.5,0.2-0.7c0-0.2,0-0.5,0-0.7c-0.1-0.3-0.1-0.6-0.2-0.9C34.5,318.3,32.6,316.6,30.4,316.4z M32.8,325
		c-0.7,0.7-1.3,1.4-1.4,2.4c0,0.1,0,0.1,0,0.2c0,0.7,0,0.7-0.2,0.7c-0.4,0-1.2,0-1.6,0c0,0,0,0,0,0c-0.5,0-1.1,0-1.6,0
		c-0.1,0-0.2-0.2-0.2-0.3c0.1-1.3-0.5-2.2-1.4-3c-1.3-1.3-1.9-2.8-1.3-4.6c0.6-1.8,1.9-2.8,3.8-3.1c2.7-0.4,4.8,1.3,5.3,3.3
		C34.5,322.3,34,323.7,32.8,325z"/>
	<path class="st1" d="M31.5,332.2c0.3,0,0.6-0.1,0.6-0.5c0-0.4-0.3-0.4-0.6-0.5c-1.3,0-2.6,0-3.9,0c-0.3,0-0.6,0.1-0.6,0.4
		c0,0.4,0.3,0.5,0.6,0.5c0.6,0,1.3,0,1.9,0C30.2,332.2,30.8,332.2,31.5,332.2z"/>
	<path class="st1" d="M27.5,330.6c1.3,0,2.7,0,4,0c0.3,0,0.5-0.1,0.5-0.4c0-0.4-0.2-0.5-0.5-0.5c-0.7,0-1.3,0-2,0c-0.7,0-1.3,0-2,0
		c-0.3,0-0.5,0.1-0.5,0.4C27,330.5,27.2,330.6,27.5,330.6z"/>
	<path class="st1" d="M29.6,317.9c-1.9-0.1-3.8,1.5-3.8,3.5c0,0.1,0.1,0.3,0.2,0.4c0.1-0.1,0.2-0.2,0.2-0.4c0.2-1.6,1.3-2.8,2.9-3.1
		c0.3,0,0.5-0.1,0.8-0.1c0-0.1,0-0.1,0-0.2C29.7,318,29.6,317.9,29.6,317.9z"/>
	<path class="st1" d="M282.1,400.4c-0.1,0-0.1,0-0.2-0.1c-0.1,0-0.2,0-0.3,0c-0.2,0-0.3,0.1-0.5,0.1c-1,0.3-1.7,0.9-2,1.9
		c0,0.1-0.1,0.2-0.1,0.3c0,0.1,0,0.3,0,0.4c0,0,0,0.1,0,0.1c0.1,0.7,0.4,1.2,0.9,1.6c0.4,0.4,0.5,0.8,0.5,1.3c0,0.2,0.1,0.3,0.3,0.3
		c0.7,0,1.4,0,2,0c0.3,0,0.3-0.1,0.3-0.3c0-0.5,0.1-1,0.5-1.3c0.4-0.4,0.7-0.8,0.8-1.4c0-0.1,0.1-0.2,0.1-0.4c0-0.1,0-0.2,0-0.3
		c0-0.1-0.1-0.3-0.1-0.4C284.1,401.4,283.2,400.6,282.1,400.4z M283.3,404.5c-0.3,0.3-0.6,0.7-0.7,1.2c0,0,0,0.1,0,0.1
		c0,0.3,0,0.3-0.1,0.3c-0.2,0-0.6,0-0.7,0c0,0,0,0,0,0c-0.2,0-0.5,0-0.8,0c-0.1,0-0.1-0.1-0.1-0.1c0.1-0.6-0.2-1-0.6-1.4
		c-0.6-0.6-0.9-1.4-0.6-2.2c0.3-0.9,0.9-1.4,1.8-1.5c1.3-0.2,2.3,0.6,2.5,1.6C284.1,403.3,283.9,404,283.3,404.5z"/>
	<path class="st1" d="M282.7,407.5c-0.6,0-1.3,0-1.9,0c-0.1,0-0.3,0-0.3,0.2c0,0.2,0.1,0.2,0.3,0.2c0.3,0,0.6,0,0.9,0
		c0.3,0,0.6,0,0.9,0c0.1,0,0.3,0,0.3-0.2C282.9,407.6,282.8,407.5,282.7,407.5z"/>
	<path class="st1" d="M282.7,406.8c-0.3,0-0.6,0-1,0c-0.3,0-0.6,0-1,0c-0.1,0-0.2,0-0.2,0.2c0,0.2,0.1,0.2,0.2,0.2
		c0.6,0,1.3,0,1.9,0c0.1,0,0.3,0,0.3-0.2C282.9,406.9,282.8,406.8,282.7,406.8z"/>
	<path class="st1" d="M281.7,401.2c-0.9,0-1.8,0.7-1.8,1.7c0,0.1,0,0.1,0.1,0.2c0-0.1,0.1-0.1,0.1-0.2c0.1-0.8,0.6-1.4,1.4-1.5
		c0.1,0,0.2,0,0.4-0.1c0,0,0-0.1,0-0.1C281.8,401.2,281.8,401.2,281.7,401.2z"/>
	<path class="st1" d="M506.8,301.3c-0.1,0-0.1,0-0.2-0.1c-0.1,0-0.2,0-0.3,0c-0.2,0-0.3,0.1-0.5,0.1c-1,0.3-1.7,0.9-2,1.9
		c0,0.1-0.1,0.2-0.1,0.3c0,0.1,0,0.3,0,0.4c0,0,0,0.1,0,0.1c0.1,0.7,0.4,1.2,0.9,1.6c0.4,0.4,0.5,0.8,0.5,1.3c0,0.2,0.1,0.3,0.3,0.3
		c0.7,0,1.4,0,2,0c0.3,0,0.3-0.1,0.3-0.3c0-0.5,0.1-1,0.5-1.3c0.4-0.4,0.7-0.8,0.8-1.4c0-0.1,0.1-0.2,0.1-0.4c0-0.1,0-0.2,0-0.3
		c0-0.1-0.1-0.3-0.1-0.4C508.8,302.2,507.9,301.4,506.8,301.3z M508,305.4c-0.3,0.3-0.6,0.7-0.7,1.2c0,0,0,0.1,0,0.1
		c0,0.3,0,0.3-0.1,0.3c-0.2,0-0.6,0-0.7,0v0c-0.2,0-0.5,0-0.8,0c-0.1,0-0.1-0.1-0.1-0.1c0.1-0.6-0.2-1-0.6-1.4
		c-0.6-0.6-0.9-1.4-0.6-2.2c0.3-0.9,0.9-1.4,1.8-1.5c1.3-0.2,2.3,0.6,2.5,1.6C508.8,304.2,508.6,304.9,508,305.4z"/>
	<path class="st1" d="M507.4,308.4c-0.6,0-1.3,0-1.9,0c-0.1,0-0.3,0-0.3,0.2c0,0.2,0.1,0.2,0.3,0.2c0.3,0,0.6,0,0.9,0
		c0.3,0,0.6,0,0.9,0c0.1,0,0.3,0,0.3-0.2C507.7,308.5,507.5,308.4,507.4,308.4z"/>
	<path class="st1" d="M507.4,307.7c-0.3,0-0.6,0-1,0c-0.3,0-0.6,0-1,0c-0.1,0-0.2,0-0.2,0.2c0,0.2,0.1,0.2,0.2,0.2
		c0.6,0,1.3,0,1.9,0c0.1,0,0.3,0,0.3-0.2C507.7,307.8,507.5,307.7,507.4,307.7z"/>
	<path class="st1" d="M506.4,302.1c-0.9,0-1.8,0.7-1.8,1.7c0,0.1,0,0.1,0.1,0.2c0-0.1,0.1-0.1,0.1-0.2c0.1-0.8,0.6-1.4,1.4-1.5
		c0.1,0,0.2,0,0.4-0.1c0,0,0-0.1,0-0.1C506.5,302.1,506.5,302.1,506.4,302.1z"/>
	<path class="st1" d="M148.5,380.6c-0.1,0-0.1,0-0.2-0.1c-0.1,0-0.2,0-0.3,0c-0.2,0-0.3,0.1-0.5,0.1c-1,0.3-1.7,0.9-2,1.9
		c0,0.1-0.1,0.2-0.1,0.3c0,0.1,0,0.3,0,0.4c0,0,0,0.1,0,0.1c0.1,0.7,0.4,1.2,0.9,1.6c0.4,0.4,0.5,0.8,0.5,1.3c0,0.2,0.1,0.3,0.3,0.3
		c0.7,0,1.4,0,2,0c0.3,0,0.3-0.1,0.3-0.3c0-0.5,0.1-1,0.5-1.3c0.4-0.4,0.7-0.8,0.8-1.4c0-0.1,0.1-0.2,0.1-0.4c0-0.1,0-0.2,0-0.4
		c0-0.1-0.1-0.3-0.1-0.4C150.5,381.5,149.6,380.7,148.5,380.6z M149.7,384.7c-0.3,0.3-0.6,0.7-0.7,1.2c0,0,0,0.1,0,0.1
		c0,0.3,0,0.3-0.1,0.3c-0.2,0-0.6,0-0.7,0v0c-0.2,0-0.5,0-0.8,0c-0.1,0-0.1-0.1-0.1-0.1c0.1-0.6-0.2-1-0.6-1.4
		c-0.6-0.6-0.9-1.4-0.6-2.2c0.3-0.9,0.9-1.4,1.8-1.5c1.3-0.2,2.3,0.6,2.5,1.6C150.5,383.4,150.3,384.1,149.7,384.7z"/>
	<path class="st1" d="M149.1,387.7c-0.6,0-1.3,0-1.9,0c-0.1,0-0.3,0-0.3,0.2c0,0.2,0.1,0.2,0.3,0.2c0.3,0,0.6,0,0.9,0
		c0.3,0,0.6,0,0.9,0c0.1,0,0.3,0,0.3-0.2C149.3,387.7,149.2,387.7,149.1,387.7z"/>
	<path class="st1" d="M149.1,387c-0.3,0-0.6,0-1,0c-0.3,0-0.6,0-1,0c-0.1,0-0.2,0-0.2,0.2c0,0.2,0.1,0.2,0.2,0.2c0.6,0,1.3,0,1.9,0
		c0.1,0,0.3,0,0.3-0.2C149.4,387,149.2,387,149.1,387z"/>
	<path class="st1" d="M148.1,381.3c-0.9,0-1.8,0.7-1.8,1.7c0,0.1,0,0.1,0.1,0.2c0-0.1,0.1-0.1,0.1-0.2c0.1-0.8,0.6-1.4,1.4-1.5
		c0.1,0,0.2,0,0.4-0.1c0,0,0-0.1,0-0.1C148.2,381.3,148.2,381.3,148.1,381.3z"/>
	<path class="st1" d="M132,123.1c0.4,0.4,0.5,0.8,0.5,1.3c0,0.2,0.1,0.3,0.3,0.3c0.7,0,1.4,0,2,0c0.3,0,0.3-0.1,0.3-0.3
		c0-0.5,0.1-1,0.5-1.3c0.4-0.4,0.7-0.8,0.8-1.4c0-0.1,0.1-0.2,0.1-0.4c0-0.1,0-0.2,0-0.4c0-0.1-0.1-0.3-0.1-0.4
		c-0.2-1-1.2-1.8-2.2-1.9c-0.1,0-0.1,0-0.2-0.1c-0.1,0-0.2,0-0.3,0c-0.2,0-0.3,0.1-0.5,0.1c-1,0.3-1.7,0.9-2,1.9
		c0,0.1-0.1,0.2-0.1,0.3c0,0.1,0,0.3,0,0.4c0,0,0,0.1,0,0.1C131.2,122.1,131.5,122.7,132,123.1z M131.7,120.6
		c0.3-0.9,0.9-1.4,1.8-1.5c1.3-0.2,2.3,0.6,2.5,1.6c0.2,0.8,0,1.5-0.6,2.1c-0.3,0.3-0.6,0.7-0.7,1.2c0,0,0,0.1,0,0.1
		c0,0.3,0,0.3-0.1,0.3c-0.2,0-0.6,0-0.7,0v0c-0.2,0-0.5,0-0.8,0c-0.1,0-0.1-0.1-0.1-0.1c0.1-0.6-0.2-1-0.6-1.4
		C131.7,122.2,131.4,121.4,131.7,120.6z"/>
	<path class="st1" d="M134.8,125.8c-0.6,0-1.3,0-1.9,0c-0.1,0-0.3,0-0.3,0.2c0,0.2,0.1,0.2,0.3,0.2c0.3,0,0.6,0,0.9,0
		c0.3,0,0.6,0,0.9,0c0.1,0,0.3,0,0.3-0.2C135,125.8,134.9,125.8,134.8,125.8z"/>
	<path class="st1" d="M134.8,125.1c-0.3,0-0.6,0-1,0c-0.3,0-0.6,0-1,0c-0.1,0-0.2,0-0.2,0.2c0,0.2,0.1,0.2,0.2,0.2
		c0.6,0,1.3,0,1.9,0c0.1,0,0.3,0,0.3-0.2C135,125.1,134.9,125.1,134.8,125.1z"/>
	<path class="st1" d="M133.6,119.6c0.1,0,0.2,0,0.4-0.1c0,0,0-0.1,0-0.1c0,0-0.1,0-0.1,0c-0.9,0-1.8,0.7-1.8,1.7
		c0,0.1,0,0.1,0.1,0.2c0-0.1,0.1-0.1,0.1-0.2C132.2,120.3,132.8,119.7,133.6,119.6z"/>
	<path class="st1" d="M32.5,415.5c-0.1,0-0.1,0-0.2-0.1c-0.1,0-0.2,0-0.3,0c-0.2,0-0.3,0.1-0.5,0.1c-1,0.3-1.7,0.9-2,1.9
		c0,0.1-0.1,0.2-0.1,0.3c0,0.1,0,0.3,0,0.4c0,0,0,0.1,0,0.1c0.1,0.7,0.4,1.2,0.9,1.6c0.4,0.4,0.5,0.8,0.5,1.3c0,0.2,0.1,0.3,0.3,0.3
		c0.7,0,1.4,0,2,0c0.3,0,0.3-0.1,0.3-0.3c0-0.5,0.1-1,0.5-1.3c0.4-0.4,0.7-0.8,0.8-1.4c0-0.1,0.1-0.2,0.1-0.4c0-0.1,0-0.2,0-0.4
		c0-0.1-0.1-0.3-0.1-0.4C34.5,416.4,33.5,415.6,32.5,415.5z M33.6,419.6c-0.3,0.3-0.6,0.7-0.7,1.2c0,0,0,0.1,0,0.1
		c0,0.3,0,0.3-0.1,0.3c-0.2,0-0.6,0-0.7,0v0c-0.2,0-0.5,0-0.8,0c-0.1,0-0.1-0.1-0.1-0.1c0.1-0.6-0.2-1-0.6-1.4
		c-0.6-0.6-0.9-1.4-0.6-2.2c0.3-0.9,0.9-1.4,1.8-1.5c1.3-0.2,2.3,0.6,2.5,1.6C34.5,418.3,34.2,419,33.6,419.6z"/>
	<path class="st1" d="M33,422.6c-0.6,0-1.3,0-1.9,0c-0.1,0-0.3,0-0.3,0.2c0,0.2,0.1,0.2,0.3,0.2c0.3,0,0.6,0,0.9,0
		c0.3,0,0.6,0,0.9,0c0.1,0,0.3,0,0.3-0.2C33.3,422.7,33.2,422.6,33,422.6z"/>
	<path class="st1" d="M33,421.9c-0.3,0-0.6,0-1,0c-0.3,0-0.6,0-1,0c-0.1,0-0.2,0-0.2,0.2c0,0.2,0.1,0.2,0.2,0.2c0.6,0,1.3,0,1.9,0
		c0.1,0,0.3,0,0.3-0.2C33.3,422,33.2,421.9,33,421.9z"/>
	<path class="st1" d="M32.1,416.3c-0.9,0-1.8,0.7-1.8,1.7c0,0.1,0,0.1,0.1,0.2c0-0.1,0.1-0.1,0.1-0.2c0.1-0.8,0.6-1.4,1.4-1.5
		c0.1,0,0.2,0,0.4-0.1c0,0,0-0.1,0-0.1C32.2,416.3,32.1,416.3,32.1,416.3z"/>
	<path class="st1" d="M185.2,419.3c-0.1,0-0.1,0-0.2-0.1c-0.1,0-0.2,0-0.3,0c-0.2,0-0.3,0.1-0.5,0.1c-1,0.3-1.7,0.9-2,1.9
		c0,0.1-0.1,0.2-0.1,0.3c0,0.1,0,0.3,0,0.4c0,0,0,0.1,0,0.1c0.1,0.7,0.4,1.2,0.9,1.6c0.4,0.4,0.5,0.8,0.5,1.3c0,0.2,0.1,0.3,0.3,0.3
		c0.7,0,1.4,0,2,0c0.3,0,0.3-0.1,0.3-0.3c0-0.5,0.1-1,0.5-1.3c0.4-0.4,0.7-0.8,0.8-1.4c0-0.1,0.1-0.2,0.1-0.4c0-0.1,0-0.2,0-0.3
		c0-0.1-0.1-0.3-0.1-0.4C187.2,420.2,186.2,419.4,185.2,419.3z M186.3,423.4c-0.3,0.3-0.6,0.7-0.7,1.2c0,0,0,0.1,0,0.1
		c0,0.3,0,0.3-0.1,0.3c-0.2,0-0.6,0-0.7,0v0c-0.2,0-0.5,0-0.8,0c-0.1,0-0.1-0.1-0.1-0.1c0.1-0.6-0.2-1-0.6-1.4
		c-0.6-0.6-0.9-1.4-0.6-2.2c0.3-0.9,0.9-1.4,1.8-1.5c1.3-0.2,2.3,0.6,2.5,1.6C187.2,422.1,186.9,422.8,186.3,423.4z"/>
	<path class="st1" d="M185.7,426.4c-0.6,0-1.3,0-1.9,0c-0.1,0-0.3,0-0.3,0.2c0,0.2,0.1,0.2,0.3,0.2c0.3,0,0.6,0,0.9,0
		c0.3,0,0.6,0,0.9,0c0.1,0,0.3,0,0.3-0.2C186,426.5,185.9,426.4,185.7,426.4z"/>
	<path class="st1" d="M185.8,425.7c-0.3,0-0.6,0-1,0c-0.3,0-0.6,0-1,0c-0.1,0-0.2,0-0.2,0.2c0,0.2,0.1,0.2,0.2,0.2
		c0.6,0,1.3,0,1.9,0c0.1,0,0.3,0,0.3-0.2C186,425.8,185.9,425.7,185.8,425.7z"/>
	<path class="st1" d="M184.8,420.1c-0.9,0-1.8,0.7-1.8,1.7c0,0.1,0,0.1,0.1,0.2c0-0.1,0.1-0.1,0.1-0.2c0.1-0.8,0.6-1.4,1.4-1.5
		c0.1,0,0.2,0,0.4-0.1c0,0,0-0.1,0-0.1C184.9,420.1,184.8,420.1,184.8,420.1z"/>
	<path class="st1" d="M342.6,412.5c-0.1,0-0.1,0-0.2-0.1c-0.1,0-0.2,0-0.3,0c-0.2,0-0.3,0.1-0.5,0.1c-1,0.3-1.7,0.9-2,1.9
		c0,0.1-0.1,0.2-0.1,0.3c0,0.1,0,0.3,0,0.4c0,0,0,0.1,0,0.1c0.1,0.7,0.4,1.2,0.9,1.6c0.4,0.4,0.5,0.8,0.5,1.3c0,0.2,0.1,0.3,0.3,0.3
		c0.7,0,1.4,0,2,0c0.3,0,0.3-0.1,0.3-0.3c0-0.5,0.1-1,0.5-1.3c0.4-0.4,0.7-0.8,0.8-1.4c0-0.1,0.1-0.2,0.1-0.4c0-0.1,0-0.2,0-0.3
		c0-0.1-0.1-0.3-0.1-0.4C344.6,413.4,343.7,412.6,342.6,412.5z M343.8,416.6c-0.3,0.3-0.6,0.7-0.7,1.2c0,0,0,0.1,0,0.1
		c0,0.3,0,0.3-0.1,0.3c-0.2,0-0.6,0-0.7,0v0c-0.2,0-0.5,0-0.8,0c-0.1,0-0.1-0.1-0.1-0.1c0.1-0.6-0.2-1-0.6-1.4
		c-0.6-0.6-0.9-1.4-0.6-2.2c0.3-0.9,0.9-1.4,1.8-1.5c1.3-0.2,2.3,0.6,2.5,1.6C344.6,415.3,344.4,416,343.8,416.6z"/>
	<path class="st1" d="M343.2,419.6c-0.6,0-1.3,0-1.9,0c-0.1,0-0.3,0-0.3,0.2c0,0.2,0.1,0.2,0.3,0.2c0.3,0,0.6,0,0.9,0
		c0.3,0,0.6,0,0.9,0c0.1,0,0.3,0,0.3-0.2C343.4,419.6,343.3,419.6,343.2,419.6z"/>
	<path class="st1" d="M343.2,418.9c-0.3,0-0.6,0-1,0c-0.3,0-0.6,0-1,0c-0.1,0-0.2,0-0.2,0.2c0,0.2,0.1,0.2,0.2,0.2
		c0.6,0,1.3,0,1.9,0c0.1,0,0.3,0,0.3-0.2C343.4,418.9,343.3,418.9,343.2,418.9z"/>
	<path class="st1" d="M342.2,413.2c-0.9,0-1.8,0.7-1.8,1.7c0,0.1,0,0.1,0.1,0.2c0-0.1,0.1-0.1,0.1-0.2c0.1-0.8,0.6-1.4,1.4-1.5
		c0.1,0,0.2,0,0.4-0.1c0,0,0-0.1,0-0.1C342.3,413.3,342.3,413.2,342.2,413.2z"/>
	<path class="st1" d="M444.3,395.6c-0.1,0-0.1,0-0.2-0.1c-0.1,0-0.2,0-0.3,0c-0.2,0-0.3,0.1-0.5,0.1c-1,0.3-1.7,0.9-2,1.9
		c0,0.1-0.1,0.2-0.1,0.3c0,0.1,0,0.3,0,0.4c0,0,0,0.1,0,0.1c0.1,0.7,0.4,1.2,0.9,1.6c0.4,0.4,0.5,0.8,0.5,1.3c0,0.2,0.1,0.3,0.3,0.3
		c0.7,0,1.4,0,2,0c0.3,0,0.3-0.1,0.3-0.3c0-0.5,0.1-1,0.5-1.3c0.4-0.4,0.7-0.8,0.8-1.4c0-0.1,0.1-0.2,0.1-0.4c0-0.1,0-0.2,0-0.4
		c0-0.1-0.1-0.3-0.1-0.4C446.3,396.5,445.4,395.7,444.3,395.6z M445.5,399.7c-0.3,0.3-0.6,0.7-0.7,1.2c0,0,0,0.1,0,0.1
		c0,0.3,0,0.3-0.1,0.3c-0.2,0-0.6,0-0.7,0v0c-0.2,0-0.5,0-0.8,0c-0.1,0-0.1-0.1-0.1-0.1c0.1-0.6-0.2-1-0.6-1.4
		c-0.6-0.6-0.9-1.4-0.6-2.2c0.3-0.9,0.9-1.4,1.8-1.5c1.3-0.2,2.3,0.6,2.5,1.6C446.3,398.4,446.1,399.1,445.5,399.7z"/>
	<path class="st1" d="M444.9,402.7c-0.6,0-1.3,0-1.9,0c-0.1,0-0.3,0-0.3,0.2c0,0.2,0.1,0.2,0.3,0.2c0.3,0,0.6,0,0.9,0
		c0.3,0,0.6,0,0.9,0c0.1,0,0.3,0,0.3-0.2C445.2,402.8,445,402.7,444.9,402.7z"/>
	<path class="st1" d="M444.9,402c-0.3,0-0.6,0-1,0s-0.6,0-1,0c-0.1,0-0.2,0-0.2,0.2c0,0.2,0.1,0.2,0.2,0.2c0.6,0,1.3,0,1.9,0
		c0.1,0,0.3,0,0.3-0.2C445.2,402,445.1,402,444.9,402z"/>
	<path class="st1" d="M444,396.4c-0.9,0-1.8,0.7-1.8,1.7c0,0.1,0,0.1,0.1,0.2c0-0.1,0.1-0.1,0.1-0.2c0.1-0.8,0.6-1.4,1.4-1.5
		c0.1,0,0.2,0,0.4-0.1c0,0,0-0.1,0-0.1C444,396.4,444,396.4,444,396.4z"/>
	<path class="st1" d="M67.6,149.5c-0.1,0-0.1,0-0.2-0.1c-0.1,0-0.2,0-0.3,0c-0.2,0-0.3,0.1-0.5,0.1c-1,0.3-1.7,0.9-2,1.9
		c0,0.1-0.1,0.2-0.1,0.3c0,0.1,0,0.3,0,0.4c0,0,0,0.1,0,0.1c0.1,0.7,0.4,1.2,0.9,1.6c0.4,0.4,0.5,0.8,0.5,1.3c0,0.2,0.1,0.3,0.3,0.3
		c0.7,0,1.4,0,2,0c0.3,0,0.3-0.1,0.3-0.3c0-0.5,0.1-1,0.5-1.3c0.4-0.4,0.7-0.8,0.8-1.4c0-0.1,0.1-0.2,0.1-0.4c0-0.1,0-0.2,0-0.3
		c0-0.1-0.1-0.3-0.1-0.4C69.6,150.4,68.7,149.6,67.6,149.5z M68.7,153.6c-0.3,0.3-0.6,0.7-0.7,1.2c0,0,0,0.1,0,0.1
		c0,0.3,0,0.3-0.1,0.3c-0.2,0-0.6,0-0.7,0v0c-0.2,0-0.5,0-0.8,0c-0.1,0-0.1-0.1-0.1-0.1c0.1-0.6-0.2-1-0.6-1.4
		c-0.6-0.6-0.9-1.4-0.6-2.2c0.3-0.9,0.9-1.4,1.8-1.5c1.3-0.2,2.3,0.6,2.5,1.6C69.6,152.3,69.4,153,68.7,153.6z"/>
	<path class="st1" d="M68.1,156.6c-0.6,0-1.3,0-1.9,0c-0.1,0-0.3,0-0.3,0.2c0,0.2,0.1,0.2,0.3,0.2c0.3,0,0.6,0,0.9,0
		c0.3,0,0.6,0,0.9,0c0.1,0,0.3,0,0.3-0.2C68.4,156.6,68.3,156.6,68.1,156.6z"/>
	<path class="st1" d="M68.2,155.9c-0.3,0-0.6,0-1,0s-0.6,0-1,0c-0.1,0-0.2,0-0.2,0.2c0,0.2,0.1,0.2,0.2,0.2c0.6,0,1.3,0,1.9,0
		c0.1,0,0.3,0,0.3-0.2C68.4,155.9,68.3,155.9,68.2,155.9z"/>
	<path class="st1" d="M67.2,150.2c-0.9,0-1.8,0.7-1.8,1.7c0,0.1,0,0.1,0.1,0.2c0-0.1,0.1-0.1,0.1-0.2c0.1-0.8,0.6-1.4,1.4-1.5
		c0.1,0,0.2,0,0.4-0.1c0,0,0-0.1,0-0.1C67.3,150.2,67.2,150.2,67.2,150.2z"/>
	<path class="st1" d="M388.5,123.1c0.4,0.4,0.5,0.8,0.5,1.3c0,0.2,0.1,0.3,0.3,0.3c0.7,0,1.4,0,2,0c0.3,0,0.3-0.1,0.3-0.3
		c0-0.5,0.1-1,0.5-1.3c0.4-0.4,0.7-0.8,0.8-1.4c0-0.1,0.1-0.2,0.1-0.4c0-0.1,0-0.2,0-0.3c0-0.1-0.1-0.3-0.1-0.4
		c-0.2-1-1.2-1.8-2.2-1.9c-0.1,0-0.1,0-0.2-0.1c-0.1,0-0.2,0-0.3,0c-0.2,0-0.3,0.1-0.5,0.1c-1,0.3-1.7,0.9-2,1.9
		c0,0.1-0.1,0.2-0.1,0.3c0,0.1,0,0.3,0,0.4c0,0,0,0.1,0,0.1C387.7,122.2,388.1,122.7,388.5,123.1z M388.2,120.6
		c0.3-0.9,0.9-1.4,1.8-1.5c1.3-0.2,2.3,0.6,2.5,1.6c0.2,0.8,0,1.5-0.6,2.1c-0.3,0.3-0.6,0.7-0.7,1.2c0,0,0,0.1,0,0.1
		c0,0.3,0,0.3-0.1,0.3c-0.2,0-0.6,0-0.7,0v0c-0.2,0-0.5,0-0.8,0c-0.1,0-0.1-0.1-0.1-0.1c0.1-0.6-0.2-1-0.6-1.4
		C388.2,122.2,387.9,121.5,388.2,120.6z"/>
	<path class="st1" d="M391.3,125.8c-0.6,0-1.3,0-1.9,0c-0.1,0-0.3,0-0.3,0.2c0,0.2,0.1,0.2,0.3,0.2c0.3,0,0.6,0,0.9,0
		c0.3,0,0.6,0,0.9,0c0.1,0,0.3,0,0.3-0.2C391.6,125.8,391.4,125.8,391.3,125.8z"/>
	<path class="st1" d="M391.3,125.1c-0.3,0-0.6,0-1,0s-0.6,0-1,0c-0.1,0-0.2,0-0.2,0.2c0,0.2,0.1,0.2,0.2,0.2c0.6,0,1.3,0,1.9,0
		c0.1,0,0.3,0,0.3-0.2C391.6,125.1,391.4,125.1,391.3,125.1z"/>
	<path class="st1" d="M390.1,119.6c0.1,0,0.2,0,0.4-0.1c0,0,0-0.1,0-0.1c0,0-0.1,0-0.1,0c-0.9,0-1.8,0.7-1.8,1.7
		c0,0.1,0,0.1,0.1,0.2c0-0.1,0.1-0.1,0.1-0.2C388.8,120.3,389.3,119.7,390.1,119.6z"/>
	<path class="st1" d="M498.7,179.7c-0.1,0-0.1,0-0.2-0.1c-0.1,0-0.2,0-0.3,0c-0.2,0-0.3,0.1-0.5,0.1c-1,0.3-1.7,0.9-2,1.9
		c0,0.1-0.1,0.2-0.1,0.3c0,0.1,0,0.3,0,0.4c0,0,0,0.1,0,0.1c0.1,0.7,0.4,1.2,0.9,1.6c0.4,0.4,0.5,0.8,0.5,1.3c0,0.2,0.1,0.3,0.3,0.3
		c0.7,0,1.4,0,2,0c0.3,0,0.3-0.1,0.3-0.3c0-0.5,0.1-1,0.5-1.3c0.4-0.4,0.7-0.8,0.8-1.4c0-0.1,0.1-0.2,0.1-0.4c0-0.1,0-0.2,0-0.4
		c0-0.1-0.1-0.3-0.1-0.4C500.7,180.6,499.7,179.8,498.7,179.7z M499.8,183.8c-0.3,0.3-0.6,0.7-0.7,1.2c0,0,0,0.1,0,0.1
		c0,0.3,0,0.3-0.1,0.3c-0.2,0-0.6,0-0.7,0c0,0,0,0,0,0c-0.2,0-0.5,0-0.8,0c-0.1,0-0.1-0.1-0.1-0.1c0.1-0.6-0.2-1-0.6-1.4
		c-0.6-0.6-0.9-1.4-0.6-2.2c0.3-0.9,0.9-1.4,1.8-1.5c1.3-0.2,2.3,0.6,2.5,1.6C500.7,182.5,500.4,183.2,499.8,183.8z"/>
	<path class="st1" d="M499.2,186.8c-0.6,0-1.3,0-1.9,0c-0.1,0-0.3,0-0.3,0.2c0,0.2,0.1,0.2,0.3,0.2c0.3,0,0.6,0,0.9,0
		c0.3,0,0.6,0,0.9,0c0.1,0,0.3,0,0.3-0.2C499.5,186.8,499.4,186.8,499.2,186.8z"/>
	<path class="st1" d="M499.3,186.1c-0.3,0-0.6,0-1,0c-0.3,0-0.6,0-1,0c-0.1,0-0.2,0-0.2,0.2c0,0.2,0.1,0.2,0.2,0.2
		c0.6,0,1.3,0,1.9,0c0.1,0,0.3,0,0.3-0.2C499.5,186.1,499.4,186.1,499.3,186.1z"/>
	<path class="st1" d="M498.3,180.4c-0.9,0-1.8,0.7-1.8,1.7c0,0.1,0,0.1,0.1,0.2c0-0.1,0.1-0.1,0.1-0.2c0.1-0.8,0.6-1.4,1.4-1.5
		c0.1,0,0.2,0,0.4-0.1c0,0,0-0.1,0-0.1C498.4,180.5,498.3,180.4,498.3,180.4z"/>
	<path class="st1" d="M466.4,133.1c-0.1,0-0.1,0-0.2-0.1c-0.1,0-0.2,0-0.3,0c-0.2,0-0.3,0.1-0.5,0.1c-1,0.3-1.7,0.9-2,1.9
		c0,0.1-0.1,0.2-0.1,0.3c0,0.1,0,0.3,0,0.4c0,0,0,0.1,0,0.1c0.1,0.7,0.4,1.2,0.9,1.6c0.4,0.4,0.5,0.8,0.5,1.3c0,0.2,0.1,0.3,0.3,0.3
		c0.7,0,1.4,0,2,0c0.3,0,0.3-0.1,0.3-0.3c0-0.5,0.1-1,0.5-1.3c0.4-0.4,0.7-0.8,0.8-1.4c0-0.1,0.1-0.2,0.1-0.4c0-0.1,0-0.2,0-0.4
		c0-0.1-0.1-0.3-0.1-0.4C468.3,134,467.4,133.2,466.4,133.1z M467.5,137.2c-0.3,0.3-0.6,0.7-0.7,1.2c0,0,0,0.1,0,0.1
		c0,0.3,0,0.3-0.1,0.3c-0.2,0-0.6,0-0.7,0v0c-0.2,0-0.5,0-0.8,0c-0.1,0-0.1-0.1-0.1-0.1c0.1-0.6-0.2-1-0.6-1.4
		c-0.6-0.6-0.9-1.4-0.6-2.2c0.3-0.9,0.9-1.4,1.8-1.5c1.3-0.2,2.3,0.6,2.5,1.6C468.3,135.9,468.1,136.6,467.5,137.2z"/>
	<path class="st1" d="M466.9,140.2c-0.6,0-1.3,0-1.9,0c-0.1,0-0.3,0-0.3,0.2c0,0.2,0.1,0.2,0.3,0.2c0.3,0,0.6,0,0.9,0
		c0.3,0,0.6,0,0.9,0c0.1,0,0.3,0,0.3-0.2C467.2,140.2,467.1,140.2,466.9,140.2z"/>
	<path class="st1" d="M466.9,139.5c-0.3,0-0.6,0-1,0c-0.3,0-0.6,0-1,0c-0.1,0-0.2,0-0.2,0.2c0,0.2,0.1,0.2,0.2,0.2
		c0.6,0,1.3,0,1.9,0c0.1,0,0.3,0,0.3-0.2C467.2,139.5,467.1,139.5,466.9,139.5z"/>
	<path class="st1" d="M466,133.8c-0.9,0-1.8,0.7-1.8,1.7c0,0.1,0,0.1,0.1,0.2c0-0.1,0.1-0.1,0.1-0.2c0.1-0.8,0.6-1.4,1.4-1.5
		c0.1,0,0.2,0,0.4-0.1c0,0,0-0.1,0-0.1C466.1,133.9,466,133.8,466,133.8z"/>
	<path class="st1" d="M268,122.4c0.4,0.4,0.5,0.8,0.5,1.3c0,0.2,0.1,0.3,0.3,0.3c0.7,0,1.4,0,2,0c0.3,0,0.3-0.1,0.3-0.3
		c0-0.5,0.1-1,0.5-1.3c0.4-0.4,0.7-0.8,0.8-1.4c0-0.1,0.1-0.2,0.1-0.4c0-0.1,0-0.2,0-0.3c0-0.1-0.1-0.3-0.1-0.4
		c-0.2-1-1.2-1.8-2.2-1.9c-0.1,0-0.1,0-0.2-0.1c-0.1,0-0.2,0-0.3,0c-0.2,0-0.3,0.1-0.5,0.1c-1,0.3-1.7,0.9-2,1.9
		c0,0.1-0.1,0.2-0.1,0.3c0,0.1,0,0.3,0,0.4c0,0,0,0.1,0,0.1C267.1,121.4,267.5,121.9,268,122.4z M267.6,119.9
		c0.3-0.9,0.9-1.4,1.8-1.5c1.3-0.2,2.3,0.6,2.5,1.6c0.2,0.8,0,1.5-0.6,2.1c-0.3,0.3-0.6,0.7-0.7,1.2c0,0,0,0.1,0,0.1
		c0,0.3,0,0.3-0.1,0.3c-0.2,0-0.6,0-0.7,0v0c-0.2,0-0.5,0-0.8,0c-0.1,0-0.1-0.1-0.1-0.1c0.1-0.6-0.2-1-0.6-1.4
		C267.6,121.4,267.4,120.7,267.6,119.9z"/>
	<path class="st1" d="M270.7,125c-0.6,0-1.3,0-1.9,0c-0.1,0-0.3,0-0.3,0.2c0,0.2,0.1,0.2,0.3,0.2c0.3,0,0.6,0,0.9,0
		c0.3,0,0.6,0,0.9,0c0.1,0,0.3,0,0.3-0.2C271,125.1,270.8,125,270.7,125z"/>
	<path class="st1" d="M270.7,124.3c-0.3,0-0.6,0-1,0c-0.3,0-0.6,0-1,0c-0.1,0-0.2,0-0.2,0.2c0,0.2,0.1,0.2,0.2,0.2
		c0.6,0,1.3,0,1.9,0c0.1,0,0.3,0,0.3-0.2C271,124.4,270.9,124.3,270.7,124.3z"/>
	<path class="st1" d="M269.5,118.9c0.1,0,0.2,0,0.4-0.1c0,0,0-0.1,0-0.1c0,0-0.1,0-0.1,0c-0.9,0-1.8,0.7-1.8,1.7
		c0,0.1,0,0.1,0.1,0.2c0-0.1,0.1-0.1,0.1-0.2C268.2,119.6,268.8,119,269.5,118.9z"/>
	<path class="st1" d="M51.1,277.1c0,0.1-0.1,0.2-0.1,0.3c0,0.1,0,0.3,0,0.4c0,0,0,0.1,0,0.1c0.1,0.7,0.4,1.2,0.9,1.6
		c0.4,0.4,0.5,0.8,0.5,1.3c0,0.2,0.1,0.3,0.3,0.3c0.7,0,1.4,0,2,0c0.3,0,0.3-0.1,0.3-0.3c0-0.5,0.1-1,0.5-1.3
		c0.4-0.4,0.7-0.8,0.8-1.4c0-0.1,0.1-0.2,0.1-0.4c0-0.1,0-0.2,0-0.3c0-0.1-0.1-0.3-0.1-0.4c-0.2-1-1.2-1.8-2.2-1.9
		c-0.1,0-0.1,0-0.2-0.1c-0.1,0-0.2,0-0.3,0c-0.2,0-0.3,0.1-0.5,0.1C52,275.4,51.3,276,51.1,277.1z M53.4,275.5
		c1.3-0.2,2.3,0.6,2.5,1.6c0.2,0.8,0,1.5-0.6,2.1c-0.3,0.3-0.6,0.7-0.7,1.2c0,0,0,0.1,0,0.1c0,0.3,0,0.3-0.1,0.3c-0.2,0-0.6,0-0.7,0
		v0c-0.2,0-0.5,0-0.8,0c-0.1,0-0.1-0.1-0.1-0.1c0.1-0.6-0.2-1-0.6-1.4c-0.6-0.6-0.9-1.4-0.6-2.2C51.8,276.1,52.5,275.6,53.4,275.5z"
		/>
	<path class="st1" d="M54.6,282.2c-0.6,0-1.3,0-1.9,0c-0.1,0-0.3,0-0.3,0.2c0,0.2,0.1,0.2,0.3,0.2c0.3,0,0.6,0,0.9,0
		c0.3,0,0.6,0,0.9,0c0.1,0,0.3,0,0.3-0.2C54.9,282.2,54.8,282.2,54.6,282.2z"/>
	<path class="st1" d="M54.7,281.5c-0.3,0-0.6,0-1,0s-0.6,0-1,0c-0.1,0-0.2,0-0.2,0.2c0,0.2,0.1,0.2,0.2,0.2c0.6,0,1.3,0,1.9,0
		c0.1,0,0.3,0,0.3-0.2C54.9,281.5,54.8,281.5,54.7,281.5z"/>
	<path class="st1" d="M52.1,277.5c0.1-0.8,0.6-1.4,1.4-1.5c0.1,0,0.2,0,0.4-0.1c0,0,0-0.1,0-0.1c0,0-0.1,0-0.1,0
		c-0.9,0-1.8,0.7-1.8,1.7c0,0.1,0,0.1,0.1,0.2C52,277.6,52.1,277.5,52.1,277.5z"/>
	<path class="st1" d="M503.7,106.6c0-0.1-0.1-0.3-0.1-0.4c-0.2-1-1.2-1.8-2.2-1.9c-0.1,0-0.1,0-0.2-0.1c-0.1,0-0.2,0-0.3,0
		c-0.2,0-0.3,0.1-0.5,0.1c-1,0.3-1.7,0.9-2,1.9c0,0.1-0.1,0.2-0.1,0.3c0,0.1,0,0.3,0,0.4c0,0,0,0.1,0,0.1c0.1,0.7,0.4,1.2,0.9,1.6
		c0.4,0.4,0.5,0.8,0.5,1.3c0,0.2,0.1,0.3,0.3,0.3c0.7,0,1.4,0,2,0c0.3,0,0.3-0.1,0.3-0.3c0-0.5,0.1-1,0.5-1.3
		c0.4-0.4,0.7-0.8,0.8-1.4c0-0.1,0.1-0.2,0.1-0.4C503.7,106.9,503.7,106.8,503.7,106.6z M502.6,108.4c-0.3,0.3-0.6,0.7-0.7,1.2
		c0,0,0,0.1,0,0.1c0,0.3,0,0.3-0.1,0.3c-0.2,0-0.6,0-0.7,0v0c-0.2,0-0.5,0-0.8,0c-0.1,0-0.1-0.1-0.1-0.1c0.1-0.6-0.2-1-0.6-1.4
		c-0.6-0.6-0.9-1.4-0.6-2.2c0.3-0.9,0.9-1.4,1.8-1.5c1.3-0.2,2.3,0.6,2.5,1.6C503.4,107.1,503.2,107.8,502.6,108.4z"/>
	<path class="st1" d="M502,111.4c-0.6,0-1.3,0-1.9,0c-0.1,0-0.3,0-0.3,0.2c0,0.2,0.1,0.2,0.3,0.2c0.3,0,0.6,0,0.9,0
		c0.3,0,0.6,0,0.9,0c0.1,0,0.3,0,0.3-0.2C502.2,111.4,502.1,111.4,502,111.4z"/>
	<path class="st1" d="M502,110.7c-0.3,0-0.6,0-1,0c-0.3,0-0.6,0-1,0c-0.1,0-0.2,0-0.2,0.2c0,0.2,0.1,0.2,0.2,0.2c0.6,0,1.3,0,1.9,0
		c0.1,0,0.3,0,0.3-0.2C502.2,110.7,502.1,110.7,502,110.7z"/>
	<path class="st1" d="M501,105c-0.9,0-1.8,0.7-1.8,1.7c0,0.1,0,0.1,0.1,0.2c0-0.1,0.1-0.1,0.1-0.2c0.1-0.8,0.6-1.4,1.4-1.5
		c0.1,0,0.2,0,0.4-0.1c0,0,0-0.1,0-0.1C501.1,105.1,501.1,105,501,105z"/>
	<path class="st1" d="M48.5,128.9c0.5,0,0.7-0.2,0.6-0.7c-0.1-1.1,0.2-2,1-2.7c0.9-0.8,1.5-1.7,1.8-2.9c0.1-0.2,0.1-0.5,0.2-0.7
		c0-0.2,0-0.5,0-0.7c-0.1-0.3-0.1-0.6-0.2-0.9c-0.5-2.2-2.5-3.8-4.7-4c-0.1,0-0.3-0.1-0.4-0.1c-0.2,0-0.4,0-0.6,0
		c-0.4,0.1-0.7,0.1-1.1,0.2c-2.1,0.6-3.6,1.8-4.2,4c-0.1,0.2-0.1,0.5-0.2,0.7c0,0.3,0,0.6,0,0.8c0,0.1,0.1,0.1,0.1,0.2
		c0.1,1.4,0.8,2.5,1.8,3.4c0.8,0.8,1.1,1.7,1,2.8c0,0.5,0.1,0.7,0.6,0.7C45.7,128.9,47.1,128.9,48.5,128.9z M43.2,124.7
		c-1.3-1.3-1.9-2.8-1.3-4.6c0.6-1.8,1.9-2.8,3.8-3.1c2.7-0.4,4.8,1.3,5.3,3.3c0.4,1.7-0.1,3.2-1.3,4.4c-0.7,0.7-1.3,1.4-1.4,2.4
		c0,0.1,0,0.1,0,0.2c0,0.7,0,0.7-0.2,0.7c-0.4,0-1.2,0-1.6,0c0,0,0,0,0,0c-0.5,0-1.1,0-1.6,0c-0.1,0-0.2-0.2-0.2-0.3
		C44.7,126.4,44.1,125.5,43.2,124.7z"/>
	<path class="st1" d="M48.4,131c-1.3,0-2.6,0-3.9,0c-0.3,0-0.6,0.1-0.6,0.4c0,0.4,0.3,0.5,0.6,0.5c0.6,0,1.3,0,1.9,0
		c0.7,0,1.3,0,2,0c0.3,0,0.6-0.1,0.6-0.5C48.9,131,48.7,131,48.4,131z"/>
	<path class="st1" d="M44.4,130.3c1.3,0,2.7,0,4,0c0.3,0,0.5-0.1,0.5-0.4c0-0.4-0.2-0.5-0.5-0.5c-0.7,0-1.3,0-2,0c-0.7,0-1.3,0-2,0
		c-0.3,0-0.5,0.1-0.5,0.4C43.9,130.3,44.1,130.3,44.4,130.3z"/>
	<path class="st1" d="M46.7,117.9c0-0.1,0-0.1,0-0.2c-0.1,0-0.2-0.1-0.2-0.1c-1.9-0.1-3.8,1.5-3.8,3.5c0,0.1,0.1,0.3,0.2,0.4
		c0.1-0.1,0.2-0.2,0.2-0.4c0.2-1.6,1.3-2.8,2.9-3.1C46.1,118,46.4,117.9,46.7,117.9z"/>
	<path class="st1" d="M216.1,391.4c-0.1,0-0.3-0.1-0.4-0.1c-0.2,0-0.4,0-0.6,0c-0.4,0.1-0.7,0.1-1.1,0.2c-2.1,0.6-3.6,1.8-4.2,4
		c-0.1,0.2-0.1,0.5-0.2,0.7c0,0.3,0,0.6,0,0.8c0,0.1,0.1,0.1,0.1,0.2c0.1,1.4,0.8,2.5,1.8,3.4c0.8,0.8,1.1,1.7,1,2.8
		c0,0.5,0.1,0.7,0.6,0.7c1.4,0,2.8,0,4.3,0c0.5,0,0.7-0.2,0.6-0.7c-0.1-1.1,0.2-2,1-2.7c0.9-0.8,1.5-1.7,1.8-2.9
		c0.1-0.2,0.1-0.5,0.2-0.7c0-0.2,0-0.5,0-0.7c-0.1-0.3-0.1-0.6-0.2-0.9C220.3,393.3,218.3,391.7,216.1,391.4z M218.5,400
		c-0.7,0.7-1.3,1.4-1.4,2.4c0,0.1,0,0.1,0,0.2c0,0.7,0,0.7-0.2,0.7c-0.4,0-1.2,0-1.6,0c0,0,0,0,0,0c-0.5,0-1.1,0-1.6,0
		c-0.1,0-0.2-0.2-0.2-0.3c0.1-1.3-0.5-2.2-1.4-3c-1.3-1.3-1.9-2.8-1.3-4.6c0.6-1.8,1.9-2.8,3.8-3.1c2.7-0.4,4.8,1.3,5.3,3.3
		C220.3,397.4,219.8,398.8,218.5,400z"/>
	<path class="st1" d="M217.3,406.3c-1.3,0-2.6,0-3.9,0c-0.3,0-0.6,0.1-0.6,0.4c0,0.4,0.3,0.5,0.6,0.5c0.6,0,1.3,0,1.9,0
		c0.7,0,1.3,0,2,0c0.3,0,0.6-0.1,0.6-0.5C217.8,406.4,217.6,406.3,217.3,406.3z"/>
	<path class="st1" d="M217.3,404.8c-0.7,0-1.3,0-2,0c-0.7,0-1.3,0-2,0c-0.3,0-0.5,0.1-0.5,0.4c0,0.3,0.2,0.4,0.5,0.4
		c1.3,0,2.7,0,4,0c0.3,0,0.5-0.1,0.5-0.4C217.9,404.9,217.6,404.8,217.3,404.8z"/>
	<path class="st1" d="M215.3,393c-1.9-0.1-3.8,1.5-3.8,3.5c0,0.1,0.1,0.3,0.2,0.4c0.1-0.1,0.2-0.2,0.2-0.4c0.2-1.6,1.3-2.8,2.9-3.1
		c0.3,0,0.5-0.1,0.8-0.1c0-0.1,0-0.1,0-0.2C215.5,393.1,215.4,393,215.3,393z"/>
	<path class="st1" d="M54.2,374.4c-0.1,0-0.2-0.1-0.4-0.1c-0.2,0-0.4,0-0.5,0c-0.3,0.1-0.6,0.1-0.9,0.2c-1.8,0.5-3,1.5-3.4,3.3
		c0,0.2-0.1,0.4-0.1,0.6c0,0.2,0,0.5,0,0.7c0,0.1,0.1,0.1,0.1,0.2c0.1,1.2,0.7,2.1,1.5,2.8c0.7,0.6,0.9,1.4,0.8,2.3
		c0,0.4,0.1,0.6,0.5,0.6c1.2,0,2.3,0,3.5,0c0.4,0,0.6-0.1,0.5-0.6c-0.1-0.9,0.1-1.6,0.8-2.3c0.7-0.6,1.2-1.4,1.4-2.4
		c0-0.2,0.1-0.4,0.1-0.6c0-0.2,0-0.4,0-0.6c-0.1-0.2-0.1-0.5-0.2-0.7C57.6,376,56,374.6,54.2,374.4z M56.2,381.5
		c-0.6,0.6-1.1,1.2-1.2,2c0,0,0,0.1,0,0.1c0,0.6,0,0.6-0.2,0.6c-0.3,0-1,0-1.3,0c0,0,0,0,0,0c-0.4,0-0.9,0-1.3,0
		c-0.1,0-0.2-0.2-0.1-0.3c0.1-1-0.4-1.8-1.1-2.4c-1.1-1.1-1.5-2.3-1.1-3.8c0.5-1.5,1.6-2.3,3.1-2.6c2.3-0.3,3.9,1.1,4.3,2.7
		C57.6,379.3,57.2,380.5,56.2,381.5z"/>
	<path class="st1" d="M55.1,386.7c-1.1,0-2.2,0-3.2,0c-0.2,0-0.5,0.1-0.5,0.4c0,0.3,0.2,0.4,0.5,0.4c0.5,0,1.1,0,1.6,0
		c0.5,0,1.1,0,1.6,0c0.3,0,0.5-0.1,0.5-0.4C55.6,386.8,55.4,386.7,55.1,386.7z"/>
	<path class="st1" d="M55.2,385.5c-0.6,0-1.1,0-1.7,0c-0.6,0-1.1,0-1.7,0c-0.2,0-0.4,0.1-0.4,0.4c0,0.3,0.2,0.4,0.4,0.4
		c1.1,0,2.2,0,3.3,0c0.2,0,0.4,0,0.4-0.3C55.6,385.6,55.4,385.5,55.2,385.5z"/>
	<path class="st1" d="M53.5,375.7c-1.6-0.1-3.1,1.2-3.2,2.9c0,0.1,0.1,0.2,0.1,0.3c0.1-0.1,0.2-0.2,0.2-0.3c0.1-1.3,1.1-2.3,2.4-2.5
		c0.2,0,0.4-0.1,0.6-0.1c0,0,0-0.1,0-0.1C53.6,375.8,53.6,375.7,53.5,375.7z"/>
	<path class="st1" d="M203.5,125.6c1.6,1.4,2.1,3.2,1.9,5.2c-0.1,1,0.2,1.3,1.2,1.3c2.6,0,5.3,0,7.9,0c1,0,1.3-0.3,1.2-1.3
		c-0.2-2,0.3-3.7,1.9-5.1c1.7-1.5,2.8-3.3,3.3-5.5c0.1-0.5,0.2-0.9,0.3-1.4c0-0.5,0-0.9,0-1.4c-0.1-0.5-0.3-1.1-0.4-1.6
		c-1-4-4.6-7.1-8.7-7.5c-0.3,0-0.5-0.1-0.8-0.2c-0.4,0-0.8,0-1.2,0c-0.7,0.1-1.3,0.2-2,0.4c-4,1.1-6.7,3.4-7.8,7.5
		c-0.1,0.4-0.2,0.9-0.3,1.3c0,0.5,0,1,0,1.5c0.1,0.1,0.2,0.2,0.2,0.4C200.3,121.8,201.6,123.9,203.5,125.6z M202.2,115.7
		c1.1-3.4,3.6-5.3,7.1-5.8c5.1-0.7,8.9,2.4,9.8,6.2c0.8,3.2-0.1,5.9-2.5,8.1c-1.3,1.3-2.4,2.6-2.6,4.6c0,0.1,0,0.2-0.1,0.3
		c0,1.3,0,1.3-0.5,1.3c-0.7,0-2.2,0-2.9,0c0,0,0,0,0,0c-0.9,0-2.1,0-3,0c-0.3,0-0.3-0.4-0.3-0.6c0.2-2.4-1-4-2.5-5.5
		C202.1,121.9,201.2,119,202.2,115.7z"/>
	<path class="st1" d="M214.2,136c-2.4,0-4.9,0-7.3,0c-0.5,0-1.1,0.2-1.1,0.8c0,0.7,0.5,0.9,1.1,0.9c1.2,0,2.4,0,3.6,0
		c1.2,0,2.4,0,3.7,0c0.6,0,1.1-0.2,1.1-0.9C215.3,136.2,214.8,136,214.2,136z"/>
	<path class="st1" d="M214.3,133.2c-1.3,0-2.5,0-3.8,0c-1.3,0-2.5,0-3.8,0c-0.5,0-1,0.2-1,0.8c0,0.6,0.4,0.8,1,0.8c2.5,0,5,0,7.5,0
		c0.5,0,1-0.1,1-0.8C215.3,133.4,214.9,133.2,214.3,133.2z"/>
	<path class="st1" d="M209.6,111.9c0.5-0.1,0.9-0.2,1.4-0.3c0-0.1,0-0.2,0-0.3c-0.1-0.1-0.3-0.2-0.4-0.2c-3.5-0.1-7,2.8-7.1,6.5
		c0,0.2,0.2,0.5,0.3,0.7c0.1-0.2,0.4-0.5,0.4-0.7C204.4,114.7,206.6,112.3,209.6,111.9z"/>
	<path class="st1" d="M376,387.5c-0.3,0-0.5-0.1-0.8-0.2c-0.4,0-0.8,0-1.2,0c-0.7,0.1-1.3,0.2-2,0.4c-4,1.1-6.7,3.4-7.8,7.5
		c-0.1,0.4-0.2,0.9-0.3,1.3c0,0.5,0,1,0,1.5c0.1,0.1,0.2,0.2,0.2,0.4c0.2,2.6,1.5,4.7,3.4,6.4c1.6,1.4,2.1,3.2,1.9,5.2
		c-0.1,1,0.2,1.3,1.2,1.3c2.6,0,5.3,0,7.9,0c1,0,1.3-0.3,1.2-1.3c-0.2-2,0.3-3.7,1.9-5.1c1.7-1.5,2.8-3.3,3.3-5.5
		c0.1-0.5,0.2-0.9,0.3-1.4c0-0.5,0-0.9,0-1.4c-0.1-0.5-0.3-1.1-0.4-1.6C383.7,391,380.1,387.9,376,387.5z M380.5,403.5
		c-1.3,1.3-2.4,2.6-2.6,4.6c0,0.1,0,0.2-0.1,0.3c0,1.3,0,1.3-0.5,1.3c-0.7,0-2.2,0-2.9,0c0,0,0,0,0,0c-0.9,0-2.1,0-3,0
		c-0.3,0-0.3-0.4-0.3-0.6c0.2-2.4-1-4-2.5-5.5c-2.5-2.4-3.5-5.3-2.4-8.6c1.1-3.4,3.6-5.3,7.1-5.8c5.1-0.7,8.9,2.4,9.8,6.2
		C383.7,398.5,382.9,401.2,380.5,403.5z"/>
	<path class="st1" d="M378.2,415.2c-2.4,0-4.9,0-7.3,0c-0.5,0-1.1,0.2-1.1,0.8c0,0.7,0.5,0.9,1.1,0.9c1.2,0,2.4,0,3.6,0
		c1.2,0,2.4,0,3.7,0c0.6,0,1.1-0.2,1.1-0.9C379.2,415.4,378.7,415.2,378.2,415.2z"/>
	<path class="st1" d="M378.2,412.5c-1.3,0-2.5,0-3.8,0c-1.3,0-2.5,0-3.8,0c-0.5,0-1,0.2-1,0.8c0,0.6,0.4,0.8,1,0.8c2.5,0,5,0,7.5,0
		c0.5,0,1-0.1,1-0.8C379.3,412.6,378.8,412.5,378.2,412.5z"/>
	<path class="st1" d="M374.5,390.4c-3.5-0.1-7,2.8-7.1,6.5c0,0.2,0.2,0.5,0.3,0.7c0.1-0.2,0.4-0.5,0.4-0.7c0.3-3,2.5-5.3,5.4-5.7
		c0.5-0.1,0.9-0.2,1.4-0.3c0-0.1,0-0.2,0-0.3C374.8,390.5,374.6,390.4,374.5,390.4z"/>
	<path class="st1" d="M26.7,222.3c0.4,0,0.5-0.1,0.5-0.6c-0.1-0.9,0.1-1.6,0.8-2.2c0.7-0.6,1.2-1.4,1.4-2.4c0-0.2,0.1-0.4,0.1-0.6
		c0-0.2,0-0.4,0-0.6c-0.1-0.2-0.1-0.5-0.2-0.7c-0.4-1.7-2-3.1-3.8-3.3c-0.1,0-0.2-0.1-0.4-0.1c-0.2,0-0.3,0-0.5,0
		c-0.3,0.1-0.6,0.1-0.9,0.2c-1.7,0.5-2.9,1.5-3.4,3.2c0,0.2-0.1,0.4-0.1,0.6c0,0.2,0,0.4,0,0.7c0,0.1,0.1,0.1,0.1,0.2
		c0.1,1.1,0.6,2,1.4,2.8c0.7,0.6,0.9,1.4,0.8,2.2c0,0.4,0.1,0.6,0.5,0.6C24.4,222.3,25.5,222.3,26.7,222.3z M22.4,218.9
		c-1.1-1-1.5-2.3-1.1-3.7c0.5-1.5,1.6-2.3,3-2.5c2.2-0.3,3.8,1,4.2,2.7c0.3,1.4,0,2.5-1.1,3.5c-0.6,0.5-1.1,1.1-1.1,2
		c0,0,0,0.1,0,0.1c0,0.6,0,0.6-0.2,0.6c-0.3,0-1,0-1.3,0c0,0,0,0,0,0c-0.4,0-0.9,0-1.3,0c-0.1,0-0.1-0.2-0.1-0.2
		C23.6,220.3,23.1,219.6,22.4,218.9z"/>
	<path class="st1" d="M26.5,224.7c0.3,0,0.5-0.1,0.5-0.4c0-0.3-0.2-0.4-0.5-0.4c-1.1,0-2.1,0-3.2,0c-0.2,0-0.5,0.1-0.5,0.4
		c0,0.3,0.2,0.4,0.5,0.4c0.5,0,1,0,1.5,0C25.5,224.7,26,224.7,26.5,224.7z"/>
	<path class="st1" d="M23.3,223.5c1.1,0,2.2,0,3.2,0c0.2,0,0.4,0,0.4-0.3c0-0.3-0.2-0.4-0.4-0.4c-0.5,0-1.1,0-1.6,0
		c-0.5,0-1.1,0-1.6,0c-0.2,0-0.4,0.1-0.4,0.4C22.9,223.4,23.1,223.5,23.3,223.5z"/>
	<path class="st1" d="M25.2,213.4c0,0,0-0.1,0-0.1c-0.1,0-0.1-0.1-0.2-0.1c-1.5-0.1-3,1.2-3.1,2.8c0,0.1,0.1,0.2,0.1,0.3
		c0.1-0.1,0.2-0.2,0.2-0.3c0.1-1.3,1.1-2.3,2.4-2.5C24.8,213.5,25,213.5,25.2,213.4z"/>
	<path class="st1" d="M488.1,379.2c-0.1,0-0.2-0.1-0.4-0.1c-0.2,0-0.3,0-0.5,0c-0.3,0.1-0.6,0.1-0.9,0.2c-1.7,0.5-2.9,1.5-3.4,3.2
		c0,0.2-0.1,0.4-0.1,0.6c0,0.2,0,0.4,0,0.7c0,0.1,0.1,0.1,0.1,0.2c0.1,1.1,0.6,2,1.4,2.8c0.7,0.6,0.9,1.4,0.8,2.2
		c0,0.4,0.1,0.6,0.5,0.6c1.1,0,2.3,0,3.4,0c0.4,0,0.5-0.1,0.5-0.6c-0.1-0.9,0.1-1.6,0.8-2.2c0.7-0.6,1.2-1.4,1.4-2.4
		c0-0.2,0.1-0.4,0.1-0.6c0-0.2,0-0.4,0-0.6c-0.1-0.2-0.1-0.5-0.2-0.7C491.5,380.7,489.9,379.4,488.1,379.2z M490.1,386.1
		c-0.6,0.5-1.1,1.1-1.1,2c0,0,0,0.1,0,0.1c0,0.6,0,0.6-0.2,0.6c-0.3,0-1,0-1.3,0v0c-0.4,0-0.9,0-1.3,0c-0.1,0-0.1-0.2-0.1-0.2
		c0.1-1-0.4-1.7-1.1-2.4c-1.1-1-1.5-2.3-1.1-3.7c0.5-1.5,1.6-2.3,3-2.5c2.2-0.3,3.8,1,4.2,2.7C491.5,383.9,491.1,385.1,490.1,386.1z
		"/>
	<path class="st1" d="M489.1,391.2c-1.1,0-2.1,0-3.2,0c-0.2,0-0.5,0.1-0.5,0.4c0,0.3,0.2,0.4,0.5,0.4c0.5,0,1,0,1.5,0
		c0.5,0,1.1,0,1.6,0c0.3,0,0.5-0.1,0.5-0.4C489.5,391.2,489.3,391.2,489.1,391.2z"/>
	<path class="st1" d="M489.1,390c-0.5,0-1.1,0-1.6,0s-1.1,0-1.6,0c-0.2,0-0.4,0.1-0.4,0.4c0,0.3,0.2,0.3,0.4,0.3c1.1,0,2.2,0,3.2,0
		c0.2,0,0.4,0,0.4-0.3C489.6,390,489.4,390,489.1,390z"/>
	<path class="st1" d="M487.5,380.4c-1.5-0.1-3,1.2-3.1,2.8c0,0.1,0.1,0.2,0.1,0.3c0.1-0.1,0.2-0.2,0.2-0.3c0.1-1.3,1.1-2.3,2.4-2.5
		c0.2,0,0.4-0.1,0.6-0.1c0,0,0-0.1,0-0.1C487.6,380.5,487.6,380.4,487.5,380.4z"/>
	<path class="st1" d="M421.8,127.4c0.7,0.6,0.9,1.4,0.8,2.2c0,0.4,0.1,0.6,0.5,0.6c1.1,0,2.3,0,3.4,0c0.4,0,0.5-0.1,0.5-0.6
		c-0.1-0.9,0.1-1.6,0.8-2.2c0.7-0.6,1.2-1.4,1.4-2.4c0-0.2,0.1-0.4,0.1-0.6c0-0.2,0-0.4,0-0.6c-0.1-0.2-0.1-0.5-0.2-0.7
		c-0.4-1.7-2-3.1-3.8-3.3c-0.1,0-0.2-0.1-0.4-0.1c-0.2,0-0.3,0-0.5,0c-0.3,0.1-0.6,0.1-0.9,0.2c-1.7,0.5-2.9,1.5-3.4,3.2
		c0,0.2-0.1,0.4-0.1,0.6c0,0.2,0,0.4,0,0.7c0,0.1,0.1,0.1,0.1,0.2C420.5,125.8,421,126.7,421.8,127.4z M421.3,123.2
		c0.5-1.5,1.6-2.3,3-2.5c2.2-0.3,3.8,1,4.2,2.7c0.3,1.4,0,2.5-1.1,3.5c-0.6,0.5-1.1,1.1-1.1,2c0,0,0,0.1,0,0.1c0,0.6,0,0.6-0.2,0.6
		c-0.3,0-1,0-1.3,0c0,0,0,0,0,0c-0.4,0-0.9,0-1.3,0c-0.1,0-0.1-0.2-0.1-0.2c0.1-1-0.4-1.7-1.1-2.4
		C421.2,125.8,420.8,124.6,421.3,123.2z"/>
	<path class="st1" d="M426.5,131.9c-1.1,0-2.1,0-3.2,0c-0.2,0-0.5,0.1-0.5,0.4c0,0.3,0.2,0.4,0.5,0.4c0.5,0,1,0,1.5,0
		c0.5,0,1.1,0,1.6,0c0.3,0,0.5-0.1,0.5-0.4C426.9,132,426.7,131.9,426.5,131.9z"/>
	<path class="st1" d="M426.5,130.7c-0.5,0-1.1,0-1.6,0c-0.5,0-1.1,0-1.6,0c-0.2,0-0.4,0.1-0.4,0.4c0,0.3,0.2,0.3,0.4,0.3
		c1.1,0,2.2,0,3.2,0c0.2,0,0.4,0,0.4-0.3C426.9,130.8,426.7,130.7,426.5,130.7z"/>
	<path class="st1" d="M424.4,121.5c0.2,0,0.4-0.1,0.6-0.1c0,0,0-0.1,0-0.1c-0.1,0-0.1-0.1-0.2-0.1c-1.5-0.1-3,1.2-3.1,2.8
		c0,0.1,0.1,0.2,0.1,0.3c0.1-0.1,0.2-0.2,0.2-0.3C422.2,122.7,423.2,121.7,424.4,121.5z"/>
	<path class="st1" d="M438.1,167.6H101.4c-8.5,0-15.3,6.9-15.3,15.3v173.7c0,8.5,6.9,15.3,15.3,15.3h336.6c8.5,0,15.3-6.9,15.3-15.3
		V182.9C453.4,174.5,446.5,167.6,438.1,167.6z M447.3,356.6c0,5.1-4.1,9.2-9.2,9.2H101.4c-5.1,0-9.2-4.1-9.2-9.2V182.9
		c0-5.1,4.1-9.2,9.2-9.2h336.6c5.1,0,9.2,4.1,9.2,9.2V356.6z"/>
	<path class="st1" d="M377.9,286.1h-98.6c-2.8,0-5.2,2.3-5.2,5.2v31.2c0,2.8,2.3,5.2,5.2,5.2h98.6c2.8,0,5.2-2.3,5.2-5.2v-31.2
		C383.1,288.4,380.7,286.1,377.9,286.1z M339.3,298.6l-2,2l-12.4,11l-5.5-2.7L339.3,298.6z M324.8,318.3v-6.5l3.5,1.8L324.8,318.3z
		 M334.4,316.3l-6.8-3.5l10-12.2l2-2L334.4,316.3z"/>
	<path class="st1" d="M276.3,211.9h103.2c1.2,0,2.2-1,2.2-2.2s-1-2.2-2.2-2.2H276.3c-1.2,0-2.2,1-2.2,2.2S275.1,211.9,276.3,211.9z"
		/>
	<path class="st1" d="M422.7,230.2H276.3c-1.2,0-2.2,1-2.2,2.2c0,1.2,1,2.2,2.2,2.2h146.4c1.2,0,2.2-1,2.2-2.2
		C424.9,231.2,423.9,230.2,422.7,230.2z"/>
	<path class="st1" d="M394.1,243.3H276.3c-1.2,0-2.2,1-2.2,2.2s1,2.2,2.2,2.2h117.8c1.2,0,2.2-1,2.2-2.2S395.3,243.3,394.1,243.3z"
		/>
	<path class="st1" d="M276.3,261.3h81.2c1.2,0,2.2-1,2.2-2.2c0-1.2-1-2.2-2.2-2.2h-81.2c-1.2,0-2.2,1-2.2,2.2l0,0
		C274.1,260.3,275.1,261.3,276.3,261.3z"/>
	<path class="st1" d="M150.2,320.2c-0.5-0.4-1-0.7-1.4-1.1C149,319.7,149.5,320,150.2,320.2z"/>
	<path class="st1" d="M183.4,207.2c-33.7,0-61.2,27.4-61.2,61.2c0,18.8,8.6,35.7,22,47c-0.1,1.3,1.3,1.4,2.5,2
		c0.4,0.3,0.8,0.6,1.2,0.9c0,0,0.1,0.1,0.1,0.1c0.2,0.3,0.5,0.5,0.8,0.8c0-0.1-0.1-0.2-0.1-0.4c0.9,0.6,1.8,1.2,2.7,1.8
		c-0.4-0.1-0.8-0.2-1.2-0.3c1.9,1.3,4.5,2.6,6.1,3c8.2,4,17.4,6.3,27.1,6.3c33.7,0,61.2-27.4,61.2-61.2S217.1,207.2,183.4,207.2z
		 M170.8,290.5c-2,0-9.1,0-10.5,0c2.8,0,2.8-19.3,2.8-19.3h0.2c0-0.7-0.2-1.4-0.2-2.1c0-12.6,3.2-22.8,19.3-22.8
		c16.1,0,19.3,10.2,19.3,22.8c0,0.7-0.1,1.4-0.2,2.1h0.2c0,0,0,19.3,2.8,19.3c-1.4,0-8.6,0-10.5,0c-1.7,1.9-3.8,3.3-6,4.3v1.3h0v0
		v6.1c5.9,1.6,21.5,6,24.8,7.7c2.2,1.1,3.6,4.4,3.5,7.6c-1.2,0.8-2.4,1.6-3.7,2.3c-0.4,0.2-0.7,0.4-1,0.6c-0.4,0.2-0.7,0.4-1.1,0.5
		c-0.2,0-0.3,0.1-0.5,0.2c-6.3,3.2-13.2,5.3-20.5,6c-2.5,0.1-5.2,0.1-8.4,0.1c-1.1,0-2.1,0-3.1,0c-10.8-1-20.8-4.9-29.1-10.9
		c0.6-2.8,2.3-5.5,4.3-6.5c3.7-1.8,20.4-7,23.8-8.1v-5.7v-1.3C174.6,293.8,172.6,292.4,170.8,290.5z M218.7,315.7
		c0.1-0.4,0.4-0.5,0.6-0.5C219.1,315.4,218.9,315.6,218.7,315.7z M220.4,314.4c-0.7-3-2.1-5.8-3.9-7.5c-2.3-2.2-21-7-24.8-7.9
		c1.5-0.8,2.8-1.8,4.1-3c6.4,0,14.6,0,16.9,0c-5.5,0-5.5-24.8-5.5-24.8h-0.1c0-0.7,0.1-1.5,0.1-2.2c0-15.6-4.5-28.2-24.8-28.2
		c-20.3,0-24.8,12.6-24.8,28.2c0,0.7,0.1,1.5,0.1,2.2h-0.1c0,0,0,24.8-5.5,24.8c2.3,0,10.5,0,16.9,0c1.3,1.1,2.7,2.2,4.2,3
		c-4.3,1.1-22.5,5.6-24.8,7.9c-1.5,1.4-2.8,3.6-3.6,6.2c-12.6-10.9-20.5-26.9-20.5-44.7c0-32.6,26.5-59.1,59.1-59.1
		s59.1,26.5,59.1,59.1C242.5,286.9,233.9,303.5,220.4,314.4z"/>
</g>
</svg>
