<?xml version="1.0" encoding="utf-8"?>
<!-- Generator: Adobe Illustrator 19.2.1, SVG Export Plug-In . SVG Version: 6.00 Build 0)  -->
<svg version="1.1" id="Layer_1" xmlns="http://www.w3.org/2000/svg" xmlns:xlink="http://www.w3.org/1999/xlink" x="0px" y="0px"
	 viewBox="0 0 532.3 532.3" style="enable-background:new 0 0 532.3 532.3;" xml:space="preserve">
<style type="text/css">
	.st0{fill-rule:evenodd;clip-rule:evenodd;}
	.st1{fill:#231F20;}
	.st2{fill:none;stroke:#231F20;stroke-miterlimit:10;}
	.st3{fill:none;stroke:#231F20;stroke-width:24;stroke-miterlimit:10;}
	.st4{fill-rule:evenodd;clip-rule:evenodd;fill:#231F20;}
	.st5{fill:none;stroke:#231F20;stroke-width:28;stroke-miterlimit:10;}
	.st6{fill:none;stroke:#231F20;stroke-width:4;stroke-linecap:round;stroke-miterlimit:10;}
	
		.st7{fill:none;stroke:#231F20;stroke-width:4;stroke-linecap:round;stroke-miterlimit:10;stroke-dasharray:1.0017,12.0202,1.0017,12.0202;}
	
		.st8{fill:none;stroke:#231F20;stroke-width:4;stroke-linecap:round;stroke-miterlimit:10;stroke-dasharray:1.0017,12.0202,1.0017,12.0202,1.0017,12.0202;}
	.st9{fill:#FFFFFF;}
</style>
<g>
	<g>
		<path class="st4" d="M518.5,153.8c-21-51.2-65.6-80.5-140.4-79.1c-11.9,3.4-23.8,6.8-35.7,10.2c-37.1,16.1-74.7,56.5-75.3,108.5
			c-2.6-10.2-5.1-20.4-7.7-30.6c-7.2-20.5-22.5-43.7-38.3-56.1C148.1,48.8,46.3,79.5,14.4,153.8c-38.3,89.1,36.3,199.1,132.7,183.8
			c28.1-4.5,46.5-14.1,66.4-25.5c7.7,7.7,15.3,15.3,23,23c0,0.9,0,1.7,0,2.6c-3.4,3.8-6.8,7.7-10.2,11.5
			c8.1,8.9,16.2,17.9,24.2,26.8c0.9,0,1.7,0,2.6,0c1.3-1.7,2.6-3.4,3.8-5.1c2.6-2.1,5.1-4.3,7.7-6.4c18.3,19.1,36.6,38.3,54.9,57.4
			c9.4,8.9,18.7,17.9,28.1,26.8c8.9-8.9,17.9-17.9,26.8-26.8c-23-23.4-45.9-46.8-68.9-70.2c-4.7-4.7-9.4-9.4-14-14
			c4.3-4.3,8.5-8.5,12.8-12.8c-8.1-8.9-16.2-17.9-24.2-26.8c-0.9,0-1.7,0-2.6,0c-0.4,0-0.9,0-1.3,0c-4.3,4.3-8.5,8.5-12.8,12.8
			c-7.7-7.7-15.3-15.3-23-23c7.1-23.8,23-39.4,25.5-71.5c2.1,10.2,4.3,20.4,6.4,30.6c6.4,12.8,12.8,25.5,19.1,38.3
			c-0.9,0-1.7,0-2.6,0c-6.8,11,10.5,25.5,21.7,33.2c3-2.6,6-5.1,8.9-7.7c15.6,8.7,31,18.3,51,23
			C471.8,357.5,558.2,250.9,518.5,153.8z M152.2,299.3C84.7,313.1,25.5,250.7,43.8,183.2c11.8-43.5,39.6-53.5,79.1-70.2
			C253.4,110.4,261.1,277.1,152.2,299.3z M412.5,298c-69,14.2-124.8-57.1-105.9-120c12.3-40.9,39.3-49.7,76.6-66.4
			C516.5,109,522.9,275.3,412.5,298z M246.6,382.2c-8.9-8.9-17.9-17.9-26.8-26.8c-10.6,10.2-21.3,20.4-31.9,30.6
			c-0.4-13.6-0.9-27.2-1.3-40.8c-12.3-0.4-24.7-0.9-37-1.3c-0.4,35.7-0.9,71.5-1.3,107.2c36.2,0,72.3,0,108.5,0c0-12.3,0-24.7,0-37
			c-13.6,0-27.2,0-40.8,0C226.2,403.5,236.4,392.9,246.6,382.2z"/>
	</g>
</g>
</svg>
