<?xml version="1.0" encoding="utf-8"?>
<!-- Generator: Adobe Illustrator 19.1.0, SVG Export Plug-In . SVG Version: 6.00 Build 0)  -->
<svg version="1.1" id="Layer_1" xmlns="http://www.w3.org/2000/svg" xmlns:xlink="http://www.w3.org/1999/xlink" x="0px" y="0px"
	 viewBox="0 0 532.3 532.3" style="enable-background:new 0 0 532.3 532.3;" xml:space="preserve">
<style type="text/css">
	.st0{fill-rule:evenodd;clip-rule:evenodd;}
	.st1{fill:#231F20;}
	.st2{fill:none;stroke:#231F20;stroke-miterlimit:10;}
	.st3{fill-rule:evenodd;clip-rule:evenodd;fill:#231F20;}
	.st4{fill:none;stroke:#231F20;stroke-width:24;stroke-miterlimit:10;}
</style>
<g>
	<path class="st3" d="M269.9-0.2L36.6,132.2l-0.5,265.9l232.8,133.3L502.1,399l0.5-265.9L269.9-0.2z M478.2,385.1L268.9,503.8
		L60.1,384.3l0.5-238.1L269.8,27.4L478.6,147L478.2,385.1z"/>
	<path class="st3" d="M224.1,192.9c-5-5-13.1-5-18.1,0c-5,5-5,13.1,0,18.1l45.3,45.3l-45.3,45.3c-5,5-5,13.1,0,18.1
		c5,5,13.1,5,18.1,0l45.3-45.3l45.3,45.3c5,5,13.1,5,18.1,0c5-5,5-13.1,0-18.1l-45.3-45.3l45.3-45.3c5-5,5-13.1,0-18.1
		c-5-5-13.1-5-18.1,0l-45.3,45.3L224.1,192.9z"/>
</g>
</svg>
