<?xml version="1.0" encoding="utf-8"?>
<!-- Generator: Adobe Illustrator 19.2.1, SVG Export Plug-In . SVG Version: 6.00 Build 0)  -->
<svg version="1.1" id="Layer_1" xmlns="http://www.w3.org/2000/svg" xmlns:xlink="http://www.w3.org/1999/xlink" x="0px" y="0px"
	 viewBox="0 0 532.3 532.3" style="enable-background:new 0 0 532.3 532.3;" xml:space="preserve">
<style type="text/css">
	.st0{fill-rule:evenodd;clip-rule:evenodd;}
	.st1{fill:#231F20;}
	.st2{fill:none;stroke:#231F20;stroke-miterlimit:10;}
	.st3{fill:none;stroke:#231F20;stroke-width:24;stroke-miterlimit:10;}
	.st4{fill-rule:evenodd;clip-rule:evenodd;fill:#231F20;}
	.st5{fill:none;stroke:#231F20;stroke-width:28;stroke-miterlimit:10;}
</style>
<path class="st1" d="M166,494.4c-5.1-0.6-10-1.7-14.7-3.3l-38.1,3.3c-9.3,0.8-18.3-2-25.4-8c-7.1-6-11.5-14.4-12.3-23.6l0-0.3
	L33.8,128.1c-1.5-19,12.6-35.8,31.7-37.5l62.2-5.4l2.4-30.5l-67.2,5.9C27.1,63.7,0.6,95.3,3.8,131l0,0.3l41.6,334.5
	c1.6,17.2,9.7,32.7,22.9,43.8c13.3,11.2,30.1,16.5,47.4,15L292,509.1L166,494.4z"/>
<g>
	<g>
		<path class="st1" d="M506.4,402.7c-4.1-4-10.7-4-14.8,0L436.1,458l-34.2-33.3c-4.1-4-10.7-4-14.8,0c-4.1,4-4.1,10.4,0,14.4
			L427,478c0.4,0.7,1,1.4,1.6,2c2.1,2.1,4.9,3,7.6,3c2.8,0.1,5.5-0.9,7.6-3c0.7-0.7,1.2-1.4,1.7-2.2l60.9-60.8
			C510.5,413.1,510.5,406.6,506.4,402.7z"/>
	</g>
</g>
<path class="st1" d="M474.9,29.4L227.1,0.4c-35.6-4.2-67.9,21.4-72.1,57l0,0.3l-26.8,336c-1.9,17.1,2.9,34,13.6,47.5
	c10.8,13.6,26.2,22.2,43.4,24.2l147.4,17.2c0.5,0.1,1.1,0.2,1.6,0.2l0.4,0v0c0.2,0,0.4,0,0.5,0c8.3,0,15.1-6.8,15.1-15.1
	c0-8.3-6.8-15.1-15.1-15.1c-0.2,0-0.4,0-0.5,0v-0.2l-146-17c-9.2-1.1-17.5-5.7-23.3-13s-8.4-16.4-7.3-25.6l0-0.3l26.8-336
	c2.3-18.9,19.6-32.5,38.6-30.3l247.8,28.9c19.1,2.2,32.8,19.5,30.5,38.6l0,0.3l-21,263.3h0.1c0,0.1,0,0.1,0,0.2
	c0,8.3,6.8,15.1,15.1,15.1c8.3,0,15.1-6.8,15.1-15.1c0-0.1,0-0.1,0-0.2l20.8-260.4C535.9,65.7,510.4,33.5,474.9,29.4z"/>
</svg>
