<?xml version="1.0" encoding="utf-8"?>
<!-- Generator: Adobe Illustrator 19.2.1, SVG Export Plug-In . SVG Version: 6.00 Build 0)  -->
<svg version="1.1" id="Layer_1" xmlns="http://www.w3.org/2000/svg" xmlns:xlink="http://www.w3.org/1999/xlink" x="0px" y="0px"
	 viewBox="0 0 532.3 532.3" style="enable-background:new 0 0 532.3 532.3;" xml:space="preserve">
<style type="text/css">
	.st0{fill-rule:evenodd;clip-rule:evenodd;}
	.st1{fill:#231F20;}
	.st2{fill:none;stroke:#231F20;stroke-miterlimit:10;}
	.st3{fill:none;stroke:#231F20;stroke-width:24;stroke-miterlimit:10;}
	.st4{fill-rule:evenodd;clip-rule:evenodd;fill:#231F20;}
	.st5{fill:none;stroke:#231F20;stroke-width:28;stroke-miterlimit:10;}
</style>
<g>
	<g>
		<path class="st1" d="M525.7,209.2L419.2,69.5c-3.1-5.2-8.5-8.3-14.2-8.3h0l-278.1,0.5c-5.8,0-11.1,3.1-14.2,8.3L6.4,209.2
			c-3.4,5.6-3.6,12.6-0.7,18.5c3,5.8,6.6,13.5,12.8,13.5h495.1c6.2,0,9.8-7.7,12.7-13.5C529.3,221.9,529.1,214.8,525.7,209.2z
			 M43.9,210.3l94.7-119.1h255.1l94.7,119.1H43.9z M474.7,272.7c-5.1-8.1-15.7-10.4-23.6-5.1c-7.9,5.3-10.2,16.1-5,24.2l22.6,39.5
			H63.5l22.6-39.7c5.1-8.1,2.9-19-5.1-24.2c-7.9-5.3-18.5-2.9-23.6,5.2l-37.6,59.6c-3.4,5.4-3.7,12.3-0.7,17.9
			c3,5.6,8.1,11.2,14.3,11.2h465.1c6.3,0,11.3-5.6,14.3-11.2c3-5.6,2.7-12.5-0.7-17.9L474.7,272.7z M460.9,394.3
			c-5.2-8.1-15.8-10.5-23.8-5.2c-8,5.3-10.2,16.2-5,24.4l21.5,37.8H78.6l21.5-38c5.2-8.2,2.9-19.1-5.1-24.3
			c-8-5.3-18.6-2.9-23.8,5.2L33.3,454c-3.4,5.4-3.7,12.3-0.7,18c3,5.7,8.8,9.2,15.1,9.2h436.6c6.3,0,12.1-3.5,15.1-9.2
			c3-5.7,2.7-12.6-0.7-18L460.9,394.3z"/>
	</g>
</g>
</svg>
