<?xml version="1.0" encoding="utf-8"?>
<!-- Generator: Adobe Illustrator 19.1.0, SVG Export Plug-In . SVG Version: 6.00 Build 0)  -->
<svg version="1.1" id="Layer_1" xmlns="http://www.w3.org/2000/svg" xmlns:xlink="http://www.w3.org/1999/xlink" x="0px" y="0px"
	 viewBox="0 0 532.3 532.3" style="enable-background:new 0 0 532.3 532.3;" xml:space="preserve">
<style type="text/css">
	.st0{fill-rule:evenodd;clip-rule:evenodd;}
	.st1{fill:#231F20;}
	.st2{fill:none;stroke:#231F20;stroke-miterlimit:10;}
	.st3{fill:none;stroke:#231F20;stroke-width:24;stroke-miterlimit:10;}
	.st4{fill-rule:evenodd;clip-rule:evenodd;fill:#231F20;}
	.st5{fill:none;stroke:#231F20;stroke-width:28;stroke-miterlimit:10;}
</style>
<g>
	<path class="st1" d="M265.1,38C118.9,38,0,134.4,0,252.8C0,297,16.1,339,46.8,374.9l-18.9,94.1c-1.5,7.3,1,14.8,6.5,19.8
		c3.9,3.6,9,5.4,14.1,5.4c2.1,0,4.2-0.3,6.2-0.9l122.5-37.8c28.2,8,57.7,12.1,87.8,12.1c146.2,0,265.1-96.4,265.1-214.8
		C530.2,134.4,411.3,38,265.1,38z M265.1,425.5c-28.1,0-55.6-4.1-81.7-12.1c-4.1-1.2-8.4-1.2-12.4,0l-94.7,29.2l14-69.7
		c1.3-6.7-0.6-13.6-5.3-18.6c-28-29.7-42.7-64.8-42.7-101.4c0-95.2,100-172.6,222.9-172.6S488,157.7,488,252.8
		C488,348,388,425.5,265.1,425.5z"/>
</g>
<g>
	<path d="M147.5,213.6c0-11.3,2.7-20.1,8.1-26.1c5.4-6.1,13.5-9.1,24.3-9.1c10.8,0,18.9,3,24.3,9.1c5.4,6.1,8.1,14.8,8.1,26.1v4.4
		h-20.8v-5.8c0-5.1-1-8.7-2.9-10.7c-1.9-2.1-4.6-3.1-8.1-3.1s-6.2,1-8.1,3.1s-2.9,5.7-2.9,10.7c0,4.8,1.1,9,3.2,12.7
		c2.1,3.7,4.8,7.1,8,10.4c3.2,3.3,6.6,6.6,10.3,9.8c3.7,3.3,7.1,6.8,10.3,10.7c3.2,3.9,5.9,8.3,8,13.2c2.1,4.9,3.2,10.7,3.2,17.4
		c0,11.3-2.8,20.1-8.3,26.1c-5.5,6.1-13.7,9.1-24.5,9.1c-10.8,0-19-3-24.5-9.1c-5.5-6.1-8.3-14.8-8.3-26.1v-8.6h20.8v10
		c0,5.1,1,8.6,3.1,10.6s4.8,3,8.3,3s6.2-1,8.3-3s3.1-5.5,3.1-10.6c0-4.8-1.1-9-3.2-12.7c-2.1-3.7-4.8-7.1-8-10.4
		c-3.2-3.3-6.6-6.5-10.3-9.8c-3.7-3.3-7.1-6.8-10.3-10.7c-3.2-3.9-5.9-8.3-8-13.2C148.6,226.1,147.5,220.3,147.5,213.6z"/>
	<path d="M271.9,279.5l15-99.5h30.6v140.2h-20.8V219.6l-15.2,100.5h-20.8L244.2,221v99.1H225V180h30.6L271.9,279.5z"/>
	<path d="M330.7,213.6c0-11.3,2.7-20.1,8.1-26.1c5.4-6.1,13.5-9.1,24.3-9.1c10.8,0,18.9,3,24.3,9.1c5.4,6.1,8.1,14.8,8.1,26.1v4.4
		h-20.8v-5.8c0-5.1-1-8.7-2.9-10.7c-1.9-2.1-4.6-3.1-8.1-3.1c-3.5,0-6.2,1-8.1,3.1s-2.9,5.7-2.9,10.7c0,4.8,1.1,9,3.2,12.7
		c2.1,3.7,4.8,7.1,8,10.4c3.2,3.3,6.6,6.6,10.3,9.8c3.7,3.3,7.1,6.8,10.3,10.7c3.2,3.9,5.9,8.3,8,13.2c2.1,4.9,3.2,10.7,3.2,17.4
		c0,11.3-2.8,20.1-8.3,26.1c-5.5,6.1-13.7,9.1-24.5,9.1c-10.8,0-19-3-24.5-9.1c-5.5-6.1-8.3-14.8-8.3-26.1v-8.6H351v10
		c0,5.1,1,8.6,3.1,10.6s4.8,3,8.3,3c3.5,0,6.2-1,8.3-3s3.1-5.5,3.1-10.6c0-4.8-1.1-9-3.2-12.7c-2.1-3.7-4.8-7.1-8-10.4
		c-3.2-3.3-6.6-6.5-10.3-9.8c-3.7-3.3-7.1-6.8-10.3-10.7c-3.2-3.9-5.9-8.3-8-13.2C331.8,226.1,330.7,220.3,330.7,213.6z"/>
</g>
</svg>
