<?xml version="1.0" encoding="utf-8"?>
<!-- Generator: Adobe Illustrator 19.1.0, SVG Export Plug-In . SVG Version: 6.00 Build 0)  -->
<svg version="1.1" id="Layer_1" xmlns="http://www.w3.org/2000/svg" xmlns:xlink="http://www.w3.org/1999/xlink" x="0px" y="0px"
	 viewBox="0 0 532.3 532.3" style="enable-background:new 0 0 532.3 532.3;" xml:space="preserve">
<style type="text/css">
	.st0{fill-rule:evenodd;clip-rule:evenodd;}
	.st1{fill:#231F20;}
	.st2{fill:none;stroke:#231F20;stroke-miterlimit:10;}
	.st3{fill:none;stroke:#231F20;stroke-width:24;stroke-miterlimit:10;}
	.st4{fill-rule:evenodd;clip-rule:evenodd;fill:#231F20;}
	.st5{fill:none;stroke:#231F20;stroke-width:28;stroke-miterlimit:10;}
	.st6{fill:none;stroke:#231F20;stroke-width:30;stroke-linejoin:round;stroke-miterlimit:10;}
</style>
<path class="st6" d="M400.6,192.2c1.6,1.8-29.6,145-29.6,145s-22.1,19-107.8,19c-85.6,0-100.5-19-100.5-19l-32.1-145l84.4,40.3
	l53-59.3l50.6,64.1C318.7,237.2,399,190.4,400.6,192.2z"/>
<g>
	<g>
		<path class="st6" d="M435.1,83.2c-44.4-41.5-104-66.8-169.5-66.8c-137.1,0-248.3,111.2-248.3,248.3s111.2,248.3,248.3,248.3
			s248.3-111.2,248.3-248.3C513.9,193,483.6,128.5,435.1,83.2z"/>
	</g>
</g>
</svg>
