<?xml version="1.0" encoding="utf-8"?>
<!-- Generator: Adobe Illustrator 19.1.0, SVG Export Plug-In . SVG Version: 6.00 Build 0)  -->
<svg version="1.1" id="Layer_1" xmlns="http://www.w3.org/2000/svg" xmlns:xlink="http://www.w3.org/1999/xlink" x="0px" y="0px"
	 viewBox="0 0 532.3 532.3" style="enable-background:new 0 0 532.3 532.3;" xml:space="preserve">
<style type="text/css">
	.st0{fill-rule:evenodd;clip-rule:evenodd;}
	.st1{fill:#231F20;}
	.st2{fill:none;stroke:#231F20;stroke-miterlimit:10;}
	.st3{fill:none;stroke:#231F20;stroke-width:24;stroke-miterlimit:10;}
	.st4{fill-rule:evenodd;clip-rule:evenodd;fill:#231F20;}
	.st5{fill:none;stroke:#231F20;stroke-width:28;stroke-miterlimit:10;}
</style>
<g>
	<path class="st1" d="M311.1,218.4c-3.6-7.5-12.5-10.6-20-7c-7.5,3.6-10.6,12.5-7,20c7.3,15.3,11,31.7,11,48.8
		c0,62.2-50.6,112.8-112.8,112.8S69.4,342.3,69.4,280.1s50.6-112.8,112.8-112.8c8.7,0,17.3,1,25.7,2.9c8.1,1.9,16.1-3.1,18-11.2
		s-3.1-16.1-11.2-18c-10.6-2.5-21.5-3.7-32.5-3.7c-32.3,0-62.1,10.8-86,28.9l-19.4-19.4l13.7-13.7c5.9-5.9,5.9-15.4,0-21.2
		c-5.9-5.9-15.4-5.9-21.2,0l-13.7,13.7l-20.9-20.9c-5.9-5.9-15.4-5.9-21.2,0c-5.9,5.9-5.9,15.4,0,21.2l20.9,20.9l-16,16
		c-5.9,5.9-5.9,15.4,0,21.2c2.9,2.9,6.8,4.4,10.6,4.4c3.8,0,7.7-1.5,10.6-4.4l16-16l18.7,18.7c-21.7,25.1-34.9,57.7-34.9,93.4
		c0,78.8,64.1,142.8,142.8,142.8s142.8-64.1,142.8-142.8C325.1,258.5,320.4,237.7,311.1,218.4z"/>
	<path class="st1" d="M508.2,100.3c-0.3,0-0.5,0-0.8,0c-0.7,0-1.5,0-2.2,0.1c-0.5-0.1-1.1-0.1-1.6-0.1h-47.3c-8.3,0-15,6.7-15,15
		s6.7,15,15,15h14.3l-36.8,36.8c-24.1-18.7-54.4-29.8-87.2-29.8c-78.8,0-142.8,64.1-142.8,142.8c0,20.7,4.3,40.6,12.8,59.3
		c3.4,7.5,12.3,10.9,19.9,7.4c7.5-3.4,10.9-12.3,7.4-19.9c-6.7-14.7-10.1-30.5-10.1-46.8c0-62.2,50.6-112.8,112.8-112.8
		s112.8,50.6,112.8,112.8s-50.6,112.8-112.8,112.8c-10,0-20-1.3-29.5-3.9c-8-2.2-16.2,2.6-18.4,10.6s2.6,16.2,10.6,18.4
		c12.1,3.3,24.7,4.9,37.4,4.9c78.8,0,142.8-64.1,142.8-142.8c0-35.2-12.8-67.4-33.9-92.3l37.7-37.7v12.5c0,8.3,6.7,15,15,15
		s15-6.7,15-15v-47.3C523.2,107,516.4,100.3,508.2,100.3z"/>
</g>
</svg>
