<?xml version="1.0" encoding="utf-8"?>
<!-- Generator: Adobe Illustrator 19.1.0, SVG Export Plug-In . SVG Version: 6.00 Build 0)  -->
<svg version="1.1" id="Layer_1" xmlns="http://www.w3.org/2000/svg" xmlns:xlink="http://www.w3.org/1999/xlink" x="0px" y="0px"
	 viewBox="0 0 532.3 532.3" style="enable-background:new 0 0 532.3 532.3;" xml:space="preserve">
<style type="text/css">
	.st0{fill-rule:evenodd;clip-rule:evenodd;}
	.st1{fill:#231F20;}
	.st2{fill:none;stroke:#231F20;stroke-miterlimit:10;}
	.st3{fill:none;stroke:#231F20;stroke-width:24;stroke-miterlimit:10;}
	.st4{fill-rule:evenodd;clip-rule:evenodd;fill:#231F20;}
</style>
<g>
	<g>
		<path class="st0" d="M484.6,103.5H44.9c-28.2,0-41.9,9.7-41.9,42.9v279c0,27.6,14.2,42.9,41.9,42.9l71.3-0.1l368.4,0.1
			c29.9,0,41.9-17.9,41.9-42.9v-279C526.5,119,514.9,103.5,484.6,103.5z M107.6,259.7c-23.1,0-41.9-18.7-41.9-41.8
			c0-23.1,18.7-41.8,41.9-41.8c23.1,0,41.9,18.7,41.9,41.8C149.5,241,130.7,259.7,107.6,259.7z M348.5,405.7
			c-63.7,0-115.3-51.4-115.3-114.8c0-63.4,51.6-114.8,115.3-114.8c63.7,0,115.3,51.4,115.3,114.8
			C463.8,354.3,412.1,405.7,348.5,405.7z M348.5,238.8c-28.8,0-52.2,23.4-52.2,52.3c0,28.9,23.4,52.3,52.2,52.3
			c28.8,0,52.2-23.4,52.2-52.3C400.7,262.2,377.3,238.8,348.5,238.8z M145.8,56H66.5v31.7h79.3V56z"/>
	</g>
</g>
</svg>
