<?xml version="1.0" encoding="utf-8"?>
<!-- Generator: Adobe Illustrator 19.1.0, SVG Export Plug-In . SVG Version: 6.00 Build 0)  -->
<svg version="1.1" id="Layer_1" xmlns="http://www.w3.org/2000/svg" xmlns:xlink="http://www.w3.org/1999/xlink" x="0px" y="0px"
	 viewBox="0 0 532.3 532.3" style="enable-background:new 0 0 532.3 532.3;" xml:space="preserve">
<style type="text/css">
	.st0{fill-rule:evenodd;clip-rule:evenodd;}
	.st1{fill:#231F20;}
	.st2{fill:none;stroke:#231F20;stroke-miterlimit:10;}
	.st3{fill:none;stroke:#231F20;stroke-width:24;stroke-miterlimit:10;}
	.st4{fill-rule:evenodd;clip-rule:evenodd;fill:#231F20;}
</style>
<g>
	<path class="st0" d="M332.9,4.1H199.4c-107.5,0-195,87.5-195,195v133.5c0,107.5,87.5,195,195,195h133.5c107.5,0,195-87.5,195-195
		V199.1C527.9,91.6,440.5,4.1,332.9,4.1z M32.4,332.6V199.1c0-92.1,74.9-167,167-167h133.5C375.3,32.1,414,48,443.5,74L74.3,443.2
		C48.3,413.7,32.4,375,32.4,332.6z M499.9,332.6c0,41.6-15.3,79.6-40.5,108.9c-3.4-9.7-7.8-17.8-13-23.2
		c-9.6-10-85.1-29.8-119.8-38.5c37.4-29.4,60.2-83.7,60.2-135.4c0-21.3-1.7-41.5-6.4-59.4l-17.1,17.1c3.1,13.2,4.4,27.2,4.4,41.5
		c0,45.1-27.3,105-60.7,127.8V397c50.1,12.1,114.2,27.8,127.8,35.1c2.9,3.7,6.1,13.4,8.8,25.5c-29.5,26.1-68.2,41.9-110.5,41.9
		H199.4c-42.2,0-80.8-15.7-110.2-41.7L458.3,88.9c25.9,29.4,41.7,68,41.7,110.2V332.6z"/>
	<path class="st0" d="M266.9,107.9C168.8,107.9,147,169,147,244.5c0,29.8,7.6,60.5,21.1,86.7l15.7-15.7
		c-10.9-23.3-17.6-49.4-17.6-71.8c0-61,21.5-118.2,99.1-118.2c36.1,0,60.7,12.4,76.8,31.8l16.1-16.1
		C340.1,120.4,311.3,107.9,266.9,107.9z"/>
	<path class="st0" d="M209.6,355.7l-13.9,13.9c3.7,3.8,7.7,7.3,11.8,10.5c-8.3,2-18.7,4.7-29.9,7.6l-31.8,31.8
		c24.1-7.6,54.1-16,81.1-22.4v-25.6C221,367.3,215.1,362,209.6,355.7z"/>
</g>
</svg>
