<?xml version="1.0" encoding="utf-8"?>
<!-- Generator: Adobe Illustrator 19.1.0, SVG Export Plug-In . SVG Version: 6.00 Build 0)  -->
<svg version="1.1" id="Layer_1" xmlns="http://www.w3.org/2000/svg" xmlns:xlink="http://www.w3.org/1999/xlink" x="0px" y="0px"
	 viewBox="0 0 532.3 532.3" style="enable-background:new 0 0 532.3 532.3;" xml:space="preserve">
<style type="text/css">
	.st0{fill-rule:evenodd;clip-rule:evenodd;}
	.st1{fill:#231F20;}
	.st2{fill:none;stroke:#231F20;stroke-miterlimit:10;}
	.st3{fill:none;stroke:#231F20;stroke-width:24;stroke-miterlimit:10;}
	.st4{fill-rule:evenodd;clip-rule:evenodd;fill:#231F20;}
</style>
<path class="st1" d="M443.8,288.8c-18.5-2.3-35.7,10.6-38.1,29c-5.4,41.5-26.9,78.5-60.6,104.1s-75.5,36.9-117.9,31.6
	C140,442.7,77.9,364.1,88.9,278.4c5.4-41.5,26.9-78.5,60.6-104.1c25.6-19.5,55.9-30.6,87.5-32.5l-2.3,47.4
	c-0.5,10.8,5.2,21,14.8,26.3c4,2.2,8.5,3.5,13,3.7c6.1,0.3,12.3-1.4,17.6-4.8l110-72.5c7.7-5.1,12.5-13.5,12.9-22.6
	c0.4-9.1-3.7-17.9-10.9-23.6L289.5,15c-8.6-6.7-20.3-8.2-30.3-3.7c-10,4.4-16.6,14-17.1,24.7l-1.8,38.6
	c-47.9,1.4-93.9,17.4-132.5,46.8C59.7,158.1,29,210.8,21.3,270C5.6,392.3,94.2,504.3,218.8,519.8c9.7,1.2,19.4,1.8,29,1.8
	c50.2,0,98.8-16.2,139.1-46.9c48.1-36.6,78.8-89.3,86.4-148.6C475.7,307.8,462.5,291.1,443.8,288.8z"/>
</svg>
