<?xml version="1.0" encoding="utf-8"?>
<!-- Generator: Adobe Illustrator 19.1.0, SVG Export Plug-In . SVG Version: 6.00 Build 0)  -->
<svg version="1.1" id="Layer_1" xmlns="http://www.w3.org/2000/svg" xmlns:xlink="http://www.w3.org/1999/xlink" x="0px" y="0px"
	 viewBox="0 0 532.3 532.3" style="enable-background:new 0 0 532.3 532.3;" xml:space="preserve">
<style type="text/css">
	.st0{fill-rule:evenodd;clip-rule:evenodd;}
	.st1{fill:#231F20;}
	.st2{fill:none;stroke:#231F20;stroke-miterlimit:10;}
	.st3{fill:none;stroke:#231F20;stroke-width:24;stroke-miterlimit:10;}
	.st4{fill-rule:evenodd;clip-rule:evenodd;fill:#231F20;}
	.st5{fill:none;stroke:#231F20;stroke-width:28;stroke-miterlimit:10;}
</style>
<g>
	<path class="st1" d="M159.8,98.1c-75,13.9-87.9,93.5-88,94.3c-0.9,5.8,3.1,11.2,8.9,12.1c0.5,0.1,1.1,0.1,1.6,0.1
		c5.2,0,9.7-3.8,10.5-9c0.1-0.7,10.6-65.5,70.9-76.6c5.8-1.1,9.6-6.6,8.5-12.4C171.1,100.8,165.6,97,159.8,98.1z"/>
	<path class="st1" d="M524.5,164.9C506.2,85.6,438.8,32.4,364.7,32.4c-12.9,0-26,1.6-39.1,5c-23.5,6-41.3,17.1-59.1,31.9h-0.5
		c-17.9-14.8-35.6-25.9-59.1-31.9c-13.1-3.4-26.2-5-39.1-5C93.5,32.4,26.1,85.6,7.8,164.9C-8.4,235,18.4,305.5,70.3,345.8
		l195.9,154.1l37.3-28.5l-0.2-0.8c7.5-3.5,12.7-11.1,12.7-20c0-12.2-9.9-22.1-22.1-22.1c-7.7,0-14.4,3.9-18.4,9.9l-9.4,7.4
		L96.4,312.2c-40.7-31.6-59.2-85.6-47.1-137.7c13.5-58.6,62.2-99.6,118.4-99.6c9.5,0,19.1,1.2,28.5,3.6
		c14.8,3.8,26.8,10.4,42.7,23.5c7.6,6.3,17.7,9.7,27.6,9.7c9.9,0,19.4-3.4,27.1-9.7c15.9-13.1,27.9-19.7,42.7-23.5
		c9.4-2.4,19-3.6,28.5-3.6c56.2,0,104.9,40.9,118.4,99.6c9.2,39.6,0.6,80.4-22,111.6c-3.7,3.9-5.9,9.1-5.9,14.9
		c0,12,9.7,21.7,21.7,21.7c9.2,0,17.1-5.7,20.2-13.8C524.9,268.9,536.5,216.8,524.5,164.9z"/>
	<path class="st1" d="M435.4,330c-4.1-4-10.7-4-14.8,0l-32.7,31.8L355.2,330c-4.1-4-10.7-4-14.8,0c-4.1,4-4.1,10.4,0,14.4l34.5,33.6
		l-33.6,32.9c-4,3.9-4,10.3,0,14.3c4,3.9,10.6,3.9,14.6,0l32-31.4l32,31.4c4,3.9,10.6,3.9,14.6,0c4-3.9,4-10.3,0-14.3L400.9,378
		l34.5-33.6C439.5,340.5,439.5,334,435.4,330z"/>
</g>
</svg>
