<?xml version="1.0" encoding="utf-8"?>
<!-- Generator: Adobe Illustrator 19.1.0, SVG Export Plug-In . SVG Version: 6.00 Build 0)  -->
<svg version="1.1" id="Layer_1" xmlns="http://www.w3.org/2000/svg" xmlns:xlink="http://www.w3.org/1999/xlink" x="0px" y="0px"
	 viewBox="0 0 532.3 532.3" style="enable-background:new 0 0 532.3 532.3;" xml:space="preserve">
<style type="text/css">
	.st0{fill-rule:evenodd;clip-rule:evenodd;}
	.st1{fill:#231F20;}
	.st2{fill:none;stroke:#231F20;stroke-miterlimit:10;}
	.st3{fill:none;stroke:#231F20;stroke-width:24;stroke-miterlimit:10;}
	.st4{fill-rule:evenodd;clip-rule:evenodd;fill:#231F20;}
</style>
<g>
	<path class="st1" d="M261.1,332.9c-38.8,0-70.4-31.6-70.4-70.4s31.6-70.4,70.4-70.4s70.4,31.6,70.4,70.4S300,332.9,261.1,332.9z
		 M261.1,213.1c-27.2,0-49.4,22.2-49.4,49.4s22.2,49.4,49.4,49.4s49.4-22.2,49.4-49.4S288.4,213.1,261.1,213.1z"/>
</g>
<g>
	<path class="st1" d="M261.1,428.8c-91.7,0-166.3-74.6-166.3-166.3c0-91.7,74.6-166.3,166.3-166.3c91.7,0,166.3,74.6,166.3,166.3
		C427.4,354.2,352.8,428.8,261.1,428.8z M261.1,117.3c-80.1,0-145.2,65.2-145.2,145.2c0,80.1,65.2,145.2,145.2,145.2
		s145.2-65.2,145.2-145.2C406.4,182.4,341.2,117.3,261.1,117.3z"/>
</g>
<g>
	<path class="st1" d="M261.1,506.9c-134.8,0-244.4-109.6-244.4-244.4c0-134.8,109.6-244.4,244.4-244.4
		c134.8,0,244.4,109.6,244.4,244.4C505.5,397.3,395.9,506.9,261.1,506.9z M261.1,39.2C138,39.2,37.8,139.4,37.8,262.5
		c0,123.1,100.2,223.3,223.3,223.3s223.3-100.2,223.3-223.3C484.4,139.4,384.3,39.2,261.1,39.2z"/>
</g>
<rect x="254.1" y="17.8" class="st1" width="15.1" height="255.9"/>
<circle class="st1" cx="260.6" cy="263.7" r="14.5"/>
<circle class="st1" cx="107.6" cy="265" r="33.5"/>
<circle class="st1" cx="380.3" cy="164.6" r="26.1"/>
<circle class="st1" cx="260.6" cy="495.5" r="33.4"/>
</svg>
