<?xml version="1.0" encoding="utf-8"?>
<!-- Generator: Adobe Illustrator 19.1.0, SVG Export Plug-In . SVG Version: 6.00 Build 0)  -->
<svg version="1.1" id="Layer_1" xmlns="http://www.w3.org/2000/svg" xmlns:xlink="http://www.w3.org/1999/xlink" x="0px" y="0px"
	 viewBox="0 0 532.3 532.3" style="enable-background:new 0 0 532.3 532.3;" xml:space="preserve">
<style type="text/css">
	.st0{fill-rule:evenodd;clip-rule:evenodd;}
	.st1{fill:#231F20;}
	.st2{fill:none;stroke:#231F20;stroke-miterlimit:10;}
	.st3{fill:none;stroke:#231F20;stroke-width:24;stroke-miterlimit:10;}
	.st4{fill-rule:evenodd;clip-rule:evenodd;fill:#231F20;}
	.st5{fill:none;stroke:#231F20;stroke-width:28;stroke-miterlimit:10;}
</style>
<g>
	<path class="st1" d="M67.1,355.6l3.4,2.7l317-317c-41.3-6-84.7,4.1-121,32.2c-0.9,0.7-1.7,1.3-2.5,2
		c-17.5-14.2-37.9-24.9-60.7-30.8c-13.1-3.4-26.2-5-39-5C90.2,39.7,23,93.3,4.7,173.3C-11.5,243.9,15.3,315,67.1,355.6z"/>
	<path class="st1" d="M500.7,114.5L171.2,437.1l90.5,70.8l0.7,3.2l0.1,0l1.6-1.3l1.7,1.3l0.1-0.2l-0.1,0l-0.5-2L463,355.6
		C535.8,299.2,552.1,192.2,500.7,114.5z"/>
	<path class="st1" d="M519.7,9.4c-11.9-12.3-31.6-12.5-43.8-0.6l-462.7,449c-12.3,11.9-12.6,31.6-0.6,43.8
		c6.1,6.3,14.1,9.4,22.2,9.4c7.8,0,15.6-2.9,21.6-8.8L519,53.2C531.3,41.3,531.6,21.7,519.7,9.4z"/>
</g>
</svg>
