<?xml version="1.0" encoding="utf-8"?>
<!-- Generator: Adobe Illustrator 19.1.0, SVG Export Plug-In . SVG Version: 6.00 Build 0)  -->
<svg version="1.1" id="Layer_1" xmlns="http://www.w3.org/2000/svg" xmlns:xlink="http://www.w3.org/1999/xlink" x="0px" y="0px"
	 viewBox="0 0 532.3 532.3" style="enable-background:new 0 0 532.3 532.3;" xml:space="preserve">
<style type="text/css">
	.st0{fill-rule:evenodd;clip-rule:evenodd;}
	.st1{fill:#231F20;}
	.st2{fill:none;stroke:#231F20;stroke-miterlimit:10;}
	.st3{fill:none;stroke:#231F20;stroke-width:24;stroke-miterlimit:10;}
	.st4{fill-rule:evenodd;clip-rule:evenodd;fill:#231F20;}
</style>
<g>
	<path d="M332.9,4.1H199.4c-107.5,0-195,87.5-195,195v133.5c0,107.5,87.5,195,195,195h133.5c107.5,0,195-87.5,195-195V199.1
		C527.9,91.6,440.5,4.1,332.9,4.1z M199.4,499.7c-40.5,0-77.7-14.5-106.7-38.6c3-12.4,6.8-22,9.7-25.7
		c13.4-7.4,74.3-26.4,124.6-38.3v-25.6c-33.4-22.8-60.7-82.7-60.7-127.8c0-61,21.5-118.2,99.1-118.2c77.6,0,102.2,57.2,102.2,118.2
		c0,45.1-27.3,105-60.7,127.8V397c50.1,12.1,114.2,27.8,127.8,35.1c2.9,3.7,6.1,13.4,8.8,25.5c-29.5,26.1-68.2,41.9-110.5,41.9
		H199.4z M499.9,332.6c0,41.6-15.3,79.6-40.5,108.9c-3.4-9.7-7.8-17.8-13-23.2c-9.6-10-85.1-29.8-119.8-38.5
		c37.4-29.4,60.2-83.7,60.2-135.4c0-75.4-21.8-136.6-119.9-136.6C168.8,107.9,147,169,147,244.5c0,51.9,22.9,106.3,60.5,135.6
		c-35.6,8.8-109.9,28-119.8,38.2c-5.5,5.6-10.3,14.2-13.8,24.3c-25.8-29.4-41.4-67.9-41.4-110V199.1c0-92.1,74.9-167,167-167h133.5
		c92.1,0,167,74.9,167,167V332.6z"/>
	<rect x="257.5" y="292" width="16.9" height="16.9"/>
	<path d="M268.2,195.9c-8.6,0-15.1,2.4-19.4,7.3c-4.3,4.8-6.5,11.8-6.5,20.8v11H259v-12.1c0-4,0.8-6.9,2.3-8.5
		c1.5-1.6,3.7-2.5,6.5-2.5c2.8,0,4.9,0.8,6.5,2.5c1.5,1.7,2.3,4.5,2.3,8.5c0,4.7-0.5,8.7-1.4,12s-2.1,6.4-3.5,9
		c-1.4,2.7-2.9,5.1-4.6,7.4c-1.7,2.3-3.2,4.7-4.6,7.2c-1.4,2.5-2.6,5.2-3.5,8.2c-1,3-1.4,6.5-1.4,10.5c0,2.7,0.3,4.9,1,6.9H274
		c-0.4-1.8-0.6-3.9-0.6-6.2c0-3.4,0.5-6.4,1.5-9.1c1-2.7,2.3-5.2,3.8-7.5c1.5-2.3,3.2-4.7,5-7.1c1.8-2.4,3.5-5,5-7.9
		c1.5-2.9,2.8-6.1,3.8-9.7c1-3.6,1.5-7.8,1.5-12.7c0-9-2.2-16-6.5-20.8C283.3,198.3,276.8,195.9,268.2,195.9z"/>
</g>
</svg>
