<?xml version="1.0" encoding="utf-8"?>
<!-- Generator: Adobe Illustrator 19.2.1, SVG Export Plug-In . SVG Version: 6.00 Build 0)  -->
<svg version="1.1" id="Layer_1" xmlns="http://www.w3.org/2000/svg" xmlns:xlink="http://www.w3.org/1999/xlink" x="0px" y="0px"
	 viewBox="0 0 532.3 532.3" style="enable-background:new 0 0 532.3 532.3;" xml:space="preserve">
<style type="text/css">
	.st0{fill-rule:evenodd;clip-rule:evenodd;}
	.st1{fill:#231F20;}
	.st2{fill:none;stroke:#231F20;stroke-miterlimit:10;}
	.st3{fill:none;stroke:#231F20;stroke-width:24;stroke-miterlimit:10;}
	.st4{fill-rule:evenodd;clip-rule:evenodd;fill:#231F20;}
	.st5{fill:none;stroke:#231F20;stroke-width:28;stroke-miterlimit:10;}
	.st6{fill:none;stroke:#231F20;stroke-width:4;stroke-linecap:round;stroke-miterlimit:10;}
	
		.st7{fill:none;stroke:#231F20;stroke-width:4;stroke-linecap:round;stroke-miterlimit:10;stroke-dasharray:1.0017,12.0202,1.0017,12.0202;}
	
		.st8{fill:none;stroke:#231F20;stroke-width:4;stroke-linecap:round;stroke-miterlimit:10;stroke-dasharray:1.0017,12.0202,1.0017,12.0202,1.0017,12.0202;}
	.st9{fill:#FFFFFF;}
</style>
<g>
	<g>
		<path class="st4" d="M215.6,429.3c-18.3-9.4-33-25-62.4-25s-25,48.1-25,56.2c0,8.1,0.8,71.8,28.1,71.8s59.5-24,71.7-34.3
			c12.2-10.3,15.6-9.4,15.6-9.4v-12.5l-59.3-6.2l59.3-6.2v-12.5C243.7,451.2,233.9,438.8,215.6,429.3z M380.8,404.3
			c-29.3,0-44,15.5-62.3,25c-18.2,9.4-28,21.9-28,21.9v12.5l59.2,6.2l-59.2,6.2v12.5c0,0,3.3-1,15.6,9.4
			c12.2,10.3,44.4,34.3,71.6,34.3s28-63.7,28-71.8C405.7,452.4,410.1,404.3,380.8,404.3z M249.9,451.2c0,0-0.7,22.9,0,37.5
			c19.1,4,34.3,0,34.3,0s0-31.1,0-37.5C268.9,444.8,249.9,451.2,249.9,451.2z M239.5,209.2l50.8-0.1c0,0,100.5,0.1,144.3-14.5
			c1.2-31,4.4-72.6-17.7-129.5C394.7,8.3,279.8,0,279.8,0H250c0,0-114.9,8.3-137.1,65.2C90.7,122,94,163.7,95.2,194.7
			C139,209.3,239.5,209.2,239.5,209.2z M439.4,204.3c-54.6,11.9-149.1,15.3-149.1,15.3l-45.2,0c0,0-94.6-3.4-149.2-15.3
			c-54.6-11.9-88,3.9-78.2,33c9.8,29.1,69.1,67.5,84.7,72.4c-4.6-28.4-23.2-65.6,111.3-65.2c30.4,0.1,45.7,0.2,52.7,0.2
			c5.4-0.1,20.4-0.1,55.3-0.2c134.4-0.4,115.8,36.8,111.2,65.2c15.6-5,74.8-43.3,84.6-72.5C527.4,208.2,494,192.5,439.4,204.3z
			 M266.4,244.8C255.7,244.9,282.5,244.9,266.4,244.8L266.4,244.8z"/>
	</g>
</g>
</svg>
