<?xml version="1.0" encoding="iso-8859-1"?>
<!-- Generator: Adobe Illustrator 18.0.0, SVG Export Plug-In . SVG Version: 6.00 Build 0)  -->
<!DOCTYPE svg PUBLIC "-//W3C//DTD SVG 1.1//EN" "http://www.w3.org/Graphics/SVG/1.1/DTD/svg11.dtd">
<svg version="1.1" id="Capa_1" xmlns="http://www.w3.org/2000/svg" xmlns:xlink="http://www.w3.org/1999/xlink" x="0px" y="0px"
	 viewBox="0 0 297 297" style="enable-background:new 0 0 297 297;" xml:space="preserve">
<path d="M285.852,154.921l-1.962-0.315c8.693-17.431,13.11-34.917,13.11-52.185c0-43.771-35.61-79.381-79.382-79.381
	c-29.604,0-55.473,16.286-69.118,40.372C134.853,39.326,108.984,23.04,79.38,23.04C35.61,23.04,0,58.65,0,102.421
	c0,23.083,7.847,46.558,23.323,69.771c12.014,18.021,28.664,35.957,49.488,53.31c35.071,29.227,69.645,46.647,71.1,47.375
	c1.444,0.723,3.017,1.083,4.589,1.083c1.572,0,3.144-0.36,4.589-1.083c1.108-0.555,21.438-10.805,46.561-28.57l14.584-7.392
	l38.619,19.573c1.465,0.742,3.055,1.108,4.638,1.108c2.129,0,4.246-0.661,6.033-1.96c3.116-2.264,4.701-6.08,4.107-9.886
	l-6.68-42.778l30.547-30.679c2.718-2.729,3.678-6.75,2.488-10.412C292.795,158.219,289.655,155.531,285.852,154.921z
	 M148.496,252.086c-23.388-12.734-127.972-73.934-127.972-149.665c0-32.453,26.402-58.856,58.855-58.856
	c32.455,0,58.857,26.403,58.857,58.856c0,5.667,4.596,10.263,10.263,10.263s10.263-4.596,10.263-10.263
	c0-32.453,26.401-58.856,58.856-58.856s58.857,26.403,58.857,58.856c0,17.12-5.378,33.501-13.946,48.755l-19.424-3.12
	l-19.738-38.533c-1.756-3.429-5.282-5.584-9.134-5.584c-3.852,0-7.378,2.155-9.134,5.584l-19.737,38.533l-42.748,6.865
	c-3.804,0.61-6.943,3.298-8.134,6.961c-1.189,3.662-0.229,7.683,2.488,10.412l30.549,30.681l-6.555,41.965
	C155.753,248.057,151.465,250.467,148.496,252.086z M218.872,216.256c-1.458-0.738-3.048-1.108-4.639-1.108
	c-1.59,0-3.181,0.37-4.639,1.108l-25.389,12.868l4.392-28.122c0.505-3.23-0.56-6.507-2.867-8.824l-20.081-20.169l28.102-4.512
	c3.229-0.519,6.018-2.544,7.508-5.455l12.975-25.331l12.976,25.331c1.49,2.911,4.278,4.936,7.507,5.455l28.102,4.512l-20.081,20.169
	c-2.307,2.317-3.372,5.594-2.867,8.824l4.392,28.122L218.872,216.256z"/>
<g>
</g>
<g>
</g>
<g>
</g>
<g>
</g>
<g>
</g>
<g>
</g>
<g>
</g>
<g>
</g>
<g>
</g>
<g>
</g>
<g>
</g>
<g>
</g>
<g>
</g>
<g>
</g>
<g>
</g>
</svg>
