<?xml version="1.0" encoding="utf-8"?>
<!-- Generator: Adobe Illustrator 19.1.0, SVG Export Plug-In . SVG Version: 6.00 Build 0)  -->
<svg version="1.1" id="Layer_1" xmlns="http://www.w3.org/2000/svg" xmlns:xlink="http://www.w3.org/1999/xlink" x="0px" y="0px"
	 viewBox="0 0 532.3 532.3" style="enable-background:new 0 0 532.3 532.3;" xml:space="preserve">
<style type="text/css">
	.st0{fill-rule:evenodd;clip-rule:evenodd;}
	.st1{fill:#231F20;}
	.st2{fill:none;stroke:#231F20;stroke-miterlimit:10;}
	.st3{fill:none;stroke:#231F20;stroke-width:24;stroke-miterlimit:10;}
	.st4{fill-rule:evenodd;clip-rule:evenodd;fill:#231F20;}
	.st5{fill:none;stroke:#231F20;stroke-width:28;stroke-miterlimit:10;}
</style>
<g>
	<path class="st4" d="M277,8.5h-23.9C118,8.5,8.5,118,8.5,253.1v23.9C8.5,412,118,521.5,253.1,521.5H277c15.7,0,31.1-1.5,46-4.3
		c0.3,0,0.5-0.1,0.7-0.2c5.8-0.8,10.3-5.8,10.3-11.8c0-6.6-5.4-12-12-12c-1.4,0-2.7,0.3-4,0.7c-13.3,2.5-27,3.8-41.1,3.8h-23.9
		c-49.5,0-95.3-16.3-132.1-43.9c0-0.3,0.1-0.9,0.1-0.9c2.1-17.9,7.5-33.6,11.2-38.1c11.4-6.1,62.9-21.9,105.5-31.8v-21.2
		c-28.3-18.9-51.4-68.6-51.4-106.1c0-50.6,18.2-98.1,83.9-98.1c65.7,0,86.6,47.5,86.6,98.1c0,37.4-23.1,87.1-51.4,106.1v21.2
		c10.3,2.4,21.2,5,32.1,7.7c1,0.4,2.1,0.6,3.2,0.6c4.9,0,8.8-3.9,8.8-8.8c0-3.7-2.3-6.9-5.6-8.2c-0.1-0.1-0.2-0.1-0.3-0.1
		c0,0,0,0,0,0c-0.4-0.1-0.8-0.2-1.3-0.3c-7.6-1.9-14.5-3.7-20.2-5.1c31.6-24.4,50.9-69.4,50.9-112.4c0-62.6-18.5-113.3-101.5-113.3
		c-83,0-101.5,50.7-101.5,113.3c0,43.1,19.4,88.2,51.2,112.6c-30.1,7.3-93.1,23.3-101.5,31.7c-7.8,7.8-14.2,22.6-16,39
		c-43.9-40.3-71.5-98.3-71.5-162.6v-23.9c0-121.9,98.8-220.7,220.7-220.7H277c121.9,0,220.7,98.8,220.7,220.7v23.9
		c0,21.2-3,41.7-8.6,61.1c-0.7,1.5-1,3.1-1,4.8c0,6.6,5.4,12,12,12c5.3,0,9.7-3.4,11.3-8.2c0,0,0,0,0.1,0c0.2-0.7,0.4-1.3,0.6-2
		c6.2-21.5,9.5-44.2,9.5-67.7v-23.9C521.6,118,412.1,8.5,277,8.5z"/>
	<path class="st4" d="M502.7,398l-1.1-1.1c-4.7-4.7-12.3-4.7-17,0l-38.4,38.4l-38.4-38.4c-4.7-4.7-12.3-4.7-17,0l-1.1,1.1
		c-4.7,4.7-4.7,12.3,0,17l38.4,38.4l-38.4,38.4c-4.7,4.7-4.7,12.3,0,17l1.1,1.1c4.7,4.7,12.3,4.7,17,0l38.4-38.4l38.4,38.4
		c4.7,4.7,12.3,4.7,17,0l1.1-1.1c4.7-4.7,4.7-12.3,0-17l-38.4-38.4l38.4-38.4C507.3,410.3,507.3,402.7,502.7,398z"/>
</g>
</svg>
