<?xml version="1.0" encoding="utf-8"?>
<!-- Generator: Adobe Illustrator 19.1.0, SVG Export Plug-In . SVG Version: 6.00 Build 0)  -->
<svg version="1.1" id="Layer_1" xmlns="http://www.w3.org/2000/svg" xmlns:xlink="http://www.w3.org/1999/xlink" x="0px" y="0px"
	 viewBox="0 0 532.3 532.3" style="enable-background:new 0 0 532.3 532.3;" xml:space="preserve">
<style type="text/css">
	.st0{fill-rule:evenodd;clip-rule:evenodd;}
	.st1{fill:#231F20;}
	.st2{fill:none;stroke:#231F20;stroke-miterlimit:10;}
	.st3{fill:none;stroke:#231F20;stroke-width:24;stroke-miterlimit:10;}
	.st4{fill-rule:evenodd;clip-rule:evenodd;fill:#231F20;}
	.st5{fill:none;stroke:#231F20;stroke-width:28;stroke-miterlimit:10;}
</style>
<g>
	<path class="st4" d="M443,383.8c2.5-35.8-23.7-133.3-37.6-154.6c-7.1-10.9-11.4-37.6-36-44.3c-9.7-2.7-16.8-0.3-18.6,0.4
		c1.2,0.7,3.5,2.3,5.8,5.3c2.7,3.5,0.6,3.2,5.4,14.7c0.9,2.1,1.7,4.4,6.3,8.3c0,0-4.1-1.6-7.7-7.1c-3.6-5.5-10.6-21.6-10.6-21.6
		s0.2,0.1,0.4,0.2c0-2.9-8.1-23.2-27.2-32.6c-11.8-5.8-26.2-0.5-26.7-0.3c0,0,0,0,0,0.1c1.6,1.3,4.3,4.4,7.4,10.8
		c3.9,8.2,1.3,7,9.3,32.6c1.5,4.8,0.9,1.6,2.9,8.3c0,0-4.8-9.2-10.1-21.6c-5.3-12.5-10.8-31-10.8-31s0.5,0.3,1.2,0.9c0,0,0,0,0,0
		c0,0,0,0,0,0c-0.4-1.3-3.8-9.2-23.7-21.7c-9-5.7-26.4-15.6-37.1-8.8c-1.1,0.7-2.1,1.4-3.1,2.2c3.7,1.5-0.3,6-0.3,17.9
		c0.1,8.5,5.2,23.8,6.7,34.6c1,7.6,2,21.3,1.3,20.3c-2.9-4.1-22.1-37.9-22.1-37.9s0-0.5,0-1.3c-0.1,0.3-0.2,0.6-0.3,0.7
		c-0.4,0.2-9-13.6-18.5-32.3c-5.4-10.7-19.1-21.6-25.1-33.3c-0.6-1.1-1.1-2.3-1.7-3.4c0.1,0,0.2-0.1,0.3-0.1l-0.4,0.1l-6.1-13.8
		l0.7-1.5l12.7,13.4l-0.4,0.1c19.8-4.8,57.7-12.5,98.4-12.3c74,0.3,135.1,16.1,135.3,15.2c0.4-1.5-52.1-23.6-115.6-40.6
		c-53.4-14.3-125.7-14.2-125.9-14.3L168.8,0L92.1,62.1l38.1,36.6l-8.8-17.3c0,0,1.9,2.1,3.8,3.8c1.9,1.7,3.4,2.3,3.4,2.3
		c-0.2,2,0.5,3.7,0.9,5.4c0.3,1.4,0.9,4.9,1.2,6.2l0.2,0.2c3.3,14.1,8.5,29.5,14.8,43.3c15.3,34,26.6,64.3,31.5,78.1
		c11,31.2,11.5,119.6,11.5,119.5l-6.5,2.1c0,0-5.1-12.7-15.8-26.2c0.6-46-33.6-61.1-40-52.5c-5.6,7.5-2.8,21.6-5.8,34.7
		c-3.6,15.6-10.1,26.4-10,34.7c0.1,7.9,8.8,20.5,17.4,37.1c7.9,15.2,15.2,34.4,23.5,43.7c8.9,10,41.7,27.6,70.3,39.8
		c26.9,11.5,36.1,10.6,50.1,17.8c13.9,7.2,15.7,33.2,19.4,36.1c26.7,20.6,139.5,5.7,160.3-55.4C461.9,421.4,441.7,402.1,443,383.8z
		 M132.6,53c-6.1,4.1-6.9,17.5-4.1,34.3c-7.9-4.7-13.2-13.4-13-23.6c0.3-15.2,12.7-27.8,27.6-28c14.9-0.2,26.7,11.9,26.4,27.2
		c-0.1,4.4-1.3,8.5-3.1,12.2C158.1,55.1,152.1,39.7,132.6,53z"/>
	<path class="st4" d="M232.6,123.8c-6.1,4.8-9.5,10.6-11.4,16.1C223,136.6,225.1,133.4,232.6,123.8z"/>
</g>
</svg>
