<?xml version="1.0" encoding="utf-8"?>
<!-- Generator: Adobe Illustrator 19.2.1, SVG Export Plug-In . SVG Version: 6.00 Build 0)  -->
<svg version="1.1" id="Layer_1" xmlns="http://www.w3.org/2000/svg" xmlns:xlink="http://www.w3.org/1999/xlink" x="0px" y="0px"
	 viewBox="0 0 532.3 532.3" style="enable-background:new 0 0 532.3 532.3;" xml:space="preserve">
<style type="text/css">
	.st0{fill-rule:evenodd;clip-rule:evenodd;}
	.st1{fill:#231F20;}
	.st2{fill:none;stroke:#231F20;stroke-miterlimit:10;}
	.st3{fill:none;stroke:#231F20;stroke-width:24;stroke-miterlimit:10;}
	.st4{fill-rule:evenodd;clip-rule:evenodd;fill:#231F20;}
	.st5{fill:none;stroke:#231F20;stroke-width:28;stroke-miterlimit:10;}
	.st6{fill:none;stroke:#231F20;stroke-width:4;stroke-linecap:round;stroke-miterlimit:10;}
	
		.st7{fill:none;stroke:#231F20;stroke-width:4;stroke-linecap:round;stroke-miterlimit:10;stroke-dasharray:1.0017,12.0202,1.0017,12.0202;}
	
		.st8{fill:none;stroke:#231F20;stroke-width:4;stroke-linecap:round;stroke-miterlimit:10;stroke-dasharray:1.0017,12.0202,1.0017,12.0202,1.0017,12.0202;}
	.st9{fill:#FFFFFF;}
	.st10{opacity:0.6;fill:#231F20;enable-background:new    ;}
</style>
<g>
	<path class="st1" d="M388.9,285.8c-40.4,0-73.1,32.7-73.1,73.1c0,40.4,32.7,73.1,73.1,73.1s73.1-32.7,73.1-73.1
		C461.9,318.6,429.2,285.8,388.9,285.8z M396.4,393h-8.6v-57.4h-0.2l-11.4,6.2l-1.7-6.8l14.3-7.7h7.6V393z"/>
	<path class="st4" d="M411.4,97L217.9,290.5l-94.5-78.8c-13.4-11.2-33.3-9.3-44.4,4c-11.2,13.4-9.3,33.3,4,44.4l116.6,97.2
		c5.9,4.9,13,7.3,20.2,7.3c8.1,0,16.2-3.1,22.3-9.2L456,141.6c12.3-12.3,12.3-32.3,0-44.6C443.7,84.7,423.7,84.7,411.4,97z"/>
</g>
</svg>
