<?xml version="1.0" encoding="utf-8"?>
<!-- Generator: Adobe Illustrator 19.1.0, SVG Export Plug-In . SVG Version: 6.00 Build 0)  -->
<svg version="1.1" id="Layer_1" xmlns="http://www.w3.org/2000/svg" xmlns:xlink="http://www.w3.org/1999/xlink" x="0px" y="0px"
	 viewBox="0 0 532.3 532.3" style="enable-background:new 0 0 532.3 532.3;" xml:space="preserve">
<style type="text/css">
	.st0{fill-rule:evenodd;clip-rule:evenodd;}
	.st1{fill:#231F20;}
	.st2{fill:none;stroke:#231F20;stroke-miterlimit:10;}
	.st3{fill:none;stroke:#231F20;stroke-width:24;stroke-miterlimit:10;}
	.st4{fill-rule:evenodd;clip-rule:evenodd;fill:#231F20;}
	.st5{fill:none;stroke:#231F20;stroke-width:28;stroke-miterlimit:10;}
	.st6{fill:none;stroke:#231F20;stroke-width:30;stroke-linejoin:round;stroke-miterlimit:10;}
</style>
<g>
	<g>
		<path class="st4" d="M334.9,135l33,33.9l108.4-51.4l-96,64.1l37.1,38.1L528.8,84.2L334.9,135z M373.5,229.7l19.6-16.6L373.5,191
			V229.7z"/>
	</g>
</g>
<g>
	<path class="st1" d="M334.9,223l-68.7,47.2L119.6,169.4c-3.8-2.6-9-1.7-11.6,2.2c-2.6,3.8-1.7,9,2.2,11.6l151.3,104
		c1.4,1,3.1,1.5,4.7,1.5c1.7,0,3.3-0.5,4.7-1.5l73.7-50.8c0.3-0.2,0.6-0.4,0.9-0.6l0,0c0,0,0,0,0,0c1.9-1.5,3.1-3.9,3.1-6.5
		c0-4.6-3.7-8.3-8.3-8.3C338.2,220.9,336.3,221.7,334.9,223z"/>
	<path class="st1" d="M528.8,235.2c0-7.4-6-13.4-13.4-13.4c-7.4,0-13.4,6-13.4,13.4c0,0.1,0,0.1,0,0.2h0v187
		c0,9.1-7.3,16.4-16.4,16.4h-439c-9.1,0-16.4-7.3-16.4-16.4V110c0-9.1,7.3-16.4,16.4-16.4h272.4v0c7.6-0.3,13.7-6.5,13.7-14.2
		c0-7.7-6.1-14-13.7-14.2v0H48.6C23.7,65,3.5,85.2,3.5,110.1v312.1c0,24.9,20.2,45.1,45.1,45.1h435.1c24.9,0,45.1-20.2,45.1-45.1
		V235.4h0C528.8,235.3,528.8,235.3,528.8,235.2z"/>
</g>
</svg>
