<?xml version="1.0" encoding="utf-8"?>
<!-- Generator: Adobe Illustrator 19.1.0, SVG Export Plug-In . SVG Version: 6.00 Build 0)  -->
<svg version="1.1" id="Layer_1" xmlns="http://www.w3.org/2000/svg" xmlns:xlink="http://www.w3.org/1999/xlink" x="0px" y="0px"
	 viewBox="0 0 532.3 532.3" style="enable-background:new 0 0 532.3 532.3;" xml:space="preserve">
<style type="text/css">
	.st0{fill-rule:evenodd;clip-rule:evenodd;}
	.st1{fill:#231F20;}
	.st2{fill:none;stroke:#231F20;stroke-miterlimit:10;}
	.st3{fill:none;stroke:#231F20;stroke-width:24;stroke-miterlimit:10;}
	.st4{fill-rule:evenodd;clip-rule:evenodd;fill:#231F20;}
	.st5{fill:none;stroke:#231F20;stroke-width:28;stroke-miterlimit:10;}
</style>
<g>
	<path class="st4" d="M452.8,79C403,29.1,336.7,1.6,266.2,1.6C195.7,1.6,129.4,29.1,79.5,79C29.6,128.8,2.2,195.1,2.2,265.6
		s27.5,136.8,77.3,186.7c49.9,49.9,116.2,77.3,186.7,77.3c70.5,0,136.8-27.5,186.7-77.3c49.9-49.9,77.3-116.2,77.3-186.7
		S502.7,128.8,452.8,79z M435.9,435.3c-45.3,45.3-105.6,70.3-169.7,70.3s-124.4-25-169.7-70.3S26.2,329.7,26.2,265.6
		s25-124.4,70.3-169.7s105.6-70.3,169.7-70.3s124.4,25,169.7,70.3c45.3,45.3,70.3,105.6,70.3,169.7S481.2,390,435.9,435.3z"/>
	<path class="st4" d="M284.3,272.7V152.2c0-8.8-7.1-15.9-15.9-15.9s-15.9,7.1-15.9,15.9v127.1c0,5.1,2.4,9.6,6.1,12.5
		c0.4,0.5,0.8,1,1.3,1.5l74,74c6.2,6.2,16.3,6.2,22.5,0c6.2-6.2,6.2-16.3,0-22.5L284.3,272.7z"/>
</g>
</svg>
