<?xml version="1.0" encoding="UTF-8" ?>
<!DOCTYPE svg PUBLIC "-//W3C//DTD SVG 1.1//EN" "http://www.w3.org/Graphics/SVG/1.1/DTD/svg11.dtd">
<svg width="550pt" height="550pt" viewBox="0 0 550 550" version="1.1" xmlns="http://www.w3.org/2000/svg">
<path fill="#fefefe" d=" M 0.00 0.00 L 270.22 0.00 C 239.52 1.08 209.28 12.74 186.02 32.84 C 163.18 52.27 147.04 79.41 140.98 108.79 C 137.18 127.00 137.14 146.00 140.96 164.21 C 142.84 172.68 144.97 181.21 148.93 188.98 C 174.45 241.56 199.76 294.24 225.35 346.79 C 182.58 346.77 139.81 346.80 97.04 346.77 C 64.68 414.50 32.32 482.23 0.01 549.99 L 0.97 550.00 L 0.00 550.00 L 0.00 0.00 Z" />
<path fill="#040404" d=" M 270.22 0.00 L 280.59 0.00 C 311.02 1.34 340.94 12.90 363.99 32.88 C 386.31 51.88 402.25 78.25 408.58 106.88 C 414.41 132.89 412.50 160.70 402.70 185.51 C 376.71 239.29 350.74 293.08 324.62 346.79 C 367.40 346.76 410.17 346.79 452.95 346.77 C 485.34 414.50 517.62 482.28 550.04 550.00 L 0.97 550.00 L 0.01 549.99 C 32.32 482.23 64.68 414.50 97.04 346.77 C 139.81 346.80 182.58 346.77 225.35 346.79 C 199.76 294.24 174.45 241.56 148.93 188.98 C 144.97 181.21 142.84 172.68 140.96 164.21 C 137.14 146.00 137.18 127.00 140.98 108.79 C 147.04 79.41 163.18 52.27 186.02 32.84 C 209.28 12.74 239.52 1.08 270.22 0.00 Z" />
<path fill="#fefefe" d=" M 280.59 0.00 L 550.00 0.00 L 550.00 550.00 L 550.04 550.00 C 517.62 482.28 485.34 414.50 452.95 346.77 C 410.17 346.79 367.40 346.76 324.62 346.79 C 350.74 293.08 376.71 239.29 402.70 185.51 C 412.50 160.70 414.41 132.89 408.58 106.88 C 402.25 78.25 386.31 51.88 363.99 32.88 C 340.94 12.90 311.02 1.34 280.59 0.00 Z" />
<path fill="#fefefe" d=" M 269.19 88.26 C 283.17 86.47 297.84 91.20 308.13 100.84 C 318.16 109.97 324.17 123.44 323.90 137.03 C 324.07 149.83 318.65 162.51 309.58 171.51 C 300.57 180.60 287.83 185.92 275.02 185.81 C 260.56 185.96 246.29 179.15 237.17 167.96 C 227.97 156.97 224.24 141.87 226.85 127.81 C 230.44 107.30 248.43 90.35 269.19 88.26 Z" />
<path fill="#fefefe" d=" M 109.30 366.22 C 135.40 366.27 161.50 366.25 187.60 366.23 C 187.57 373.05 187.55 379.87 187.62 386.69 C 172.20 386.88 156.61 388.81 142.16 394.41 C 130.07 398.93 119.42 406.40 109.27 414.23 C 100.49 421.11 90.67 427.36 79.36 428.76 C 89.41 407.95 99.22 387.01 109.30 366.22 Z" />
<path fill="#fefefe" d=" M 197.31 366.24 C 209.75 366.23 222.20 366.28 234.65 366.21 C 245.61 388.58 256.35 411.06 267.24 433.46 C 269.61 438.19 271.68 443.08 274.38 447.65 C 274.80 447.91 275.64 448.43 276.06 448.69 C 276.02 446.87 277.07 445.32 277.75 443.72 C 290.37 417.92 302.72 392.00 315.35 366.21 C 327.00 366.27 338.64 366.26 350.28 366.21 C 351.45 379.99 357.53 393.80 368.84 402.18 C 384.53 414.13 404.80 417.37 423.98 418.82 C 438.03 419.91 452.14 419.73 466.22 419.68 C 473.82 435.34 481.22 451.09 488.77 466.77 C 486.34 477.80 476.06 484.46 466.21 488.29 C 447.99 495.18 428.30 496.69 409.00 497.44 C 385.49 498.18 361.63 496.85 338.96 490.12 C 319.01 484.37 300.51 473.88 285.23 459.84 C 281.21 456.48 278.01 452.25 273.80 449.13 C 270.90 444.78 267.10 441.15 263.83 437.09 C 252.04 423.29 241.03 408.31 225.81 398.02 C 217.33 392.23 207.46 388.59 197.28 387.30 C 197.39 380.28 197.33 373.26 197.31 366.24 Z" />
<path fill="#fefefe" d=" M 359.92 366.28 C 386.84 366.18 413.76 366.31 440.68 366.21 C 447.79 380.80 454.68 395.49 461.69 410.13 C 440.37 409.90 418.71 410.30 397.87 405.12 C 386.02 402.03 373.92 396.49 366.81 386.08 C 362.76 380.24 360.85 373.25 359.92 366.28 Z" />
<path fill="#fefefe" d=" M 130.18 411.27 C 147.16 400.32 167.66 396.57 187.59 396.41 C 187.59 441.13 187.53 485.85 187.62 530.57 C 135.31 530.55 83.00 530.59 30.68 530.55 C 45.53 500.02 59.92 469.27 74.67 438.69 C 83.06 438.48 91.42 436.45 98.89 432.60 C 110.22 426.88 119.40 417.88 130.18 411.27 Z" />
<path fill="#fefefe" d=" M 197.31 397.03 C 208.15 398.47 218.30 403.47 226.56 410.57 C 238.79 421.01 248.29 434.11 258.81 446.17 C 271.37 460.99 285.60 474.70 302.40 484.64 C 321.37 496.12 343.04 502.50 364.91 505.37 C 386.15 508.05 407.67 507.80 428.96 505.92 C 443.46 504.50 458.06 502.06 471.60 496.47 C 480.58 492.69 489.17 487.00 494.33 478.54 C 502.72 495.84 510.80 513.29 519.30 530.54 C 411.96 530.60 304.61 530.56 197.27 530.56 C 197.37 486.05 197.29 441.54 197.31 397.03 Z" />
</svg>
