<?xml version="1.0" encoding="utf-8"?>
<!-- Generator: Adobe Illustrator 19.2.1, SVG Export Plug-In . SVG Version: 6.00 Build 0)  -->
<svg version="1.1" id="Layer_1" xmlns="http://www.w3.org/2000/svg" xmlns:xlink="http://www.w3.org/1999/xlink" x="0px" y="0px"
	 viewBox="0 0 532.3 532.3" style="enable-background:new 0 0 532.3 532.3;" xml:space="preserve">
<style type="text/css">
	.st0{fill-rule:evenodd;clip-rule:evenodd;}
	.st1{fill:#231F20;}
	.st2{fill:none;stroke:#231F20;stroke-miterlimit:10;}
	.st3{fill:none;stroke:#231F20;stroke-width:24;stroke-miterlimit:10;}
	.st4{fill-rule:evenodd;clip-rule:evenodd;fill:#231F20;}
	.st5{fill:none;stroke:#231F20;stroke-width:28;stroke-miterlimit:10;}
	.st6{fill:none;stroke:#231F20;stroke-width:4;stroke-linecap:round;stroke-miterlimit:10;}
	
		.st7{fill:none;stroke:#231F20;stroke-width:4;stroke-linecap:round;stroke-miterlimit:10;stroke-dasharray:1.0017,12.0202,1.0017,12.0202;}
	
		.st8{fill:none;stroke:#231F20;stroke-width:4;stroke-linecap:round;stroke-miterlimit:10;stroke-dasharray:1.0017,12.0202,1.0017,12.0202,1.0017,12.0202;}
	.st9{fill:#FFFFFF;}
</style>
<g>
	<g>
		<path class="st1" d="M231.9,377.9h184.2c3.6,0,6.5-2.9,6.5-6.5v-13.2c0-3.6-2.9-6.5-6.5-6.5H231.9c-3.6,0-6.5,2.9-6.5,6.5v13.2
			C225.4,374.9,228.3,377.9,231.9,377.9z M438,388.8H210c-3.6,0-6.5,2.9-6.5,6.5v13.1c0,3.6,2.9,6.5,6.5,6.5H438
			c3.6,0,6.5-2.9,6.5-6.5v-13.1C444.6,391.7,441.7,388.8,438,388.8z M460.8,303.7l63.7-29.3c7.7-3.5,11-12.6,7.5-20.3
			c-3.6-7.7-12.7-11-20.4-7.5L448,275.9c-7.7,3.5-11,12.6-7.5,20.3C444,303.9,453.1,307.2,460.8,303.7z M523.4,349.1l-63.6-28.9
			c-7.7-3.5-16.8-0.2-20.3,7.4c-3.5,7.5-0.2,16.5,7.5,20l63.6,28.9c7.7,3.5,16.8,0.2,20.3-7.4C534.4,361.6,531,352.6,523.4,349.1z"
			/>
	</g>
</g>
<path class="st4" d="M384.6,257.4c-3.3-8.4-12.9-12.6-21.3-9.3l-7.1,2.8l-44.1-111.9l7.1-2.8c8.5-3.3,12.6-12.8,9.3-21.2
	c-3.3-8.4-12.9-12.6-21.3-9.3l-116.3,45.5c-8.5,3.3-12.6,12.8-9.3,21.2c3.3,8.4,12.9,12.6,21.3,9.3l9.2-3.6l16,40.7L13.9,302.8
	c-7.9,3.1-11.8,12-8.7,19.8c3.1,7.9,12,11.7,19.9,8.6l214.3-83.9l16.8,42.7l-9.2,3.6c-8.5,3.3-12.6,12.8-9.3,21.2
	c3.3,8.4,12.9,12.6,21.3,9.3l116.3-45.5C383.8,275.4,387.9,265.9,384.6,257.4z"/>
</svg>
