<?xml version="1.0" encoding="utf-8"?>
<!-- Generator: Adobe Illustrator 19.2.1, SVG Export Plug-In . SVG Version: 6.00 Build 0)  -->
<svg version="1.1" id="Layer_1" xmlns="http://www.w3.org/2000/svg" xmlns:xlink="http://www.w3.org/1999/xlink" x="0px" y="0px"
	 viewBox="0 0 532.3 532.3" style="enable-background:new 0 0 532.3 532.3;" xml:space="preserve">
<style type="text/css">
	.st0{fill-rule:evenodd;clip-rule:evenodd;}
	.st1{fill:#231F20;}
	.st2{fill:none;stroke:#231F20;stroke-miterlimit:10;}
	.st3{fill:none;stroke:#231F20;stroke-width:24;stroke-miterlimit:10;}
	.st4{fill-rule:evenodd;clip-rule:evenodd;fill:#231F20;}
	.st5{fill:none;stroke:#231F20;stroke-width:28;stroke-miterlimit:10;}
	.st6{fill:none;stroke:#231F20;stroke-width:4;stroke-linecap:round;stroke-miterlimit:10;}
	
		.st7{fill:none;stroke:#231F20;stroke-width:4;stroke-linecap:round;stroke-miterlimit:10;stroke-dasharray:1.0017,12.0202,1.0017,12.0202;}
	
		.st8{fill:none;stroke:#231F20;stroke-width:4;stroke-linecap:round;stroke-miterlimit:10;stroke-dasharray:1.0017,12.0202,1.0017,12.0202,1.0017,12.0202;}
</style>
<g>
	<g>
		<path class="st1" d="M442.7,363.5c-23.9-5.3-69.4-23.8-73.1-24.8c-3.9-1.2-32.9-9.6-50.9,10.2c-11.6,12.7-17.6,19.9-19.6,22.4
			c-2,1.5-9.6,5.9-19.1-1.1c-20.3-14.8-91.7-75.4-111-108.9c-4.2-11.1-1.4-14.3,0.7-16.6c3.3-3.8,8.9-9.1,14.9-14.8
			c3.3-3.2,6.7-6.5,10.1-9.8c13.1-12.9,15.5-25.2,9-45.4c-5.4-16.8-21.2-74.3-21.3-74.9l-0.4-1.2c-0.5-1.3-13.7-32-54.8-31
			c-34.8,0.8-57.9,8.1-80.5,44.3c-7.4,11.8-23.4,45-13.8,98.3C43,266.6,78.2,327.8,137.5,392.3c83,90.3,161.9,111.8,213.5,114
			c3.1,0.1,6.2,0.2,9.2,0.2c43.7,0,74.2-13.5,87.5-25.7c24.7-22.6,29.5-27.9,30.5-43.4C480.9,394.1,475.5,370.8,442.7,363.5z
			 M456.5,436.1c-0.4,7.7-0.9,8.2-23.6,29c-11.6,10.7-42,21.5-81,19.8c-47.5-2-120.4-22.2-198.4-107C13.3,225.3,55.2,138.9,65,123.1
			c16-25.7,30.1-33.4,62.5-34.1c0.4,0,0.9,0,1.3,0c23,0,31.4,14.6,32.7,17.3c2,7.5,16.1,58.6,21.4,75c4.7,14.6,2.3,17.8-3.7,23.7
			c-3.3,3.2-6.6,6.5-9.9,9.6c-6.2,6-12.1,11.7-16.1,16.1c-9.3,10.5-10.7,23-4.3,39.2l0.6,1.3C171.4,310,248.3,373.8,267,387.5
			c20.1,14.7,39.6,6,47.1-0.6l0.7-0.6l0.6-0.8c0.1-0.1,5.6-7.1,19.4-22.2c9.2-10.1,28-4.1,28.1-4.1l0.6,0.2
			c2,0.5,50.1,18.8,75.2,25.3C460,390.2,457.9,410.2,456.5,436.1z M283.9,161c54,0,98,43.4,98,96.8c0,5.9,4.9,10.7,10.9,10.7
			c6,0,10.9-4.8,10.9-10.7c0-65.2-53.7-118.2-119.7-118.2c-6,0-10.9,4.8-10.9,10.7C273.1,156.2,277.9,161,283.9,161z M291.7,109.6
			c78.4,0,142.2,63,142.2,140.5c0,5.9,4.9,10.7,10.9,10.7s10.9-4.8,10.9-10.7c0-89.3-73.5-161.9-163.9-161.9
			c-6,0-10.9,4.8-10.9,10.7C280.8,104.8,285.7,109.6,291.7,109.6z M301.5,38.3c-6,0-10.9,4.8-10.9,10.7c0,5.9,4.9,10.7,10.9,10.7
			c100.9,0,182.9,81,182.9,180.7c0,5.9,4.9,10.7,10.9,10.7s10.9-4.8,10.9-10.7C506.1,128.9,414.3,38.3,301.5,38.3z"/>
	</g>
</g>
</svg>
