<?xml version="1.0" encoding="utf-8"?>
<!-- Generator: Adobe Illustrator 19.2.1, SVG Export Plug-In . SVG Version: 6.00 Build 0)  -->
<svg version="1.1" id="Layer_1" xmlns="http://www.w3.org/2000/svg" xmlns:xlink="http://www.w3.org/1999/xlink" x="0px" y="0px"
	 viewBox="0 0 532.3 532.3" style="enable-background:new 0 0 532.3 532.3;" xml:space="preserve">
<style type="text/css">
	.st0{fill-rule:evenodd;clip-rule:evenodd;}
	.st1{fill:#231F20;}
	.st2{fill:none;stroke:#231F20;stroke-miterlimit:10;}
	.st3{fill:none;stroke:#231F20;stroke-width:24;stroke-miterlimit:10;}
	.st4{fill-rule:evenodd;clip-rule:evenodd;fill:#231F20;}
	.st5{fill:none;stroke:#231F20;stroke-width:28;stroke-miterlimit:10;}
	.st6{fill:none;stroke:#231F20;stroke-width:4;stroke-linecap:round;stroke-miterlimit:10;}
	
		.st7{fill:none;stroke:#231F20;stroke-width:4;stroke-linecap:round;stroke-miterlimit:10;stroke-dasharray:1.0017,12.0202,1.0017,12.0202;}
	
		.st8{fill:none;stroke:#231F20;stroke-width:4;stroke-linecap:round;stroke-miterlimit:10;stroke-dasharray:1.0017,12.0202,1.0017,12.0202,1.0017,12.0202;}
</style>
<path class="st1" d="M464,74.7H46.2c-14.9,0-27,12.1-27,27v335.6c0,14.9,12.1,27,27,27h356.8c7.5,0,13.5-6.1,13.5-13.5
	s-6.1-13.5-13.5-13.5H46.2V101.8H464v268.9c0,7.5,6.1,13.5,13.5,13.5c7.5,0,13.5-6.1,13.5-13.5V101.8
	C491.1,86.9,478.9,74.7,464,74.7z"/>
<g>
	<g>
		<path class="st4" d="M42.8,92.8v57.4h425.7V92.8H42.8z M78.3,127.7c-5.9,0-10.7-4.8-10.7-10.7s4.8-10.7,10.7-10.7
			c5.9,0,10.7,4.8,10.7,10.7S84.2,127.7,78.3,127.7z M109.8,127.7c-5.9,0-10.7-4.8-10.7-10.7s4.8-10.7,10.7-10.7
			c5.9,0,10.7,4.8,10.7,10.7S115.7,127.7,109.8,127.7z M142.5,127.7c-5.9,0-10.7-4.8-10.7-10.7s4.8-10.7,10.7-10.7
			c5.9,0,10.7,4.8,10.7,10.7S148.4,127.7,142.5,127.7z"/>
	</g>
</g>
<g>
	<g>
		<path class="st4" d="M487.9,446.8l31.2-32.2c3.3-3.1,3.3-8.1,0-11.1c-3.3-3.1-8.6-3.1-11.8,0l-29.1,30l-29.9-32.9
			c-3.3-3.1-8.6-3.1-11.8,0s-3.3,8.1,0,11.1l31.6,34.7l-34.1,32.2c-3.2,3-3.2,8,0,11c3.2,3,8.4,3,11.6,0l32.1-30.3l29.5,30
			c3.2,3,8.4,3,11.6,0c3.2-3,3.2-8,0-11L487.9,446.8z"/>
	</g>
</g>
</svg>
