<?xml version="1.0" encoding="utf-8"?>
<!-- Generator: Adobe Illustrator 19.1.0, SVG Export Plug-In . SVG Version: 6.00 Build 0)  -->
<svg version="1.1" id="Layer_1" xmlns="http://www.w3.org/2000/svg" xmlns:xlink="http://www.w3.org/1999/xlink" x="0px" y="0px"
	 viewBox="0 0 532.3 532.3" style="enable-background:new 0 0 532.3 532.3;" xml:space="preserve">
<style type="text/css">
	.st0{fill-rule:evenodd;clip-rule:evenodd;}
	.st1{fill:#231F20;}
	.st2{fill:none;stroke:#231F20;stroke-miterlimit:10;}
	.st3{fill:none;stroke:#231F20;stroke-width:24;stroke-miterlimit:10;}
	.st4{fill-rule:evenodd;clip-rule:evenodd;fill:#231F20;}
	.st5{fill:none;stroke:#231F20;stroke-width:28;stroke-miterlimit:10;}
</style>
<g>
	<path class="st1" d="M485.7,200H46.1C21.2,200,1,220.3,1,245.1l0.5,242.1c0,24.9,20.2,45.1,45.1,45.1h439.6
		c24.9,0,45.1-20.2,45.1-45.1V245.1C531.3,220.3,510.6,200,485.7,200z M39.8,228.6H492c6.6,0,12.5,5.4,12.5,12v64.3
		c-38.2-9.8-82.8,5.5-85,6.3l-0.8,0.3c-0.5,0.2-47.7,22.1-97.2-0.1c-48.1-21.6-98.7-1-100.9-0.1l-0.5,0.2
		c-0.5,0.3-51.6,25.4-94.5,0.2c-35.4-20.7-75.7-12.6-97.9-5.9l-0.1-65.3C27.8,234,33.1,228.6,39.8,228.6z M492.6,503.8H40.3
		c-6.6,0-12-5.4-12-12l-0.4-170.2c18.9-6.1,57.8-15.9,90.2,3.1c17.1,10,34.9,13.3,51.1,13.3c29.9,0,54.1-11.3,57.4-13
		c3.3-1.3,48-18.2,88.8,0c19,8.5,37.6,11.4,53.8,11.4c29.8,0,52-9.6,55.6-11.3c4.2-1.4,46.9-15.1,79.7-4.7v171.3
		C504.6,498.4,499.2,503.8,492.6,503.8z"/>
	<rect x="109.4" y="57" class="st1" width="33" height="120"/>
	<rect x="389.9" y="57" class="st1" width="33" height="120"/>
	<rect x="249.7" y="57" class="st1" width="33" height="120"/>
	<path class="st1" d="M125.9,47.4c9.1,0,16.5-7.4,16.5-16.5S125.9,4.4,125.9,4.4s-16.5,17.4-16.5,26.5S116.8,47.4,125.9,47.4z"/>
	<path class="st1" d="M266.1,47.4c9.1,0,16.5-7.4,16.5-16.5S266.1,4.4,266.1,4.4s-16.5,17.4-16.5,26.5S256.9,47.4,266.1,47.4z"/>
	<path class="st1" d="M406.4,47.4c9.1,0,16.5-7.4,16.5-16.5S406.4,4.4,406.4,4.4s-16.5,17.4-16.5,26.5S397.3,47.4,406.4,47.4z"/>
</g>
</svg>
