<?xml version="1.0" encoding="utf-8"?>
<!-- Generator: Adobe Illustrator 19.2.1, SVG Export Plug-In . SVG Version: 6.00 Build 0)  -->
<svg version="1.1" id="Layer_1" xmlns="http://www.w3.org/2000/svg" xmlns:xlink="http://www.w3.org/1999/xlink" x="0px" y="0px"
	 viewBox="0 0 532.3 532.3" style="enable-background:new 0 0 532.3 532.3;" xml:space="preserve">
<style type="text/css">
	.st0{fill-rule:evenodd;clip-rule:evenodd;}
	.st1{fill:#231F20;}
	.st2{fill:none;stroke:#231F20;stroke-miterlimit:10;}
	.st3{fill:none;stroke:#231F20;stroke-width:24;stroke-miterlimit:10;}
	.st4{fill-rule:evenodd;clip-rule:evenodd;fill:#231F20;}
	.st5{fill:none;stroke:#231F20;stroke-width:28;stroke-miterlimit:10;}
	.st6{fill:none;stroke:#231F20;stroke-width:4;stroke-linecap:round;stroke-miterlimit:10;}
	
		.st7{fill:none;stroke:#231F20;stroke-width:4;stroke-linecap:round;stroke-miterlimit:10;stroke-dasharray:1.0017,12.0202,1.0017,12.0202;}
	
		.st8{fill:none;stroke:#231F20;stroke-width:4;stroke-linecap:round;stroke-miterlimit:10;stroke-dasharray:1.0017,12.0202,1.0017,12.0202,1.0017,12.0202;}
	.st9{fill:#FFFFFF;}
</style>
<g>
	<g>
		<path class="st1" d="M519.4,157.4c-6.2-1.9-252.5-78.6-252.5-78.6L4.3,161.2c0,0-11,8.1,2.4,13.9s76.1,24.4,76.1,24.4
			s-24.4,33-22,74.7c0,0.2,0,0.4,0,0.6c-9.4,5-15.8,15-15.8,26.4c0,10.5,5.5,19.8,13.7,25.1l-13.2,93.4c0,0-6.2,16.2,9.6,16.2
			s30.6,0,40.7,0s9.1-9,8.1-16.2c-0.7-5-8.5-60-13.2-93.1c8.5-5.3,14.2-14.7,14.2-25.5c0-11.2-6.2-21-15.3-26.1
			c0.3-5.3,3.6-52.5,24.4-66.1c22.5,6.7,153,48.3,153,48.3s227.2-71.8,254.9-80.9C543.8,170.8,525.6,159.3,519.4,157.4z
			 M280.3,282.8c-15.8,5.1-31,0-31,0L123,242.1c0,0-2.4,33-4.8,77.6c20.1,55.1,145.5,54.6,145.5,54.6s127.7,0.5,147.8-54.6
			c-2.4-44.5-4.8-77.6-4.8-77.6L280.3,282.8z"/>
	</g>
</g>
</svg>
