<?xml version="1.0" encoding="utf-8"?>
<!-- Generator: Adobe Illustrator 19.1.0, SVG Export Plug-In . SVG Version: 6.00 Build 0)  -->
<svg version="1.1" id="Layer_1" xmlns="http://www.w3.org/2000/svg" xmlns:xlink="http://www.w3.org/1999/xlink" x="0px" y="0px"
	 viewBox="0 0 532.3 532.3" style="enable-background:new 0 0 532.3 532.3;" xml:space="preserve">
<style type="text/css">
	.st0{fill-rule:evenodd;clip-rule:evenodd;}
	.st1{fill:#231F20;}
	.st2{fill:none;stroke:#231F20;stroke-miterlimit:10;}
	.st3{fill:none;stroke:#231F20;stroke-width:24;stroke-miterlimit:10;}
	.st4{fill-rule:evenodd;clip-rule:evenodd;fill:#231F20;}
</style>
<g>
	<path class="st1" d="M267.2,44.7C121,44.7,2.1,141,2.1,259.5c0,44.2,16.1,86.2,46.8,122.1L30,475.7c-1.5,7.3,1,14.8,6.5,19.8
		c3.9,3.6,9,5.4,14.1,5.4c2.1,0,4.2-0.3,6.2-0.9l122.5-37.8c28.2,8,57.7,12.1,87.8,12.1c146.2,0,265.1-96.4,265.1-214.8
		C532.3,141,413.4,44.7,267.2,44.7z M267.2,432.1c-28.1,0-55.6-4.1-81.7-12.1c-4.1-1.2-8.4-1.2-12.4,0l-94.7,29.2l14-69.7
		c1.3-6.7-0.6-13.6-5.3-18.6c-28-29.7-42.7-64.8-42.7-101.4c0-95.2,100-172.6,222.9-172.6s222.9,77.4,222.9,172.6
		C490.1,354.7,390.1,432.1,267.2,432.1z"/>
	<path class="st1" d="M290.3,128C163.5,119.4,98.2,237.2,95.5,242.2c-2.8,5.1-0.9,11.5,4.2,14.3c1.6,0.9,3.3,1.3,5,1.3
		c3.8,0,7.4-2,9.3-5.5c0.6-1.1,61.6-110.7,174.8-103.2c6,0.5,10.8-4,11.2-9.8C300.5,133.4,296.1,128.4,290.3,128z"/>
</g>
</svg>
