<?xml version="1.0" encoding="utf-8"?>
<!-- Generator: Adobe Illustrator 19.1.0, SVG Export Plug-In . SVG Version: 6.00 Build 0)  -->
<svg version="1.1" id="Layer_1" xmlns="http://www.w3.org/2000/svg" xmlns:xlink="http://www.w3.org/1999/xlink" x="0px" y="0px"
	 viewBox="0 0 532.3 532.3" style="enable-background:new 0 0 532.3 532.3;" xml:space="preserve">
<style type="text/css">
	.st0{fill-rule:evenodd;clip-rule:evenodd;}
	.st1{fill:#231F20;}
	.st2{fill:none;stroke:#231F20;stroke-miterlimit:10;}
	.st3{fill:none;stroke:#231F20;stroke-width:24;stroke-miterlimit:10;}
	.st4{fill-rule:evenodd;clip-rule:evenodd;fill:#231F20;}
	.st5{fill:none;stroke:#231F20;stroke-width:28;stroke-miterlimit:10;}
</style>
<g>
	<g>
		<path class="st4" d="M95.4,148.4c-28.1,0-50.9,22.8-50.9,50.8c0,28.1,22.8,50.8,50.9,50.8c28.1,0,50.9-22.8,50.9-50.8
			C146.3,171.2,123.5,148.4,95.4,148.4z M437,148.4c-28.1,0-50.9,22.8-50.9,50.8c0,28.1,22.8,50.8,50.9,50.8
			c28.1,0,50.9-22.8,50.9-50.8C487.9,171.2,465.1,148.4,437,148.4z M266.2,148.4c-28.1,0-50.9,22.8-50.9,50.8
			c0,28.1,22.8,50.8,50.9,50.8s50.9-22.8,50.9-50.8C317.1,171.2,294.3,148.4,266.2,148.4z M95.4,4.4c-28.1,0-50.9,22.8-50.9,50.8
			c0,28.1,22.8,50.8,50.9,50.8c28.1,0,50.9-22.8,50.9-50.8C146.3,27.2,123.5,4.4,95.4,4.4z M437,106.1c28.1,0,50.9-22.8,50.9-50.8
			c0-28.1-22.8-50.8-50.9-50.8c-28.1,0-50.9,22.8-50.9,50.8C386.1,83.3,408.9,106.1,437,106.1z M266.2,4.4
			c-28.1,0-50.9,22.8-50.9,50.8c0,28.1,22.8,50.8,50.9,50.8s50.9-22.8,50.9-50.8C317.1,27.2,294.3,4.4,266.2,4.4z M95.4,292.4
			c-28.1,0-50.9,22.8-50.9,50.8s22.8,50.8,50.9,50.8c28.1,0,50.9-22.8,50.9-50.8S123.5,292.4,95.4,292.4z M437,292.4
			c-28.1,0-50.9,22.8-50.9,50.8s22.8,50.8,50.9,50.8c28.1,0,50.9-22.8,50.9-50.8S465.1,292.4,437,292.4z M266.2,292.4
			c-28.1,0-50.9,22.8-50.9,50.8s22.8,50.8,50.9,50.8s50.9-22.8,50.9-50.8S294.3,292.4,266.2,292.4z M266.2,427.9
			c-28.1,0-50.9,22.8-50.9,50.8c0,28.1,22.8,50.8,50.9,50.8s50.9-22.8,50.9-50.8C317.1,450.7,294.3,427.9,266.2,427.9z"/>
	</g>
</g>
</svg>
