<?xml version="1.0" encoding="utf-8"?>
<!-- Generator: Adobe Illustrator 19.1.0, SVG Export Plug-In . SVG Version: 6.00 Build 0)  -->
<svg version="1.1" id="Layer_1" xmlns="http://www.w3.org/2000/svg" xmlns:xlink="http://www.w3.org/1999/xlink" x="0px" y="0px"
	 viewBox="0 0 532.3 532.3" style="enable-background:new 0 0 532.3 532.3;" xml:space="preserve">
<style type="text/css">
	.st0{fill-rule:evenodd;clip-rule:evenodd;}
	.st1{fill:#231F20;}
	.st2{fill:none;stroke:#231F20;stroke-miterlimit:10;}
	.st3{fill:none;stroke:#231F20;stroke-width:24;stroke-miterlimit:10;}
	.st4{fill-rule:evenodd;clip-rule:evenodd;fill:#231F20;}
	.st5{fill:none;stroke:#231F20;stroke-width:28;stroke-miterlimit:10;}
</style>
<g>
	<g>
		<path class="st1" d="M513.1,0H19.2C8.6,0,0,8.6,0,19.2v493.9c0,10.6,8.6,19.2,19.2,19.2h493.9c10.6,0,19.2-8.6,19.2-19.2V19.2
			C532.3,8.6,523.7,0,513.1,0z M506.7,500.5c0,3.9-3.1,6.2-6.2,6.2H31.9c-4.2,0-6.2-3.6-6.2-6.2V31.9c0-3.2,2.9-6.2,6.2-6.2h468.6
			c3.4,0,6.2,2.4,6.2,6.2V500.5z M397.6,115.4h-263c-10.6,0-19.2,8.6-19.2,19.2v263c0,10.6,8.6,19.2,19.2,19.2h263
			c10.6,0,19.2-8.6,19.2-19.2v-263C416.9,124.1,408.3,115.4,397.6,115.4z M350.8,280.9c-5,19.5-7.2,28.3-7.2,28.3h-35.9v107.7H279
			V309.2h-35.9v-28.7H279c0,0,0-30.7,0-35.9c0-5.2-4-35.8,37.6-35.8h34.1c0,15.1,0,23.9,0,28.6h-35.9c-4.7,0-7.2,3.6-7.2,7.2
			c0,3.6,0,35.9,0,35.9S346.9,280.9,350.8,280.9z"/>
	</g>
</g>
</svg>
