<?xml version="1.0" encoding="utf-8"?>
<!-- Generator: Adobe Illustrator 19.1.0, SVG Export Plug-In . SVG Version: 6.00 Build 0)  -->
<svg version="1.1" id="Layer_1" xmlns="http://www.w3.org/2000/svg" xmlns:xlink="http://www.w3.org/1999/xlink" x="0px" y="0px"
	 viewBox="0 0 532.3 532.3" style="enable-background:new 0 0 532.3 532.3;" xml:space="preserve">
<style type="text/css">
	.st0{fill-rule:evenodd;clip-rule:evenodd;}
	.st1{fill:#231F20;}
	.st2{fill:none;stroke:#231F20;stroke-miterlimit:10;}
	.st3{fill:none;stroke:#231F20;stroke-width:24;stroke-miterlimit:10;}
	.st4{fill-rule:evenodd;clip-rule:evenodd;fill:#231F20;}
</style>
<g>
	<g>
		<path class="st1" d="M309.6,262.8L422,153.4c13.3-13,13.3-34,0-47c-13.3-13-34.9-13-48.3,0L267.2,210.2L160.6,106.4
			c-13.3-13-34.9-13-48.3,0c-13.3,13-13.3,34,0,47l112.4,109.4L115.3,369.9c-13.1,12.8-13.1,33.7,0,46.5c13.1,12.8,34.4,12.8,47.5,0
			l104.4-102.2l104.4,102.2c13.1,12.8,34.4,12.8,47.5,0c13.1-12.8,13.1-33.7,0-46.5L309.6,262.8z"/>
	</g>
</g>
</svg>
