<?xml version="1.0" encoding="utf-8"?>
<!-- Generator: Adobe Illustrator 19.1.0, SVG Export Plug-In . SVG Version: 6.00 Build 0)  -->
<svg version="1.1" id="Layer_1" xmlns="http://www.w3.org/2000/svg" xmlns:xlink="http://www.w3.org/1999/xlink" x="0px" y="0px"
	 viewBox="0 0 532.3 532.3" style="enable-background:new 0 0 532.3 532.3;" xml:space="preserve">
<style type="text/css">
	.st0{fill-rule:evenodd;clip-rule:evenodd;}
	.st1{fill:#231F20;}
	.st2{fill:none;stroke:#231F20;stroke-miterlimit:10;}
	.st3{fill:none;stroke:#231F20;stroke-width:24;stroke-miterlimit:10;}
	.st4{fill-rule:evenodd;clip-rule:evenodd;fill:#231F20;}
	.st5{fill:none;stroke:#231F20;stroke-width:28;stroke-miterlimit:10;}
</style>
<g>
	<path class="st4" d="M130,452.1c20.9,61.1,133.6,76,160.3,55.4c3.7-2.9,5.4-28.9,19.4-36.1c13.9-7.2,23.1-6.4,50.1-17.8
		c28.6-12.2,61.4-29.8,70.3-39.8c8.2-9.3,15.6-28.4,23.5-43.7c8.6-16.6,17.3-29.2,17.4-37.1c0.1-8.3-6.5-19.1-10-34.7
		c-3-13.1-0.2-27.3-5.8-34.7c-6.5-8.6-40.6,6.5-40,52.5c-10.6,13.5-15.8,26.2-15.8,26.2l-6.5-2.1c0,0.1,0.5-88.4,11.5-119.5
		c4.9-13.9,16.1-44.1,31.5-78.1c6.2-13.9,11.4-29.2,14.8-43.3l0.2-0.2c0.2-1.3,0.9-4.8,1.2-6.2c0.4-1.7,1.1-3.4,0.9-5.4
		c0,0,1.5-0.5,3.4-2.3c1.9-1.7,3.8-3.8,3.8-3.8l-8.8,17.3l38.1-36.6L412.7,0l-2.9,35.2c-0.2,0.1-72.5,0-125.9,14.3
		c-63.5,17-116,39.1-115.6,40.6c0.2,1,61.3-14.8,135.3-15.2c40.7-0.2,78.6,7.5,98.4,12.3l-0.4-0.1l12.7-13.4l0.7,1.5L409,89
		l-0.4-0.1c0.1,0,0.2,0.1,0.3,0.1c-0.5,1.1-1.1,2.3-1.7,3.4c-6,11.7-19.7,22.6-25.1,33.3c-9.5,18.7-18.1,32.5-18.5,32.3
		c-0.1-0.1-0.2-0.3-0.3-0.7c0,0.8,0,1.3,0,1.3s-19.2,33.8-22.1,37.9c-0.7,1,0.2-12.7,1.3-20.3c1.5-10.8,6.6-26.1,6.7-34.6
		c0.1-11.8-3.9-16.4-0.3-17.9c-1-0.8-2-1.5-3.1-2.2c-10.7-6.8-28.1,3.1-37.1,8.8c-19.9,12.6-23.4,20.4-23.7,21.7c0,0,0,0,0,0
		c0,0,0,0,0,0c0.8-0.7,1.2-0.9,1.2-0.9s-5.4,18.6-10.8,31c-5.3,12.5-10.1,21.6-10.1,21.6c2-6.7,1.4-3.5,2.9-8.3
		c8-25.7,5.4-24.5,9.3-32.6c3-6.4,5.8-9.4,7.4-10.8c0,0,0,0,0-0.1c-0.5-0.2-14.9-5.5-26.7,0.3c-19.1,9.4-27.2,29.7-27.2,32.6
		c0.2-0.1,0.4-0.2,0.4-0.2s-7,16.2-10.6,21.6c-3.6,5.5-7.7,7.1-7.7,7.1c4.6-4,5.4-6.2,6.3-8.3c4.9-11.5,2.7-11.1,5.4-14.7
		c2.3-3,4.7-4.6,5.8-5.3c-1.8-0.7-8.9-3-18.6-0.4c-24.6,6.7-28.9,33.4-36,44.3c-13.9,21.4-40.2,118.9-37.6,154.6
		C139.7,402.1,119.5,421.4,130,452.1z M415.1,75c-1.8-3.7-3-7.8-3.1-12.2c-0.3-15.2,11.5-27.4,26.4-27.2c14.9,0.2,27.3,12.8,27.6,28
		c0.2,10.2-5,18.9-13,23.6c2.8-16.8,2-30.2-4.1-34.3C429.4,39.7,423.3,55.1,415.1,75z"/>
	<path class="st4" d="M348.9,123.8c6.1,4.8,9.5,10.6,11.4,16.1C358.4,136.6,356.4,133.4,348.9,123.8z"/>
</g>
</svg>
