<?xml version="1.0" encoding="utf-8"?>
<!-- Generator: Adobe Illustrator 19.1.0, SVG Export Plug-In . SVG Version: 6.00 Build 0)  -->
<svg version="1.1" id="Layer_1" xmlns="http://www.w3.org/2000/svg" xmlns:xlink="http://www.w3.org/1999/xlink" x="0px" y="0px"
	 viewBox="0 0 532.3 532.3" style="enable-background:new 0 0 532.3 532.3;" xml:space="preserve">
<style type="text/css">
	.st0{fill-rule:evenodd;clip-rule:evenodd;}
	.st1{fill:#231F20;}
	.st2{fill:none;stroke:#231F20;stroke-miterlimit:10;}
	.st3{fill:none;stroke:#231F20;stroke-width:24;stroke-miterlimit:10;}
	.st4{fill-rule:evenodd;clip-rule:evenodd;fill:#231F20;}
</style>
<g>
	<path class="st1" d="M437.1,496.9c-2.5,0-5-0.1-7.6-0.4l-247.8-28.9c-17.2-2-32.7-10.6-43.4-24.2c-10.7-13.5-15.5-30.4-13.6-47.5
		l26.8-336l0-0.3c4.2-35.6,36.5-61.2,72.1-57l247.8,28.9c35.5,4.1,61,36.3,57,71.8l-26.8,336l0,0.3
		C497.7,472.5,469.6,496.9,437.1,496.9z M181.5,62.7l-26.8,336l0,0.3c-1.1,9.2,1.5,18.3,7.3,25.6c5.8,7.3,14,11.9,23.3,13L433,466.5
		c19,2.2,36.2-11.4,38.6-30.3l26.8-336l0-0.3c2.2-19.1-11.5-36.4-30.5-38.6L220.1,32.4C201.1,30.2,183.9,43.7,181.5,62.7z"/>
</g>
<path class="st1" d="M162.5,496.4c-5.1-0.6-10-1.7-14.7-3.3l-38.1,3.3c-9.3,0.8-18.3-2-25.4-8c-7.1-6-11.5-14.4-12.3-23.6l0-0.3
	L30.3,130.1c-1.5-19,12.6-35.8,31.7-37.5l62.2-5.4l2.4-30.5l-67.2,5.9C23.6,65.7-2.9,97.3,0.2,133l0,0.3l41.6,334.5
	c1.6,17.2,9.7,32.7,22.9,43.8c13.3,11.2,30.1,16.5,47.4,15l176.2-15.4L162.5,496.4z"/>
</svg>
