<?xml version="1.0" encoding="utf-8"?>
<!-- Generator: Adobe Illustrator 19.1.0, SVG Export Plug-In . SVG Version: 6.00 Build 0)  -->
<svg version="1.1" id="Layer_1" xmlns="http://www.w3.org/2000/svg" xmlns:xlink="http://www.w3.org/1999/xlink" x="0px" y="0px"
	 viewBox="0 0 532.3 532.3" style="enable-background:new 0 0 532.3 532.3;" xml:space="preserve">
<style type="text/css">
	.st0{fill-rule:evenodd;clip-rule:evenodd;}
	.st1{fill:#231F20;}
	.st2{fill:none;stroke:#231F20;stroke-miterlimit:10;}
	.st3{fill:none;stroke:#231F20;stroke-width:24;stroke-miterlimit:10;}
	.st4{fill-rule:evenodd;clip-rule:evenodd;fill:#231F20;}
</style>
<g>
	<path class="st4" d="M455.5,44.1h-80.7v-24c0-11.1-9-20.2-20.2-20.2c-11.1,0-20.2,9-20.2,20.2v24H193.3v-24
		c0-11.1-9-20.2-20.2-20.2C162,0,153,9,153,20.2v24H72.3c-25.7,0-46.6,20.9-46.6,46.6v393.4c0,25.7,20.9,46.6,46.6,46.6h383.3
		c25.7,0,46.6-20.9,46.6-46.6V90.8C502.2,65.1,481.3,44.1,455.5,44.1z M469.4,484.2c0,7.7-6.2,13.9-13.9,13.9H72.3
		c-7.7,0-13.9-6.2-13.9-13.9V90.8c0-7.7,6.2-13.9,13.9-13.9H153v54.2c0,11.1,9,20.2,20.2,20.2c11.1,0,20.2-9,20.2-20.2V76.9h141.2
		v54.2c0,11.1,9,20.2,20.2,20.2c11.1,0,20.2-9,20.2-20.2V76.9h80.7c7.7,0,13.9,6.2,13.9,13.9V484.2z"/>
	<path class="st4" d="M343.1,222.2L242.7,322.6l-49-40.9c-6.9-5.8-17.3-4.9-23.1,2.1c-5.8,6.9-4.9,17.3,2.1,23.1l60.5,50.4
		c3,2.5,6.8,3.8,10.5,3.8c4.2,0,8.4-1.6,11.6-4.8l111-111c6.4-6.4,6.4-16.8,0-23.2C359.9,215.8,349.5,215.8,343.1,222.2z"/>
</g>
</svg>
