<?xml version="1.0" encoding="utf-8"?>
<!-- Generator: Adobe Illustrator 19.1.0, SVG Export Plug-In . SVG Version: 6.00 Build 0)  -->
<svg version="1.1" id="Layer_1" xmlns="http://www.w3.org/2000/svg" xmlns:xlink="http://www.w3.org/1999/xlink" x="0px" y="0px"
	 viewBox="0 0 532.3 532.3" style="enable-background:new 0 0 532.3 532.3;" xml:space="preserve">
<style type="text/css">
	.st0{fill-rule:evenodd;clip-rule:evenodd;}
	.st1{fill:#231F20;}
	.st2{fill:none;stroke:#231F20;stroke-miterlimit:10;}
	.st3{fill-rule:evenodd;clip-rule:evenodd;fill:#231F20;}
	.st4{fill:none;stroke:#231F20;stroke-width:24;stroke-miterlimit:10;}
</style>
<g>
	<path d="M-5066.5,532.2h-139.6c-108.3,0-196.4-88.1-196.4-196.4V196.4c0-108.3,88.1-196.4,196.4-196.4h139.6
		c108.3,0,196.4,88.1,196.4,196.4v139.5C-4870.1,444.1-4958.2,532.2-5066.5,532.2z M-5206.1,26.8c-93.5,0-169.6,76.1-169.6,169.6
		v139.5c0,93.5,76.1,169.6,169.6,169.6h139.6c93.5,0,169.6-76.1,169.6-169.6V196.4c0-93.5-76.1-169.6-169.6-169.6H-5206.1z"/>
</g>
<g>
	<path d="M-4494.3,532.3h-139.6c-108.3,0-196.4-88.1-196.4-196.4V196.5c0-108.3,88.1-196.4,196.4-196.4h139.6
		c108.3,0,196.4,88.1,196.4,196.4V336C-4298,444.3-4386,532.3-4494.3,532.3z M-4633.9,26.9c-93.5,0-169.6,76.1-169.6,169.6V336
		c0,93.5,76.1,169.6,169.6,169.6h139.6c93.5,0,169.6-76.1,169.6-169.6V196.5c0-93.5-76.1-169.6-169.6-169.6H-4633.9z"/>
</g>
<path d="M-5138.1,532.2v-189l-52.5,0l0-63h52.5c0,0,0-43.2,0-52.5c0-9.3-4.2-68.2,76.6-68.2c10.8,0,38.2,0,59.9,0
	c0,27.1,0,54.5,0,62.9c-16.2,0-39,0-47.3,0c-8.3,0-15.8,9.4-15.8,15.8c0,6.4,0,42,0,42s51,0,57.8,0c-2.4,32.7-5.3,63-5.3,63h-52.5
	v189"/>
<g>
	<g>
		<path d="M-4472.2,191.4h-183.9c-5.1,0-9.3,4.1-9.3,9.2v131.4c0,5.1,4.2,9.2,9.3,9.2h183.9c5.2,0,9.3-4.1,9.3-9.2V200.6
			C-4462.9,195.5-4467,191.4-4472.2,191.4z M-4491.3,207.5l-73,55.6l-67.2-55.1L-4491.3,207.5z M-4479.1,312.8l-44.8-43.1
			c-3.7-3.5-9.6-3.4-13.1,0.3c-3.5,3.7-3.4,9.5,0.4,13l45.4,41.9h-145.8l45.5-41.9c3.8-3.5,3.9-9.3,0.4-13
			c-3.5-3.7-9.4-3.9-13.1-0.4l-44.9,43.2v-93.2l79,62.4c1.7,1.4,3.8,2.1,5.9,2.1c2.1,0,4.2-0.7,5.9-2.1l79.3-62.5V312.8z"/>
	</g>
</g>
<g>
	<g>
		<path class="st0" d="M-3759,218.5h-353.5l71.5-120.4c13.1-22.1,5.3-50.3-17.4-63.1c-22.7-12.7-51.8-5.2-64.9,16.9l-108.5,182.6
			c-7.9,8.7-12.1,19.9-11.9,31.2c0,0.1,0,0.2,0,0.3c0,0.1,0,0.2,0,0.3c-0.2,11.4,4,22.6,11.9,31.2l108.5,182.6
			c13.1,22.1,42.2,29.6,64.9,16.9c22.7-12.8,30.5-41,17.4-63.1l-71.5-120.4h353.5c26.2,0,47.5-21.3,47.5-47.5
			C-3711.5,239.7-3732.7,218.5-3759,218.5z"/>
	</g>
</g>
<path class="st0" d="M-3179.3,516.4c0,0-20.7,14.1-223.3,14.1c-202.6,0-209.2-14.1-209.2-14.1c-25.5-36.2-12.7-96.4,12.9-120.6
	c14.1-13.4,122.4-40.5,148.1-46.9c-8.9-4.8-17.1-11.1-25-17.9c-38.1,0-87,0-100.6,0c32.9,0,32.9-148.1,32.9-148.1h0.6
	c-0.3-4.3-0.8-8.7-0.8-13c0-92.8,26.9-168,148-168c121.1,0,148,75.2,148,168c0,4.3-0.5,8.7-0.8,13h0.7c0,0,0,148.1,32.9,148.1
	c-13.6,0-62.5,0-100.6,0c-7.7,6.7-15.7,12.8-24.4,17.6c22.4,5.6,133.9,34,147.8,47.2C-3166.7,420-3154,480.2-3179.3,516.4z
	 M-3214.8,413.3c-19.9-9.7-112.9-35.9-147.9-45.7v-36.6v0h0v-7.5c13.4-5.7,25.5-14.1,35.9-25.4c11.6,0,54.2,0,62.7,0
	c-16.4,0-16.4-115.2-16.4-115.2h-1c0.3-4.1,0.9-8.3,0.9-12.4c0-75-19.2-135.8-115-135.8c-95.8,0-115,60.8-115,135.8
	c0,4.1,0.6,8.3,0.9,12.4h-0.9c0,0,0,115.2-16.4,115.2c8.5,0,50.9,0,62.6,0c10.4,11.3,22.6,19.7,36,25.4v7.5v34.1
	c-20.1,6.3-119.5,37.4-141.7,48.2c-24,11.7-42.3,68.3-6.3,82.2c-1.1,0.3,87.8,5.6,176.7,5.5c92.3-0.1,184.9-5.5,184.9-5.5
	C-3183.2,483.5-3190.8,424.9-3214.8,413.3z"/>
<path class="st0" d="M-2575.9,526.5c0,0-111.9,5.9-223.1,5.9c-120.3,0-240.6-5.9-240.6-5.9c-25.7-39.5-15.3-118.4,10.4-144.7
	c12.3-12.5,104-36.2,148-47c-46.4-36.1-74.7-103-74.7-166.8c0-92.8,26.9-168,148-168c121.1,0,148,75.2,148,168
	c0,63.6-28.1,130.4-74.3,166.5c42.9,10.7,136.1,35.1,148,47.3C-2560.5,408.1-2550.4,487-2575.9,526.5z M-2607.2,409.5
	c-16.8-9-89.4-29.4-151.2-44.3v-52.1c41.2-28.1,65.6-89.1,65.6-144.6c0-75-19.2-135.8-115-135.8c-95.8,0-115,60.8-115,135.8
	c0,55.5,24.5,116.6,65.7,144.6v52.5c-62.1,14.6-134.3,34.7-150.9,43.8c-10.7,13.6-20.1,57-13.5,84.1c0,0,112.8,6.5,222.5,6.5
	c103.9,0,204.9-6.5,204.9-6.5C-2587.4,466.5-2596.6,423.2-2607.2,409.5z"/>
<g>
	<path d="M-2359.4,218.3c-14.7,0-26.7-12-26.7-26.7c0-14.7,12-26.7,26.7-26.7s26.7,12,26.7,26.7
		C-2332.7,206.4-2344.7,218.3-2359.4,218.3z M-2359.4,169.9c-12,0-21.7,9.7-21.7,21.7s9.7,21.7,21.7,21.7s21.7-9.7,21.7-21.7
		S-2347.5,169.9-2359.4,169.9z"/>
</g>
<g>
	<path d="M-2123.3,408.6c-70.6,0-128-57.4-128-128s57.4-128,128-128c70.6,0,128,57.4,128,128S-2052.8,408.6-2123.3,408.6z
		 M-2123.3,172.7c-59.5,0-108,48.4-108,108s48.4,108,108,108s108-48.4,108-108S-2063.8,172.7-2123.3,172.7z"/>
</g>
<g>
	<path d="M-2123.3,374.6c-51.8,0-94-42.2-94-94c0-51.8,42.2-94,94-94c51.8,0,94,42.2,94,94C-2029.3,332.5-2071.5,374.6-2123.3,374.6
		z M-2123.3,196.6c-46.3,0-84,37.7-84,84s37.7,84,84,84s84-37.7,84-84S-2077,196.6-2123.3,196.6z"/>
</g>
<rect x="-2388.9" y="82" class="st0" width="58" height="15.5"/>
<path d="M-1941.4,104.9h-482.2c-13.3,0-24.1,10.8-24.1,24.1v219.8h20V129c0-2.3,1.8-4.1,4.1-4.1h482.2c2.3,0,4.1,1.8,4.1,4.1v313.4
	c0,2.3-1.8,4.1-4.1,4.1H-2331v20h389.5c13.3,0,24.1-10.8,24.1-24.1V129C-1917.3,115.7-1928.1,104.9-1941.4,104.9z"/>
<rect x="-2402.7" y="368.6" width="12.8" height="106.8"/>
<rect x="-2449.7" y="415.6" width="106.8" height="12.8"/>
<g>
	<path class="st1" d="M-1329.7,195c-18.3-79.3-85.7-132.5-159.9-132.5c-12.9,0-26,1.6-39.1,5c-23.5,6-41.3,17.1-59.1,31.9h-0.5
		c-17.9-14.8-35.6-25.9-59.1-31.9c-13.1-3.4-26.2-5-39.1-5c-74.2,0-141.5,53.2-159.9,132.5c-16.2,70.1,10.6,140.6,62.5,180.9
		l195.9,154.1l195.9-154.1C-1340.3,335.7-1313.5,265.1-1329.7,195z M-1418.4,342.5L-1588,476l-169.8-133.6
		c-40.7-31.6-59.2-85.6-47.1-137.7c13.5-58.6,62.2-99.6,118.4-99.6c9.5,0,19.1,1.2,28.5,3.6c14.8,3.8,26.8,10.4,42.7,23.5
		c7.6,6.3,17.7,9.7,27.6,9.7s19.4-3.4,27.1-9.7c15.9-13.1,27.9-19.7,42.7-23.5c9.4-2.4,19-3.6,28.5-3.6
		c56.2,0,104.9,40.9,118.4,99.6C-1359,256.7-1377.5,310.8-1418.4,342.5z"/>
	<path class="st1" d="M-1678.7,131.2c-75,13.9-87.9,93.5-88,94.3c-0.9,5.8,3.1,11.2,8.9,12.1c0.5,0.1,1.1,0.1,1.6,0.1
		c5.2,0,9.7-3.8,10.5-9c0.1-0.7,10.6-65.5,70.8-76.6c5.8-1.1,9.6-6.6,8.5-12.4C-1667.3,134-1672.9,130.2-1678.7,131.2z"/>
</g>
<path class="st2" d="M860.1,528.4"/>
<path class="st2" d="M2125.8,528.4"/>
<path class="st2" d="M2743.7,528.4"/>
<path class="st2" d="M-5153.5,1203.9"/>
<path class="st2" d="M-4576.1,1201"/>
<path class="st2" d="M-3989.5,1201"/>
<path class="st2" d="M-3407.6,1201"/>
<path class="st2" d="M-2819.7,1201"/>
<g>
	<path class="st1" d="M-947.9,44.7c-146.2,0-265.1,96.4-265.1,214.8c0,44.2,16.1,86.2,46.8,122.1l-18.9,94.1
		c-1.5,7.3,1,14.8,6.5,19.8c3.9,3.6,9,5.4,14.1,5.4c2.1,0,4.2-0.3,6.2-0.9l122.5-37.8c28.2,8,57.7,12.1,87.8,12.1
		c146.2,0,265.1-96.4,265.1-214.8C-682.8,141-801.7,44.7-947.9,44.7z M-947.9,432.1c-28.1,0-55.6-4.1-81.7-12.1
		c-4.1-1.2-8.4-1.2-12.4,0l-94.7,29.2l14-69.7c1.3-6.7-0.6-13.6-5.3-18.6c-28-29.7-42.7-64.8-42.7-101.4
		c0-95.2,100-172.6,222.9-172.6S-725,164.3-725,259.5C-725,354.7-825,432.1-947.9,432.1z"/>
	<path class="st1" d="M-924.8,128c-126.8-8.6-192.1,109.2-194.8,114.2c-2.8,5.1-0.9,11.5,4.2,14.3c1.6,0.9,3.3,1.3,5,1.3
		c3.8,0,7.4-2,9.3-5.5c0.6-1.1,61.6-110.7,174.8-103.2c6,0.5,10.8-4,11.2-9.8C-914.6,133.4-919,128.4-924.8,128z"/>
</g>
<g>
	<path class="st1" d="M-1575,700.9c-146.2,0-265.1,96.4-265.1,214.8c0,44.2,16.1,86.2,46.8,122.1l-18.9,94.1
		c-1.5,7.3,1,14.8,6.5,19.8c3.9,3.6,9,5.4,14.1,5.4c2.1,0,4.2-0.3,6.2-0.9l122.5-37.8c28.2,8,57.7,12.1,87.8,12.1
		c146.2,0,265.1-96.4,265.1-214.8C-1309.8,797.3-1428.8,700.9-1575,700.9z M-1575,1088.4c-28.1,0-55.6-4.1-81.7-12.1
		c-4.1-1.2-8.4-1.2-12.4,0l-94.7,29.2l14-69.7c1.3-6.7-0.6-13.6-5.3-18.6c-28-29.7-42.7-64.8-42.7-101.4
		c0-95.2,100-172.6,222.9-172.6s222.9,77.4,222.9,172.6C-1352.1,1010.9-1452,1088.4-1575,1088.4z"/>
</g>
<g>
	<g>
		<path class="st1" d="M-284.4,262.8l112.4-109.4c13.3-13,13.3-34,0-47c-13.3-13-34.9-13-48.3,0l-106.6,103.8l-106.6-103.8
			c-13.3-13-34.9-13-48.3,0c-13.3,13-13.3,34,0,47l112.4,109.4l-109.4,107.1c-13.1,12.8-13.1,33.7,0,46.5
			c13.1,12.8,34.4,12.8,47.5,0l104.4-102.2l104.4,102.2c13.1,12.8,34.4,12.8,47.5,0c13.1-12.8,13.1-33.7,0-46.5L-284.4,262.8z"/>
	</g>
</g>
<g>
	<g>
		<path class="st1" d="M-814.2,1034.3l34.5-33.6c4.1-4,4.1-10.4,0-14.4c-4.1-4-10.7-4-14.8,0l-32.7,31.8l-32.7-31.8
			c-4.1-4-10.7-4-14.8,0c-4.1,4-4.1,10.4,0,14.4l34.5,33.6l-33.6,32.9c-4,3.9-4,10.3,0,14.3c4,3.9,10.6,3.9,14.6,0l32-31.4l32,31.4
			c4,3.9,10.6,3.9,14.6,0c4-3.9,4-10.3,0-14.3L-814.2,1034.3z"/>
	</g>
</g>
<g>
	<path class="st3" d="M266.7,0.4L33.4,132.8l-0.5,265.9L265.7,532L499,399.6l0.5-265.9L266.7,0.4z M475,385.6L265.7,504.4
		L56.9,384.8l0.5-238.1L266.6,28l208.8,119.5L475,385.6z"/>
	<path class="st3" d="M220.9,202.8c-5-5-13.1-5-18.1,0c-5,5-5,13.1,0,18.1l45.3,45.3l-45.3,45.3c-5,5-5,13.1,0,18.1
		c5,5,13.1,5,18.1,0l45.3-45.3l45.3,45.3c5,5,13.1,5,18.1,0c5-5,5-13.1,0-18.1l-45.3-45.3l45.3-45.3c5-5,5-13.1,0-18.1
		c-5-5-13.1-5-18.1,0l-45.3,45.3L220.9,202.8z"/>
</g>
<g>
	<g>
		<circle class="st4" cx="872" cy="265.6" r="252"/>
	</g>
</g>
<g>
	<g>
		<circle class="st4" cx="2137.8" cy="265.6" r="252"/>
	</g>
</g>
<path class="st3" d="M962.3,367.2c-6.2,6.2-16.3,6.2-22.5,0l-74-74c-6.2-6.2-6.2-16.3,0-22.5c6.2-6.2,16.3-6.2,22.5,0l74,74
	C968.5,351,968.5,361,962.3,367.2z"/>
<path class="st3" d="M874.3,136.3c8.8,0,15.9,7.1,15.9,15.9v127.1c0,8.8-7.1,15.9-15.9,15.9s-15.9-7.1-15.9-15.9V152.2
	C858.4,143.4,865.5,136.3,874.3,136.3z"/>
<g>
	<path class="st4" d="M1653.6,476.1"/>
	<g>
		<g>
			<path class="st4" d="M1722.5,218.2c0-113-87.6-204.6-195.6-204.6c-108,0-195.6,91.6-195.6,204.6c0,61,25.5,115.8,66,153.3
				l129.6,136.3L1653,374.6C1695.5,337.1,1722.5,281,1722.5,218.2z"/>
		</g>
	</g>
	<path class="st4" d="M1533,134c41.4,0,75,33.3,75,74.4c0,41.1-33.6,74.4-75,74.4c-41.4,0-75-33.3-75-74.4
		C1458.1,167.3,1491.6,134,1533,134z"/>
</g>
<text transform="matrix(1 0 0 1 2100.874 339.0505)" class="st1" style="font-family:'Times-BoldItalic'; font-size:254.6311px;">i</text>
<g>
	<g>
		<path class="st3" d="M2986.8,236h-462.3c-19.3,0-35,15.7-35,35s15.7,35,35,35h462.3c19.3,0,35-15.7,35-35S3006.2,236,2986.8,236z
			 M2524.5,129.6h308.2c19.3,0,35-15.7,35-35s-15.7-35-35-35h-308.2c-19.3,0-35,15.7-35,35S2505.2,129.6,2524.5,129.6z
			 M2832.7,404.1h-308.2c-19.3,0-35,15.7-35,35s15.7,35,35,35h308.2c19.3,0,35-15.7,35-35S2852.1,404.1,2832.7,404.1z"/>
	</g>
</g>
<g>
	<path class="st1" d="M-4393.2,1169.4c-2.5,0-5-0.1-7.6-0.4l-247.8-28.9c-17.2-2-32.7-10.6-43.4-24.2
		c-10.7-13.5-15.5-30.4-13.6-47.5l26.8-336l0-0.3c4.2-35.6,36.5-61.2,72.1-57l247.8,28.9c35.5,4.1,61,36.3,57,71.8l-26.8,336l0,0.3
		C-4332.6,1145-4360.7,1169.4-4393.2,1169.4z M-4648.8,735.2l-26.8,336l0,0.3c-1.1,9.2,1.5,18.3,7.3,25.6c5.8,7.3,14,11.9,23.3,13
		l247.8,28.9c19,2.2,36.2-11.4,38.6-30.3l26.8-336l0-0.3c2.2-19.1-11.5-36.4-30.5-38.6l-247.8-28.9
		C-4629.2,702.7-4646.4,716.3-4648.8,735.2z"/>
</g>
<path class="st1" d="M-4667.8,1169c-5.1-0.6-10-1.7-14.7-3.3l-38.1,3.3c-9.3,0.8-18.3-2-25.4-8s-11.5-14.4-12.3-23.6l0-0.3
	l-41.6-334.5c-1.5-19,12.6-35.8,31.7-37.5l62.2-5.4l2.4-30.5l-67.2,5.9c-35.7,3.1-62.2,34.7-59.1,70.4l0,0.3l41.6,334.5
	c1.6,17.2,9.7,32.7,22.9,43.8c13.3,11.2,30.1,16.5,47.4,15l176.2-15.4L-4667.8,1169z"/>
<g>
	<path class="st3" d="M-3788.1,716.7h-80.7v-24c0-11.1-9-20.2-20.2-20.2c-11.1,0-20.2,9-20.2,20.2v24h-141.2v-24
		c0-11.1-9-20.2-20.2-20.2c-11.1,0-20.2,9-20.2,20.2v24h-80.7c-25.7,0-46.6,20.9-46.6,46.6v393.4c0,25.7,20.9,46.6,46.6,46.6h383.3
		c25.7,0,46.6-20.9,46.6-46.6V763.3C-3741.5,737.6-3762.4,716.7-3788.1,716.7z M-3774.2,1156.7c0,7.7-6.2,13.9-13.9,13.9h-383.3
		c-7.7,0-13.9-6.2-13.9-13.9V763.3c0-7.7,6.2-13.9,13.9-13.9h80.7v54.2c0,11.1,9,20.2,20.2,20.2c11.1,0,20.2-9,20.2-20.2v-54.2
		h141.2v54.2c0,11.1,9,20.2,20.2,20.2c11.1,0,20.2-9,20.2-20.2v-54.2h80.7c7.7,0,13.9,6.2,13.9,13.9V1156.7z"/>
	<path class="st3" d="M-3900.5,894.8l-100.4,100.4l-49-40.9c-6.9-5.8-17.3-4.9-23.1,2.1c-5.8,6.9-4.9,17.3,2.1,23.1l60.5,50.4
		c3,2.5,6.8,3.8,10.5,3.8c4.2,0,8.4-1.6,11.6-4.8l111-111c6.4-6.4,6.4-16.8,0-23.2C-3883.8,888.4-3894.1,888.4-3900.5,894.8z"/>
</g>
<g>
	<g>
		<path class="st1" d="M-3155.9,881.2l-50.4-10.1c-2.5-7.3-5.5-14.4-8.8-21.2l28.6-42.9c8.7-13.1,7-30.4-4.1-41.5l-31.7-31.7
			c-6.4-6.4-14.8-9.6-23.3-9.6c-6.3,0-12.7,1.8-18.2,5.5l-42.9,28.6c-6.9-3.3-14-6.3-21.2-8.8l-10.1-50.4
			c-3.1-15.4-16.6-26.5-32.3-26.5h-44.8c-15.7,0-29.2,11.1-32.3,26.5l-10.1,50.4c-7.3,2.5-14.4,5.5-21.2,8.8l-42.8-28.6
			c-5.6-3.7-11.9-5.5-18.2-5.5c-8.5,0-16.9,3.3-23.3,9.6l-31.6,31.7c-11.1,11.1-12.8,28.5-4.1,41.5l28.6,42.9
			c-3.3,6.9-6.3,13.9-8.8,21.2l-50.5,10.1c-15.4,3.1-26.5,16.6-26.5,32.3v44.8c0,15.7,11.1,29.2,26.5,32.3l50.4,10.1
			c2.5,7.3,5.5,14.4,8.8,21.2l-28.5,42.9c-8.7,13.1-7,30.4,4.1,41.5l31.7,31.7c6.4,6.4,14.8,9.6,23.3,9.6c6.3,0,12.7-1.8,18.2-5.5
			l42.9-28.6c6.9,3.3,13.9,6.3,21.2,8.8l10.1,50.4c3.1,15.4,16.6,26.5,32.3,26.5h44.8c15.7,0,29.2-11.1,32.3-26.5l10.1-50.4
			c7.3-2.5,14.4-5.5,21.2-8.8l42.9,28.6c5.6,3.7,11.9,5.5,18.2,5.5c8.5,0,16.9-3.3,23.3-9.6l31.7-31.7c11.1-11.1,12.8-28.5,4.1-41.5
			l-28.6-42.9c3.3-6.9,6.3-14,8.8-21.2l50.4-10.1c15.4-3,26.5-16.6,26.5-32.3v-44.8C-3129.4,897.8-3140.5,884.2-3155.9,881.2z
			 M-3212.8,968.3c-11.4,2.3-20.8,10.4-24.6,21.5c-2.1,6.1-4.6,12-7.4,17.7c-5.1,10.5-4.2,22.9,2.2,32.6l28.6,42.9l-31.7,31.7
			l-42.9-28.6c-5.5-3.7-11.9-5.5-18.3-5.5c-4.9,0-9.8,1.1-14.3,3.3c-5.7,2.8-11.6,5.3-17.7,7.4c-11,3.8-19.2,13.2-21.4,24.6
			l-10.1,50.5h-44.8l-10.1-50.5c-2.3-11.4-10.4-20.8-21.5-24.6c-6.1-2.1-12-4.6-17.7-7.4c-4.5-2.2-9.4-3.3-14.4-3.3
			c-6.4,0-12.8,1.9-18.3,5.5l-42.9,28.6l-31.7-31.7l28.6-42.9c6.5-9.7,7.3-22.1,2.3-32.6c-2.8-5.7-5.3-11.6-7.4-17.7
			c-3.8-11-13.2-19.2-24.6-21.4l-50.4-10.1l0-44.8l50.5-10.1c11.4-2.3,20.8-10.4,24.6-21.5c2.1-6.1,4.6-12,7.4-17.7
			c5.1-10.5,4.2-22.9-2.2-32.6l-28.5-42.9l31.6-31.7l42.9,28.6c5.5,3.7,11.9,5.5,18.3,5.5c4.9,0,9.8-1.1,14.3-3.3
			c5.7-2.8,11.6-5.2,17.7-7.4c11-3.8,19.2-13.2,21.5-24.6l10.1-50.4l44.8,0l10.1,50.5c2.3,11.4,10.5,20.8,21.5,24.6
			c6.1,2.1,12,4.6,17.7,7.4c4.6,2.2,9.4,3.3,14.4,3.3c6.4,0,12.8-1.9,18.3-5.5l42.9-28.6l31.7,31.7l-28.6,42.9
			c-6.5,9.7-7.3,22.1-2.3,32.6c2.8,5.7,5.3,11.6,7.4,17.7c3.8,11,13.2,19.2,24.6,21.5l50.4,10.1l0,44.8L-3212.8,968.3z
			 M-3392.7,820.6c-63.6,0-115.2,51.6-115.2,115.2c0,63.6,51.6,115.2,115.2,115.2c63.6,0,115.2-51.6,115.2-115.2
			C-3277.5,872.2-3329.1,820.6-3392.7,820.6z M-3392.7,1036.6c-55.7,0-100.8-45.2-100.8-100.8c0-55.7,45.1-100.8,100.8-100.8
			c55.6,0,100.8,45.1,100.8,100.8C-3291.9,991.5-3337.1,1036.6-3392.7,1036.6z M-3392.7,870c-36.4,0-65.8,29.5-65.8,65.8
			c0,36.4,29.5,65.8,65.8,65.8c36.4,0,65.8-29.5,65.8-65.8C-3326.9,899.5-3356.4,870-3392.7,870z M-3392.7,985.2
			c-27.3,0-49.4-22.1-49.4-49.4c0-27.3,22.1-49.4,49.4-49.4c27.3,0,49.4,22.1,49.4,49.4C-3343.4,963.1-3365.5,985.2-3392.7,985.2z"
			/>
	</g>
</g>
<g>
	<path class="st1" d="M-4919.5,738.6h-435.1c-24.9,0-45.1,20.2-45.1,45.1v312.1c0,24.9,20.2,45.1,45.1,45.1h435.1
		c24.9,0,45.1-20.2,45.1-45.1V783.7C-4874.4,758.9-4894.7,738.6-4919.5,738.6z M-4901.2,1100.4c0,6.6-5.4,12-12,12H-5361
		c-6.6,0-12-5.4-12-12V779.2c0-6.6,5.4-12,12-12h447.8c6.6,0,12,5.4,12,12V1100.4z"/>
	<path class="st1" d="M-4990.5,843.1l-146.6,100.8l-146.6-100.8c-3.8-2.6-9-1.7-11.6,2.2c-2.6,3.8-1.7,9,2.2,11.6l151.3,104
		c1.4,1,3.1,1.5,4.7,1.5s3.3-0.5,4.7-1.5l151.3-104c3.8-2.6,4.8-7.8,2.2-11.6C-4981.5,841.4-4986.7,840.4-4990.5,843.1z"/>
</g>
<path class="st1" d="M-2630.1,961.3c-18.5-2.3-35.7,10.6-38.1,29c-5.4,41.5-26.9,78.5-60.6,104.1s-75.5,36.9-117.9,31.6
	c-87.4-10.8-149.4-89.4-138.4-175.1c5.4-41.5,26.9-78.5,60.6-104.1c25.6-19.5,55.9-30.6,87.5-32.5l-2.3,47.4
	c-0.5,10.8,5.2,21,14.8,26.3c4,2.2,8.5,3.5,13,3.7c6.1,0.3,12.3-1.4,17.6-4.8l110-72.5c7.7-5.1,12.5-13.5,12.9-22.6
	c0.4-9.1-3.7-17.9-10.9-23.6l-102.7-80.5c-8.6-6.7-20.3-8.2-30.3-3.7c-10,4.4-16.6,14-17.1,24.7l-1.8,38.6
	c-47.9,1.4-93.9,17.4-132.5,46.8c-48.1,36.6-78.8,89.3-86.4,148.6c-15.7,122.3,72.8,234.3,197.4,249.8c9.7,1.2,19.4,1.8,29,1.8
	c50.2,0,98.8-16.2,139.1-46.9c48.1-36.6,78.8-89.3,86.4-148.6C-2598.2,980.3-2611.4,963.6-2630.1,961.3z"/>
<g>
	<g>
		<path class="st0" d="M-1965.1,776.1h-439.7c-28.2,0-41.9,9.7-41.9,42.9v279c0,27.6,14.2,42.9,41.9,42.9l71.3-0.1l368.4,0.1
			c29.9,0,41.9-17.9,41.9-42.9V819C-1923.2,791.5-1934.7,776.1-1965.1,776.1z M-2342.1,932.2c-23.1,0-41.9-18.7-41.9-41.8
			c0-23.1,18.7-41.8,41.9-41.8c23.1,0,41.9,18.7,41.9,41.8C-2300.2,913.5-2318.9,932.2-2342.1,932.2z M-2101.2,1078.2
			c-63.7,0-115.3-51.4-115.3-114.8c0-63.4,51.6-114.8,115.3-114.8c63.7,0,115.3,51.4,115.3,114.8
			C-1985.9,1026.8-2037.5,1078.2-2101.2,1078.2z M-2101.2,911.3c-28.8,0-52.2,23.4-52.2,52.3c0,28.9,23.4,52.3,52.2,52.3
			c28.8,0,52.2-23.4,52.2-52.3C-2049,934.7-2072.4,911.3-2101.2,911.3z M-2303.9,728.6h-79.3v31.7h79.3V728.6z"/>
	</g>
</g>
<circle class="st1" cx="-921.2" cy="1107.7" r="22.1"/>
<path class="st1" d="M-690.6,821.1c-18.3-79.3-85.7-132.5-159.9-132.5c-12.9,0-26,1.6-39.1,5c-23.5,6-41.3,17.1-59.1,31.9h-0.5
	c-17.9-14.8-35.6-25.9-59.1-31.9c-13.1-3.4-26.2-5-39.1-5c-74.2,0-141.5,53.2-159.9,132.5c-16.2,70.1,10.6,140.6,62.5,180.9
	l195.9,154.1l37.3-28.5l-0.2-0.8c7.5-3.5,12.7-11.1,12.7-20c0-12.2-9.9-22.1-22.1-22.1c-7.7,0-14.4,3.9-18.4,9.9l-9.4,7.4
	l-169.8-133.6c-40.7-31.6-59.2-85.6-47.1-137.7c13.5-58.6,62.2-99.6,118.4-99.6c9.5,0,19.1,1.2,28.5,3.6
	c14.8,3.8,26.8,10.4,42.7,23.5c7.6,6.3,17.7,9.7,27.6,9.7c9.9,0,19.4-3.4,27.1-9.7c15.9-13.1,27.9-19.7,42.7-23.5
	c9.4-2.4,19-3.6,28.5-3.6c56.2,0,104.9,40.9,118.4,99.6c9.2,39.6,0.6,80.4-22,111.6c-3.7,3.9-5.9,9.1-5.9,14.9
	c0,12,9.7,21.7,21.7,21.7c9.2,0,17.1-5.7,20.2-13.8C-690.2,925.2-678.6,873-690.6,821.1z"/>
<path class="st1" d="M-1055.3,754.3c-75,13.9-87.9,93.5-88,94.3c-0.9,5.8,3.1,11.2,8.9,12.1c0.5,0.1,1.1,0.1,1.6,0.1
	c5.2,0,9.7-3.8,10.5-9c0.1-0.7,10.6-65.5,70.9-76.6c5.8-1.1,9.6-6.6,8.5-12.4C-1044,757.1-1049.5,753.2-1055.3,754.3z"/>
<g>
	<path class="st1" d="M-53.9,829.8c-18.3-79.3-85.7-132.5-159.9-132.5c-12.9,0-26,1.6-39.1,5c-23.5,6-41.3,17.1-59.1,31.9h-0.5
		c-17.9-14.8-35.6-25.9-59.1-31.9c-13.1-3.4-26.2-5-39.1-5c-74.2,0-141.5,53.2-159.9,132.5c-16.2,70.1,10.6,140.6,62.5,180.9
		l195.9,154.1l195.9-154.1C-64.5,970.4-37.7,899.9-53.9,829.8z"/>
</g>
<g>
	<path class="st1" d="M261.1,989.2c-38.8,0-70.4-31.6-70.4-70.4s31.6-70.4,70.4-70.4s70.4,31.6,70.4,70.4S300,989.2,261.1,989.2z
		 M261.1,869.4c-27.2,0-49.4,22.2-49.4,49.4s22.2,49.4,49.4,49.4s49.4-22.2,49.4-49.4S288.4,869.4,261.1,869.4z"/>
</g>
<g>
	<path class="st1" d="M261.1,1085c-91.7,0-166.3-74.6-166.3-166.3c0-91.7,74.6-166.3,166.3-166.3c91.7,0,166.3,74.6,166.3,166.3
		C427.4,1010.4,352.8,1085,261.1,1085z M261.1,773.5c-80.1,0-145.2,65.2-145.2,145.2c0,80.1,65.2,145.2,145.2,145.2
		s145.2-65.2,145.2-145.2C406.4,838.7,341.2,773.5,261.1,773.5z"/>
</g>
<g>
	<path class="st1" d="M261.1,1163.1c-134.8,0-244.4-109.6-244.4-244.4c0-134.8,109.6-244.4,244.4-244.4
		c134.8,0,244.4,109.6,244.4,244.4C505.5,1053.5,395.9,1163.1,261.1,1163.1z M261.1,695.4C138,695.4,37.8,795.6,37.8,918.7
		c0,123.1,100.2,223.3,223.3,223.3s223.3-100.2,223.3-223.3C484.4,795.6,384.3,695.4,261.1,695.4z"/>
</g>
<rect x="254.1" y="674" class="st1" width="15.1" height="255.9"/>
<g>
	<g>
		<path class="st1" d="M708.8,1545.1c-1,0.5-2,1-3,1.5c-1.2,0.6-1.6,2.3-0.9,3.4c0.8,1.2,2.2,1.5,3.4,0.9c1-0.5,2-1,3-1.5
			c1.2-0.6,1.6-2.3,0.9-3.4C711.4,1544.8,710.1,1544.5,708.8,1545.1L708.8,1545.1z"/>
	</g>
</g>
<circle class="st1" cx="260.6" cy="919.9" r="14.5"/>
<circle class="st1" cx="107.6" cy="921.3" r="33.5"/>
<circle class="st1" cx="380.3" cy="820.8" r="26.1"/>
<circle class="st1" cx="260.6" cy="1151.7" r="33.4"/>
<g id="jgBSz5.tif">
	<g>
		<path class="st1" d="M983.3,699.8c29.7,17.1,59.5,34.2,89.2,51.3c8.8,5.1,10.9,13.1,5.7,22c-2.9,5-5.7,10.1-8.7,15.1
			c-4.6,7.6-12.7,9.7-20.4,5.3c-28.5-16.4-57-32.8-85.5-49.3c-8.2-4.8-10.3-12.7-5.6-21c2.4-4.3,5.1-8.4,7.3-12.8
			c2.6-5.2,6.3-8.8,11.8-10.6C979.1,699.8,981.2,699.8,983.3,699.8z"/>
		<path class="st1" d="M622.5,1115.2c2.8-3,6.1-3.8,10.2-3.8c35.9,0.2,71.9,0.1,107.8,0.1c7.2,0,9.2,2,9.2,9.3c0,3.9,0.1,7.8,0,11.6
			c-0.1,5-2.7,7.6-7.7,7.9c-0.7,0-1.5,0-2.2,0c-35.8,0-71.6,0-107.4,0.1c-4.2,0-7.5-1.1-9.9-4.5
			C622.5,1128.9,622.5,1122,622.5,1115.2z"/>
		<path class="st1" d="M1047.5,816.8c-34.4-19.9-68.8-39.8-103.2-59.6c-9.1-5.3-16.9-3.1-22.2,6.1c-7.1,12.2-14.1,24.5-21.2,36.7
			c-41.2,71.3-82.3,142.6-123.5,213.8c-2.2,3.8-4,7.7-3.9,12.2c1,7.1,2,14.1,3.1,21.2c4.1,28.6,8.2,57.2,12.4,85.8
			c0.9,6.5,4.8,8.5,10.9,6.1c32.3-12.9,64.6-25.9,96.9-38.8c4.7-1.9,8.4-4.9,10.9-9.4c48.6-84.2,97.2-168.3,145.8-252.5
			C1058.3,829.7,1056.2,821.8,1047.5,816.8z M1004.1,851.3l-106.7,184.8c-4.6,8-12.5,10.1-20.7,5.4c-13.7-7.8-27.3-15.8-41-23.7
			c-9.7-5.6-11.7-12.8-6.1-22.4c26.2-45.4,52.4-90.7,78.6-136.1c9.2-15.9,18.4-31.7,27.4-47.6c2.9-5.1,7-8,12.9-8.2
			c2.8-0.1,5.3,0.8,7.6,2.2c14.2,8.2,28.4,16.3,42.5,24.6C1007,835.2,1009,842.8,1004.1,851.3z"/>
	</g>
</g>
</svg>
