<?xml version="1.0" encoding="utf-8"?>
<!-- Generator: Adobe Illustrator 19.1.0, SVG Export Plug-In . SVG Version: 6.00 Build 0)  -->
<svg version="1.1" id="Layer_1" xmlns="http://www.w3.org/2000/svg" xmlns:xlink="http://www.w3.org/1999/xlink" x="0px" y="0px"
	 viewBox="0 0 532.3 532.3" style="enable-background:new 0 0 532.3 532.3;" xml:space="preserve">
<style type="text/css">
	.st0{fill-rule:evenodd;clip-rule:evenodd;}
	.st1{fill:#231F20;}
	.st2{fill:none;stroke:#231F20;stroke-miterlimit:10;}
	.st3{fill:none;stroke:#231F20;stroke-width:24;stroke-miterlimit:10;}
	.st4{fill-rule:evenodd;clip-rule:evenodd;fill:#231F20;}
</style>
<g>
	<g>
		<polygon class="st3" points="269.8,13.6 48.6,139.2 48.1,391.2 268.9,517.6 490.2,392 490.6,140 		"/>
	</g>
</g>
<path class="st4" d="M332.8,192.9c5,5,5,13.1,0,18.1L224.1,319.7c-5,5-13.1,5-18.1,0c-5-5-5-13.1,0-18.1l108.7-108.7
	C319.7,187.9,327.8,187.9,332.8,192.9z"/>
<path class="st4" d="M224.1,192.9l108.7,108.7c5,5,5,13.1,0,18.1c-5,5-13.1,5-18.1,0L205.9,211c-5-5-5-13.1,0-18.1
	C211,187.9,219.1,187.9,224.1,192.9z"/>
</svg>
