<?xml version="1.0" encoding="utf-8"?>
<!-- Generator: Adobe Illustrator 19.1.0, SVG Export Plug-In . SVG Version: 6.00 Build 0)  -->
<svg version="1.1" id="Layer_1" xmlns="http://www.w3.org/2000/svg" xmlns:xlink="http://www.w3.org/1999/xlink" x="0px" y="0px"
	 viewBox="0 0 532.3 532.3" style="enable-background:new 0 0 532.3 532.3;" xml:space="preserve">
<style type="text/css">
	.st0{fill-rule:evenodd;clip-rule:evenodd;}
	.st1{fill:#231F20;}
	.st2{fill:none;stroke:#231F20;stroke-miterlimit:10;}
	.st3{fill:none;stroke:#231F20;stroke-width:24;stroke-miterlimit:10;}
	.st4{fill-rule:evenodd;clip-rule:evenodd;fill:#231F20;}
	.st5{fill:none;stroke:#231F20;stroke-width:28;stroke-miterlimit:10;}
</style>
<g>
	<path class="st1" d="M447.9,438.1c-16.9-32-13.4-23.4-16.4-39.2c-2.8-14.2-1.4-30.7-2.1-47.8c-1.2-25.8-3.6-52.9-3.6-75.6
		c0-20-8.3-26.3-12.8-39.2c-6.5-18.8-11.8-36-20.7-44.9c-10.8-10.9-22.6-4-22.6-4c-7.8-20.1-9.8-25.3-18-35.2
		c-7.9-9.6-19.7-8.3-19.7-8.3c0,0,3.4,4.7,6,15.2c2.2,8.9-0.1,7.2,2.7,34.2c0.5,5,4.5,13.7,5.1,20.8c0,0-4.2-5.3-7-18.7
		s-7-51.4-7-51.4c0,0-5.8-28.9-19.1-43.5c-7.1-7.8-21.7-7.7-27.2-5c-4,1.9-9.3,8.1-14.9,12.2C260,115.3,247.1,130,247,130
		c0,0,7.9-8.2,18.3-8.3c4.2,0,13.3-3,16.2-10.4c3.4,2.2-1.3,16.4-3.6,28.2c-1.6,8.4,1.3,32,0.6,42.9c-0.4,6.7-5.2,9.7-6.9,9.7
		c-0.3,0-0.5-0.1-0.6-0.2c-2.1-4.6-16.3-36.7-19.3-47.4c-3-10.7-4.8-14.5-4.8-14.5c0,0-2.2-6.7-8.3-18.7
		c-4.6-8.9-12.7-20.3-19.3-31.6c6.1-8.1,9.8-18.2,9.8-29.1c0-6.3-0.3-12.7-3.4-17.8c-7.5-12.3-10.4-20.6-27.4-27.5
		C192.9,3.2,186.9,2,180.6,2c-26.9,0-48.6,21.8-48.6,48.6c0,23,16,42.2,37.4,47.3c1.3,4.5,2.6,9.2,4,13.9c3.7,12.6,9.9,29.2,15,42.3
		c6.8,17.6,12.6,31.9,15.9,50.3c2.4,13.5,1,29,0.4,41.9c-0.5,11-1.3,21.5-2.6,30.2c-1.7,11.9-5.5,20.2-7.5,25.5
		c-1.5,4-1.2,7.3-1.2,7.3s-2.8-0.1-6,1c-3.3,1.1-5.4,3.8-5.4,3.8l-5.5-3.7c0,0,1-2,0-5.5c-1.1-3.9-3.1-9.3-5.8-16.6
		c-1.1-3-2.2-8.9-3.1-11.7c-2.3-7.4-5.4-10.1-5.4-10.1s3.2-10.2-1.1-21.2c-4.4-11.5-14.2-27-25.1-37.3c-8.9-8.5-16.2-10.7-24-9.5
		c-9.6,1.5-13.3,12.6-11.5,24.4c1.1,7.1,4.2,16.6,5,21.6c1.8,11.7-4.7,25.6-4.4,33.7c0.3,10.5,5.8,16.3,10.8,38.4
		c1.8,7.9,6.9,16.5,9.3,25.6c3.5,13.4,5.6,26.1,7.2,29.3c8.2,17.1,41,38.5,71.3,66.3c17.1,15.7,37.4,15.8,51.4,30
		c8.6,8.7,13.3,23.2,22.1,36.4c36.6,54.5,143.9,1.3,172.1-39.2C451.9,455.6,450.5,443,447.9,438.1z M209.2,59.6
		c-8.9-18.6-17.3-34.3-34.9-29c-6.2,1.8-12.4,8-13.4,18.1c-0.7,7.3,0.5,16.5,2.7,26.8c-8-5.4-13.2-14.6-13.2-24.9
		c0-16.6,13.5-30.2,30.1-30.2c16.7,0,30.1,13.5,30.1,30.2C210.7,53.8,210.1,56.7,209.2,59.6z M378,212.2c-2.5-6.1-6.2-23.5-6.2-23.5
		s3,2.2,5.4,6.9c2,4-0.1,3.3,2.4,15.6c0.5,2.3,4,6.3,4.6,9.5C384.3,220.8,380.6,218.4,378,212.2z"/>
</g>
</svg>
