<?xml version="1.0" encoding="utf-8"?>
<!-- Generator: Adobe Illustrator 19.2.1, SVG Export Plug-In . SVG Version: 6.00 Build 0)  -->
<svg version="1.1" id="Layer_1" xmlns="http://www.w3.org/2000/svg" xmlns:xlink="http://www.w3.org/1999/xlink" x="0px" y="0px"
	 viewBox="0 0 532.3 532.3" style="enable-background:new 0 0 532.3 532.3;" xml:space="preserve">
<style type="text/css">
	.st0{fill-rule:evenodd;clip-rule:evenodd;}
	.st1{fill:#231F20;}
	.st2{fill:none;stroke:#231F20;stroke-miterlimit:10;}
	.st3{fill:none;stroke:#231F20;stroke-width:24;stroke-miterlimit:10;}
	.st4{fill-rule:evenodd;clip-rule:evenodd;fill:#231F20;}
	.st5{fill:none;stroke:#231F20;stroke-width:28;stroke-miterlimit:10;}
	.st6{fill:none;stroke:#231F20;stroke-width:4;stroke-linecap:round;stroke-miterlimit:10;}
	
		.st7{fill:none;stroke:#231F20;stroke-width:4;stroke-linecap:round;stroke-miterlimit:10;stroke-dasharray:1.0017,12.0202,1.0017,12.0202;}
	
		.st8{fill:none;stroke:#231F20;stroke-width:4;stroke-linecap:round;stroke-miterlimit:10;stroke-dasharray:1.0017,12.0202,1.0017,12.0202,1.0017,12.0202;}
</style>
<g>
	<g>
		<path class="st4" d="M477.9,350.5c-26.1-5.7-75.7-19.5-79.7-20.6c-4.2-1.4-35.9-10.6-55.5,11.2c-12.6,14.1-19.2,22-21.3,24.7
			c-2.2,1.7-10.4,6.6-20.9-1.2c-22.1-16.3-100-83.3-121.1-120.4c-4.6-12.3-1.5-15.8,0.8-18.4c3.6-4.2,9.7-10.1,16.2-16.4
			c3.6-3.5,7.3-7.1,11-10.8c14.3-14.3,16.9-27.9,9.8-50.1c-5.9-18.6-23.1-82.1-23.2-82.8l-0.5-1.4c-0.6-1.4-14.9-35.3-59.8-34.3
			c-37.9,0.9-63.2,9-87.8,49c-8,13-25.5,49.8-15,108.7c11.1,62.3,49.6,130,114.2,201.2c90.5,99.8,176.6,123.6,232.9,126
			c3.4,0.1,6.7,0.2,10,0.2c47.6,0,80.9-14.9,95.4-28.4c26.9-25,32.2-37.6,33.2-54.8C519.6,384.3,506.5,356.8,477.9,350.5z
			 M493,430.7c-0.5,8.5-1,15.9-25.7,38.9c-12.7,11.8-45.8,23.7-88.3,21.8c-51.8-2.2-131.3-24.5-216.4-118.3
			C9.6,204.5,55.3,109,66,91.6c17.5-28.4,32.8-36.9,68.2-37.7c0.5,0,0.9,0,1.4,0c25,0,34.2,16.1,35.7,19.1
			c2.2,8.3,17.5,64.8,23.3,82.8c5.1,16.1,2.5,19.7-4,26.2c-3.6,3.6-7.2,7.1-10.7,10.6c-6.8,6.6-13.2,12.9-17.5,17.8
			c-10.2,11.6-11.7,25.4-4.7,43.3l0.7,1.4c23.8,43,107.7,113.6,128.1,128.7c21.9,16.2,43.1,6.6,51.3-0.7l0.8-0.7l0.7-0.8
			c0.1-0.1,6.1-7.8,21.1-24.5c10.1-11.2,30.5-4.6,30.7-4.5l0.7,0.2c2.2,0.6,53.5,14.9,81.2,21C478.6,374.9,496.2,378.8,493,430.7z
			 M380,146.9L331.8,194c-5.8,5.7-5.8,14.8,0,20.5c5.8,5.7,15.1,5.7,20.9,0l45.9-45l45.9,45c5.8,5.7,15.1,5.7,20.9,0
			c5.8-5.7,5.8-14.8,0-20.5l-48.1-47.2l49.4-48.2c5.9-5.7,5.9-15,0-20.7c-5.9-5.7-15.4-5.7-21.2,0l-46.9,45.7L351.8,78
			c-5.9-5.7-15.4-5.7-21.2,0c-5.9,5.7-5.9,15,0,20.7L380,146.9z"/>
	</g>
</g>
</svg>
