<?xml version="1.0" encoding="utf-8"?>
<!-- Generator: Adobe Illustrator 19.1.0, SVG Export Plug-In . SVG Version: 6.00 Build 0)  -->
<svg version="1.1" id="Layer_1" xmlns="http://www.w3.org/2000/svg" xmlns:xlink="http://www.w3.org/1999/xlink" x="0px" y="0px"
	 viewBox="0 0 532.3 532.3" style="enable-background:new 0 0 532.3 532.3;" xml:space="preserve">
<style type="text/css">
	.st0{fill-rule:evenodd;clip-rule:evenodd;}
	.st1{fill:#231F20;}
	.st2{fill:none;stroke:#231F20;stroke-miterlimit:10;}
	.st3{fill:none;stroke:#231F20;stroke-width:24;stroke-miterlimit:10;}
	.st4{fill-rule:evenodd;clip-rule:evenodd;fill:#231F20;}
	.st5{fill:none;stroke:#231F20;stroke-width:28;stroke-miterlimit:10;}
	.st6{fill:none;stroke:#231F20;stroke-width:30;stroke-linejoin:round;stroke-miterlimit:10;}
</style>
<path class="st1" d="M366.2,130H144.1V74.4L6.5,149.6l137.5,82.9V170h222.1c29.9,0,58.1,11.7,79.4,33c21.3,21.3,33,49.5,33,79.4
	v21.2c0,29.9-11.7,58.1-33,79.4c-21.3,21.3-49.5,33-79.4,33h-135c-11,0-20,9-20,20s9,20,20,20h135c84,0,152.4-68.4,152.4-152.4
	v-21.2C518.6,198.3,450.2,130,366.2,130z"/>
</svg>
