<?xml version="1.0" encoding="utf-8"?>
<!-- Generator: Adobe Illustrator 19.1.0, SVG Export Plug-In . SVG Version: 6.00 Build 0)  -->
<svg version="1.1" id="Layer_1" xmlns="http://www.w3.org/2000/svg" xmlns:xlink="http://www.w3.org/1999/xlink" x="0px" y="0px"
	 viewBox="0 0 532.3 532.3" style="enable-background:new 0 0 532.3 532.3;" xml:space="preserve">
<style type="text/css">
	.st0{fill-rule:evenodd;clip-rule:evenodd;}
</style>
<g>
	<path d="M336,532.3H196.4C88.1,532.3,0,444.3,0,336V196.5C0,88.3,88.1,0.2,196.4,0.2H336c108.3,0,196.4,88.1,196.4,196.4V336
		C532.3,444.3,444.3,532.3,336,532.3z M196.4,26.9c-93.5,0-169.6,76.1-169.6,169.6V336c0,93.5,76.1,169.6,169.6,169.6H336
		c93.5,0,169.6-76.1,169.6-169.6V196.5c0-93.5-76.1-169.6-169.6-169.6H196.4z"/>
</g>
<g>
	<g>
		<path d="M358.1,191.4H174.2c-5.1,0-9.3,4.1-9.3,9.2v131.4c0,5.1,4.2,9.2,9.3,9.2h183.9c5.2,0,9.3-4.1,9.3-9.2V200.6
			C367.4,195.5,363.3,191.4,358.1,191.4z M339,207.5l-73,55.6L198.8,208L339,207.5z M351.2,312.8l-44.8-43.1
			c-3.7-3.5-9.6-3.4-13.1,0.3c-3.5,3.7-3.4,9.5,0.4,13L339,325H193.2l45.5-41.9c3.8-3.5,3.9-9.3,0.4-13c-3.5-3.7-9.4-3.9-13.1-0.4
			l-44.9,43.2v-93.2l79,62.4c1.7,1.4,3.8,2.1,5.9,2.1c2.1,0,4.2-0.7,5.9-2.1l79.3-62.5V312.8z"/>
	</g>
</g>
</svg>
